<?xml version="1.0" encoding="utf-8"?>
<!-- Generator: Adobe Illustrator 16.0.0, SVG Export Plug-In . SVG Version: 6.00 Build 0)  -->
<!DOCTYPE svg PUBLIC "-//W3C//DTD SVG 1.1//EN" "http://www.w3.org/Graphics/SVG/1.1/DTD/svg11.dtd">
<svg version="1.1" id="Layer_1" xmlns="http://www.w3.org/2000/svg" xmlns:xlink="http://www.w3.org/1999/xlink" x="0px" y="0px"
	 width="6px" height="4px" viewBox="0 0 6 4" enable-background="new 0 0 6 4" xml:space="preserve">
<path fill-rule="evenodd" clip-rule="evenodd" fill="#234DA1" d="M0.169,1.117l0.002-0.001C0.066,0.997,0,0.84,0,0.667
	C0,0.298,0.288,0,0.643,0c0.188,0,0.354,0.084,0.472,0.217l0.001-0.001L3,2.347l1.883-2.131l0.002,0.001
	C5.002,0.084,5.169,0,5.357,0C5.712,0,6,0.298,6,0.667C6,0.84,5.934,0.997,5.829,1.116l0.002,0.001L3.474,3.784
	C3.352,3.921,3.18,4,3,4C2.819,4,2.648,3.921,2.526,3.784L0.169,1.117z"/>
</svg>
