<?xml version="1.0" encoding="utf-8"?>
<!-- Generator: Adobe Illustrator 16.0.0, SVG Export Plug-In . SVG Version: 6.00 Build 0)  -->
<!DOCTYPE svg PUBLIC "-//W3C//DTD SVG 1.1//EN" "http://www.w3.org/Graphics/SVG/1.1/DTD/svg11.dtd">
<svg version="1.1" id="Layer_1" xmlns="http://www.w3.org/2000/svg" xmlns:xlink="http://www.w3.org/1999/xlink" x="0px" y="0px"
	 width="16px" height="16px" viewBox="0 0 16 16" enable-background="new 0 0 16 16" xml:space="preserve">
<path fill-rule="evenodd" clip-rule="evenodd" fill="#222222" d="M14,16H2c-1.104,0-2-0.896-2-2l1-6c0.26-1.04,0.896-2,2-2h10
	c1.104,0,2,0.896,2,2l1,6C16,15.104,15.104,16,14,16z M13.012,8H2.988l-0.987,6h11.99L13.012,8z"/>
<path fill-rule="evenodd" clip-rule="evenodd" fill="#222222" d="M11,10c-0.552,0-1-0.448-1-1V7V6V4c0-1.104-0.896-2-2-2
	S6,2.896,6,4v2v1v2c0,0.552-0.448,1-1,1S4,9.552,4,9V7V6V4c0-2.209,1.791-4,4-4s4,1.791,4,4v2v1v2C12,9.552,11.552,10,11,10z"/>
</svg>
