<?xml version="1.0" encoding="utf-8"?>
<!-- Generator: Adobe Illustrator 16.0.0, SVG Export Plug-In . SVG Version: 6.00 Build 0)  -->
<!DOCTYPE svg PUBLIC "-//W3C//DTD SVG 1.1//EN" "http://www.w3.org/Graphics/SVG/1.1/DTD/svg11.dtd">
<svg version="1.1" id="Layer_1" xmlns="http://www.w3.org/2000/svg" xmlns:xlink="http://www.w3.org/1999/xlink" x="0px" y="0px"
	 width="32px" height="32px" viewBox="0 0 32 32" enable-background="new 0 0 32 32" xml:space="preserve">
<path opacity="0.3" fill-rule="evenodd" clip-rule="evenodd" fill="#4D4D4E" d="M16,32C7.164,32,0,24.836,0,16C0,7.164,7.164,0,16,0
	s16,7.164,16,16C32,24.836,24.836,32,16,32z M16,3C8.832,3,3,8.832,3,16s5.832,13,13,13s13-5.832,13-13S23.168,3,16,3z
	 M14.514,22.605l-0.003-0.004C14.243,22.846,13.891,23,13.5,23c-0.828,0-1.5-0.672-1.5-1.5c0-0.438,0.19-0.828,0.489-1.102
	l-0.003-0.003L17.28,16l-4.794-4.394l0.003-0.004C12.19,11.328,12,10.937,12,10.5C12,9.671,12.672,9,13.5,9
	c0.391,0,0.743,0.154,1.011,0.398l0.003-0.004l6,5.5C20.823,15.178,21,15.579,21,16c0,0.421-0.177,0.822-0.486,1.106L14.514,22.605z
	"/>
</svg>
