<?xml version="1.0" encoding="utf-8"?>
<!-- Generator: Adobe Illustrator 16.0.0, SVG Export Plug-In . SVG Version: 6.00 Build 0)  -->
<!DOCTYPE svg PUBLIC "-//W3C//DTD SVG 1.1//EN" "http://www.w3.org/Graphics/SVG/1.1/DTD/svg11.dtd">
<svg version="1.1" id="Layer_1" xmlns="http://www.w3.org/2000/svg" xmlns:xlink="http://www.w3.org/1999/xlink" x="0px" y="0px"
	 width="95.279px" height="19.24px" viewBox="0 0 95.279 19.24" enable-background="new 0 0 95.279 19.24" xml:space="preserve">
<g>
	<g>
		<path fill-rule="evenodd" clip-rule="evenodd" fill="#1F4BA5" d="M5.616,6.52c-1.44,0-2.832,0.288-4.176,0.864
			C1.023,7.56,0.816,7.824,0.816,8.176c0,0.352,0.087,0.612,0.264,0.78s0.344,0.252,0.504,0.252c0.16,0,0.304-0.016,0.432-0.048
			c1.2-0.384,2.264-0.576,3.192-0.576c1.087,0,1.896,0.228,2.424,0.684s0.792,1.22,0.792,2.292v0.192H5.52
			c-1.809,0-3.201,0.367-4.176,1.104C0.448,13.527,0,14.456,0,15.64c0,1.089,0.384,1.968,1.152,2.64
			c0.736,0.641,1.656,0.961,2.76,0.961c1.12,0,2.044-0.192,2.772-0.576c0.728-0.385,1.308-0.801,1.74-1.248v0.623
			c0,0.305,0.104,0.561,0.312,0.769c0.208,0.208,0.464,0.312,0.768,0.312c0.304,0,0.564-0.104,0.78-0.312
			c0.216-0.208,0.324-0.464,0.324-0.769v-6.791c0-1.296-0.4-2.376-1.2-3.24C8.512,7.016,7.248,6.52,5.616,6.52z M8.424,15.52
			c-0.416,0.465-0.948,0.88-1.596,1.248s-1.348,0.552-2.1,0.552c-1.696,0-2.544-0.64-2.544-1.92c0-0.688,0.32-1.176,0.96-1.464
			s1.528-0.432,2.664-0.432h2.616V15.52z M36.839,6.64c-0.56,0-0.904,0.216-1.032,0.648L33,16.527l-2.784-9.023
			c-0.081-0.256-0.228-0.464-0.444-0.624c-0.216-0.16-0.46-0.24-0.732-0.24s-0.516,0.08-0.732,0.24
			c-0.216,0.16-0.364,0.368-0.444,0.624l-2.784,9.023l-2.808-9.24C22.144,6.855,21.799,6.64,21.24,6.64
			c-0.272,0-0.513,0.104-0.72,0.312c-0.208,0.208-0.312,0.42-0.312,0.636c0,0.216,0.024,0.396,0.072,0.54l3.408,9.983
			c0.096,0.272,0.272,0.508,0.528,0.708c0.255,0.2,0.543,0.3,0.864,0.3c0.32,0,0.608-0.1,0.864-0.3
			c0.255-0.2,0.439-0.443,0.552-0.731l2.544-7.944l2.544,7.944c0.112,0.288,0.296,0.531,0.552,0.731c0.256,0.2,0.543,0.3,0.864,0.3
			c0.32,0,0.608-0.1,0.864-0.3c0.255-0.2,0.432-0.436,0.528-0.708L37.8,8.128c0.048-0.145,0.072-0.324,0.072-0.54
			c0-0.216-0.104-0.428-0.312-0.636C37.352,6.744,37.111,6.64,36.839,6.64z M52.176,6.52c-1.44,0-2.833,0.288-4.176,0.864
			c-0.417,0.176-0.624,0.44-0.624,0.792c0,0.352,0.087,0.612,0.264,0.78s0.344,0.252,0.504,0.252c0.16,0,0.304-0.016,0.432-0.048
			c1.2-0.384,2.265-0.576,3.192-0.576c1.088,0,1.896,0.228,2.424,0.684c0.527,0.456,0.792,1.22,0.792,2.292v0.192h-2.904
			c-1.808,0-3.2,0.367-4.176,1.104c-0.896,0.672-1.344,1.601-1.344,2.784c0,1.089,0.384,1.968,1.152,2.64
			c0.736,0.641,1.656,0.961,2.759,0.961c1.121,0,2.045-0.192,2.772-0.576c0.728-0.385,1.308-0.801,1.74-1.248v0.623
			c0,0.305,0.104,0.561,0.312,0.769c0.208,0.208,0.465,0.312,0.769,0.312s0.563-0.104,0.78-0.312
			c0.215-0.208,0.324-0.464,0.324-0.769v-6.791c0-1.296-0.4-2.376-1.201-3.24C55.071,7.016,53.808,6.52,52.176,6.52z M54.983,15.52
			c-0.416,0.465-0.948,0.88-1.597,1.248c-0.647,0.368-1.348,0.552-2.1,0.552c-1.695,0-2.544-0.64-2.544-1.92
			c0-0.688,0.32-1.176,0.96-1.464c0.641-0.288,1.527-0.432,2.664-0.432h2.616V15.52z M74.135,6.52h-0.119
			c-1.393,0-2.648,0.752-3.769,2.256V7.744c0-0.304-0.108-0.564-0.323-0.78c-0.217-0.216-0.477-0.324-0.781-0.324
			c-0.304,0-0.56,0.108-0.768,0.324c-0.208,0.216-0.313,0.476-0.313,0.78v10.295c0,0.305,0.104,0.561,0.313,0.769
			s0.464,0.312,0.768,0.312c0.305,0,0.564-0.104,0.781-0.312c0.215-0.208,0.323-0.464,0.323-0.769v-7.295
			c0.416-0.625,0.94-1.132,1.572-1.524s1.348-0.588,2.147-0.588h0.121c0.319,0,0.583-0.092,0.791-0.276
			c0.208-0.184,0.313-0.432,0.313-0.744s-0.1-0.572-0.301-0.78C74.691,6.624,74.439,6.52,74.135,6.52z M94.979,13.336
			c0.2-0.208,0.301-0.465,0.301-0.769c0-1.68-0.488-3.088-1.465-4.224c-1.039-1.216-2.455-1.824-4.248-1.824
			c-1.888,0-3.344,0.656-4.367,1.968c-0.912,1.168-1.368,2.632-1.368,4.393c0,2.032,0.544,3.6,1.632,4.704
			c1.088,1.104,2.616,1.656,4.584,1.656c0.943,0,1.776-0.104,2.496-0.313c0.32-0.096,0.615-0.208,0.889-0.336
			c0.271-0.128,0.579-0.284,0.924-0.469c0.344-0.184,0.516-0.483,0.516-0.899c0-0.224-0.096-0.424-0.288-0.601
			c-0.192-0.176-0.392-0.264-0.601-0.264c-0.207,0-0.455,0.072-0.744,0.217c-0.832,0.416-1.863,0.623-3.096,0.623
			s-2.191-0.319-2.879-0.959c-0.689-0.641-1.097-1.504-1.225-2.593h8.137C94.511,13.647,94.779,13.544,94.979,13.336z
			 M86.039,11.871c0.031-0.623,0.168-1.159,0.408-1.607C87.104,9,88.143,8.367,89.566,8.367c0.896,0,1.664,0.273,2.305,0.816
			c0.768,0.656,1.184,1.552,1.248,2.688H86.039z M29.088,4c1.104,0,2-0.896,2-2c0-1.104-0.896-2-2-2s-2,0.895-2,2
			C27.088,3.104,27.983,4,29.088,4z"/>
	</g>
</g>
</svg>
