<?xml version="1.0" encoding="utf-8"?>
<!-- Generator: Adobe Illustrator 16.0.0, SVG Export Plug-In . SVG Version: 6.00 Build 0)  -->
<!DOCTYPE svg PUBLIC "-//W3C//DTD SVG 1.1//EN" "http://www.w3.org/Graphics/SVG/1.1/DTD/svg11.dtd">
<svg version="1.1" id="Layer_1" xmlns="http://www.w3.org/2000/svg" xmlns:xlink="http://www.w3.org/1999/xlink" x="0px" y="0px"
	 width="16px" height="16px" viewBox="0 0 16 16" enable-background="new 0 0 16 16" xml:space="preserve">
<path fill-rule="evenodd" clip-rule="evenodd" fill="#D5D5D5" d="M14,16H5l0,0H2c-1.104,0-2-0.895-2-2V6c0-1.105,0.896-2,2-2h1V2
	c0-1.104,0.896-2,2-2h9c1.104,0,2,0.896,2,2v12C16,15.104,15.104,16,14,16z M14,3c0-0.552-0.448-1-1-1H6C5.448,2,5,2.448,5,3v9
	c0,0.552-0.448,1-1,1s-1-0.448-1-1V6l0,0C2.448,6,2,6.448,2,7v6c0,0.552,0.448,1,1,1l0,0l0,0h3l0,0h7c0.552,0,1-0.448,1-1V3z M7,10
	h5v2H7V10z M7,7h5v2H7V7z M7,4h5v2H7V4z"/>
</svg>
