<?xml version="1.0" encoding="utf-8"?>
<!-- Generator: Adobe Illustrator 16.0.0, SVG Export Plug-In . SVG Version: 6.00 Build 0)  -->
<!DOCTYPE svg PUBLIC "-//W3C//DTD SVG 1.1//EN" "http://www.w3.org/Graphics/SVG/1.1/DTD/svg11.dtd">
<svg version="1.1" id="Layer_1" xmlns="http://www.w3.org/2000/svg" xmlns:xlink="http://www.w3.org/1999/xlink" x="0px" y="0px"
	 width="32px" height="32px" viewBox="0 0 32 32" enable-background="new 0 0 32 32" xml:space="preserve">
<path opacity="0.3" fill-rule="evenodd" clip-rule="evenodd" fill="#4D4D4E" d="M16,32c8.836,0,16-7.164,16-16
	c0-8.836-7.164-16-16-16S0,7.164,0,16C0,24.836,7.164,32,16,32z M16,3c7.168,0,13,5.832,13,13s-5.832,13-13,13S3,23.167,3,16
	S8.832,3,16,3z M17.486,22.605l0.003-0.004C17.757,22.846,18.109,23,18.5,23c0.828,0,1.5-0.672,1.5-1.5
	c0-0.438-0.19-0.828-0.489-1.102l0.003-0.003L14.72,16l4.794-4.394l-0.003-0.004C19.81,11.328,20,10.937,20,10.5
	C20,9.671,19.328,9,18.5,9c-0.391,0-0.743,0.154-1.011,0.398l-0.003-0.004l-6,5.5C11.177,15.178,11,15.579,11,16
	c0,0.421,0.177,0.822,0.486,1.106L17.486,22.605z"/>
</svg>
