<?xml version="1.0" encoding="utf-8"?>
<!-- Generator: Adobe Illustrator 16.0.0, SVG Export Plug-In . SVG Version: 6.00 Build 0)  -->
<!DOCTYPE svg PUBLIC "-//W3C//DTD SVG 1.1//EN" "http://www.w3.org/Graphics/SVG/1.1/DTD/svg11.dtd">
<svg version="1.1" id="Layer_1" xmlns="http://www.w3.org/2000/svg" xmlns:xlink="http://www.w3.org/1999/xlink" x="0px" y="0px"
	 width="14px" height="16px" viewBox="0 0 14 16" enable-background="new 0 0 14 16" xml:space="preserve">
<path fill-rule="evenodd" clip-rule="evenodd" fill="#CFCECE" d="M13.966,9.667C13.63,13.219,10.641,16,7,16c-3.866,0-7-3.134-7-7
	c0-3.17,2.11-5.843,5-6.704V1.5C5,0.671,5.671,0,6.5,0c0.077,0,0.143,0.032,0.217,0.043l4.132,2.824C10.94,3.061,11,3.271,11,3.5
	c0,0.228-0.06,0.439-0.151,0.633L6.717,6.956C6.643,6.967,6.577,7,6.5,7C5.689,7,5.038,6.354,5.01,5.549C3.814,6.241,3,7.519,3,9
	c0,2.209,1.791,4,4,4s4-1.791,4-4c0,0,0.332-1,1.5-1S14,9,14,9C14,9.343,13.961,9.709,13.966,9.667z"/>
</svg>
