<?xml version="1.0" encoding="utf-8"?>
<!-- Generator: Adobe Illustrator 16.0.0, SVG Export Plug-In . SVG Version: 6.00 Build 0)  -->
<!DOCTYPE svg PUBLIC "-//W3C//DTD SVG 1.1//EN" "http://www.w3.org/Graphics/SVG/1.1/DTD/svg11.dtd">
<svg version="1.1" id="Layer_1" xmlns="http://www.w3.org/2000/svg" xmlns:xlink="http://www.w3.org/1999/xlink" x="0px" y="0px"
	 width="16px" height="16px" viewBox="0 0 16 16" enable-background="new 0 0 16 16" xml:space="preserve">
<path fill-rule="evenodd" clip-rule="evenodd" fill="#D0D0CF" d="M5,7.004c0,0,0,0.001,0,0.002H2v4h2.027l0.519,2.018l2.38-2.018
	h0.828l0.439,1.974C8.128,12.987,8.066,13,8,13H7.667L3,16l-0.667-3H2c-1.104,0-2-0.895-2-2V7c0-1.105,0.896-2,2-2h3V7.004z"/>
<path fill-rule="evenodd" clip-rule="evenodd" fill="#D0D0CF" d="M14,8h-0.333L9,11L8.333,8H8C6.896,8,6,7.104,6,6V2
	c0-1.105,0.896-2,2-2h6c1.104,0,2,0.895,2,2v4C16,7.104,15.104,8,14,8z M14,2.007H8v4h2.027l0.519,2.018l2.38-2.018H14V2.007z"/>
</svg>
