<?xml version="1.0" encoding="utf-8"?>
<!-- Generator: Adobe Illustrator 16.0.0, SVG Export Plug-In . SVG Version: 6.00 Build 0)  -->
<!DOCTYPE svg PUBLIC "-//W3C//DTD SVG 1.1//EN" "http://www.w3.org/Graphics/SVG/1.1/DTD/svg11.dtd">
<svg version="1.1" id="Layer_1" xmlns="http://www.w3.org/2000/svg" xmlns:xlink="http://www.w3.org/1999/xlink" x="0px" y="0px"
	 width="13px" height="13px" viewBox="0 0 13 13" enable-background="new 0 0 13 13" xml:space="preserve">
<path fill-rule="evenodd" clip-rule="evenodd" fill="#222222" d="M1.5,0h10C12.328,0,13,0.671,13,1.5C13,2.328,12.328,3,11.5,3h-10
	C0.672,3,0,2.328,0,1.5C0,0.671,0.672,0,1.5,0z M1.5,5h10C12.328,5,13,5.671,13,6.5C13,7.328,12.328,8,11.5,8h-10
	C0.672,8,0,7.328,0,6.5C0,5.671,0.672,5,1.5,5z M1.5,10h10c0.828,0,1.5,0.671,1.5,1.5c0,0.828-0.672,1.5-1.5,1.5h-10
	C0.672,13,0,12.328,0,11.5C0,10.671,0.672,10,1.5,10z"/>
</svg>
