<svg xmlns="http://www.w3.org/2000/svg" width="14" height="15" viewBox="0 0 14 15">
  <metadata><?xpacket begin="﻿" id="W5M0MpCehiHzreSzNTczkc9d"?>
<x:xmpmeta xmlns:x="adobe:ns:meta/" x:xmptk="Adobe XMP Core 5.6-c138 79.159824, 2016/09/14-01:09:01        ">
   <rdf:RDF xmlns:rdf="http://www.w3.org/1999/02/22-rdf-syntax-ns#">
      <rdf:Description rdf:about=""/>
   </rdf:RDF>
</x:xmpmeta>
                                                                                                    
                                                                                                    
                                                                                                    
                                                                                                    
                                                                                                    
                                                                                                    
                                                                                                    
                                                                                                    
                                                                                                    
                                                                                                    
                                                                                                    
                                                                                                    
                                                                                                    
                                                                                                    
                                                                                                    
                                                                                                    
                                                                                                    
                                                                                                    
                                                                                                    
                                                                                                    
                           
<?xpacket end="w"?></metadata>
<defs>
    <style>
      .cls-1 {
        fill: #222;
        fill-rule: evenodd;
      }
    </style>
  </defs>
  <path id="svg-icon-face" class="cls-1" d="M13,15a1,1,0,0,1-1-1,4.973,4.973,0,0,0-1.587-3.636A4.57,4.57,0,0,1,7,12a4.57,4.57,0,0,1-3.413-1.636A4.972,4.972,0,0,0,2,14H2a1,1,0,1,1-2,0,6.953,6.953,0,0,1,2.535-5.35A6.918,6.918,0,0,1,2,6C2,2.686,4.238,0,7,0s5,2.687,5,6a6.917,6.917,0,0,1-.535,2.65A6.953,6.953,0,0,1,14,14h0A1,1,0,0,1,13,15ZM7,2C5.343,2,4,3.79,4,6s1.343,4,3,4,3-1.791,3-4S8.656,2,7,2Z"/>
</svg>
