<svg xmlns="http://www.w3.org/2000/svg" width="15.124" height="12.532" viewBox="0 0 15.124 12.532">
  <metadata><?xpacket begin="﻿" id="W5M0MpCehiHzreSzNTczkc9d"?>
<x:xmpmeta xmlns:x="adobe:ns:meta/" x:xmptk="Adobe XMP Core 5.6-c138 79.159824, 2016/09/14-01:09:01        ">
   <rdf:RDF xmlns:rdf="http://www.w3.org/1999/02/22-rdf-syntax-ns#">
      <rdf:Description rdf:about=""/>
   </rdf:RDF>
</x:xmpmeta>
                                                                                                    
                                                                                                    
                                                                                                    
                                                                                                    
                                                                                                    
                                                                                                    
                                                                                                    
                                                                                                    
                                                                                                    
                                                                                                    
                                                                                                    
                                                                                                    
                                                                                                    
                                                                                                    
                                                                                                    
                                                                                                    
                                                                                                    
                                                                                                    
                                                                                                    
                                                                                                    
                           
<?xpacket end="w"?></metadata>
<defs>
    <style>
      .cls-1 {
        fill: #fff;
        fill-rule: evenodd;
      }
    </style>
  </defs>
  <path id="Icon-Favorites" class="cls-1" d="M344.739,478.924a1.9,1.9,0,0,1-1.349-.55l-5.286-5.235a0.928,0.928,0,0,1-.17-0.233,4,4,0,0,1-.615-3.438,4.226,4.226,0,0,1,3.2-2.962,4.44,4.44,0,0,1,.913-0.1,4.1,4.1,0,0,1,3.313,1.762,4.119,4.119,0,0,1,3.308-1.762,4.347,4.347,0,0,1,.97.113,4.231,4.231,0,0,1,3.145,2.974,4.006,4.006,0,0,1-.625,3.418,0.951,0.951,0,0,1-.167.226l-5.286,5.235a1.9,1.9,0,0,1-1.347.55m-5.181-6.974,5.181,5.13,5.179-5.13,0.01-.014a2.238,2.238,0,0,0,.405-1.98,2.347,2.347,0,0,0-1.748-1.64,2.445,2.445,0,0,0-.536-0.064c-1.645,0-2.407,2.118-2.415,2.139a0.946,0.946,0,0,1-.9.625h-0.007a0.943,0.943,0,0,1-.893-0.634c-0.006-.018-0.753-2.13-2.411-2.13a2.468,2.468,0,0,0-.508.056,2.366,2.366,0,0,0-1.772,1.632,2.238,2.238,0,0,0,.4,2,0.094,0.094,0,0,1,.01.014" transform="translate(-337.188 -466.406)"/>
</svg>
