<?xml version="1.0" encoding="utf-8"?>
<!-- Generator: Adobe Illustrator 16.0.0, SVG Export Plug-In . SVG Version: 6.00 Build 0)  -->
<!DOCTYPE svg PUBLIC "-//W3C//DTD SVG 1.1//EN" "http://www.w3.org/Graphics/SVG/1.1/DTD/svg11.dtd">
<svg version="1.1" id="달토끼_왼팔_copy_2" xmlns="http://www.w3.org/2000/svg" xmlns:xlink="http://www.w3.org/1999/xlink"
	 x="0px" y="0px" width="1007.883px" height="994.448px" viewBox="0 0 1007.883 994.448"
	 enable-background="new 0 0 1007.883 994.448" xml:space="preserve">
<g id="달토끼_꼬리">
	<g>
		<path fill="#D5C1EA" d="M941.545,515.031c-0.903,2.88-1.15,5.54-0.536,7.842c4.481,16.789,9.32,17.33,9.32,17.33
			c10.315,6.191,30.842,11.546,46.94,4.235c-0.108,0.441-0.216,0.874-0.328,1.329c-9.864,40.215-49.437,28.538-67.442,22.822
			c0,0-4.839-0.541-9.32-17.33C917.71,542.01,929.09,526.997,941.545,515.031z"/>
		
			<linearGradient id="SVGID_1_" gradientUnits="userSpaceOnUse" x1="1022.4551" y1="507.8359" x2="1061.1423" y2="546.3585" gradientTransform="matrix(-0.9755 -0.2201 -0.2201 0.9755 2107.8191 239.3412)">
			<stop  offset="0" style="stop-color:#FFFFFF"/>
			<stop  offset="0.179" style="stop-color:#F2EBF7"/>
			<stop  offset="0.3469" style="stop-color:#E9DDF2"/>
			<stop  offset="1" style="stop-color:#D5C1EA"/>
		</linearGradient>
		<path fill="url(#SVGID_1_)" d="M950.33,540.203c0,0-4.839-0.541-9.32-17.33c-0.614-2.302-0.367-4.962,0.536-7.842
			c10.155-9.755,21.025-17.485,25.69-18.414c10.389-2.067,26.568,9.301,34.082,12.65c-1.983-0.001-6.481,1.846-10.354,9.241
			c4.212-4.011,12.18-3.592,16.919-1.695c-3.037,1.479-4.865,4.352-10.613,27.625C981.172,551.75,960.645,546.395,950.33,540.203z"
			/>
	</g>
</g>
<g id="달토끼_다리">
	<path fill="#E9DDF2" d="M784.116,205.88c-37.654,0-39.176,53.019-29.591,106.974c3.101,17.454-14.394,35.157-13.59,54.45
		c14.626-13.682,31.937-35.871,42.736-45.885c0,0,24.97,11.417,33.38,21.963c3.149,3.949,3.981,7.775,0.307,10.835
		c-12.111,10.085-38.81,57.774-74.382,72.516c0.082,4.899,0.128,9.765,0.128,14.583c0,106.085,28.283,153.792,91.482,153.371
		c75.438-0.502,132.688,30.748,114.437-192.085C940.365,296.87,847.318,205.88,784.116,205.88z"/>
	<path fill="#D5C1EA" d="M762.23,360.297c-1.341,1.71-2.823,3.363-4.497,4.93c-0.804-19.293-0.108-34.919-3.208-52.373
		c-5.881-33.104-7.577-65.851,0.685-86.221C764.708,246.198,771.946,328.613,762.23,360.297z"/>
	<g>
		<path fill="#EAAD94" d="M730.611,713.158c3.9,0.018,8.268,0.012,12.875-0.015c-5.286-0.04-9.506-0.126-11.959-0.263
			C731.238,712.977,730.918,713.066,730.611,713.158z"/>
		<path fill="#D5C1EA" d="M672.722,704.571c0-25.144,80.988-36.496,111.882-42.095l1.084-5.058
			c-21.087-12.569-36.947-32.067-37.759-68.11c-0.716-31.708,19.322-69.494,45.377-75.875c-0.003-0.001-0.006-0.001-0.009-0.002
			c-33.061-8.129-61.553,38.175-60.701,75.878c0.813,36.043,16.672,55.542,37.759,68.11l-1.084,5.058
			c-30.894,5.599-111.882,16.951-111.882,42.095c0,6.527,18.699,8.58,25.475,8.038c6.55,2.807,16.072,3.157,24.016,2.213
			c-3.162-0.418-6.147-1.126-8.683-2.213C691.421,713.151,672.722,711.098,672.722,704.571z"/>
		<path fill="#E9DDF2" d="M793.307,513.433c-26.055,6.382-46.093,44.167-45.377,75.875c0.813,36.043,16.672,55.542,37.759,68.11
			l-1.084,5.058c-30.894,5.599-111.882,16.951-111.882,42.095c0,6.527,18.699,8.58,25.475,8.038
			c2.535,1.086,5.521,1.795,8.683,2.213c8.246,1.09,17.7,0.142,23.732-1.664c0.307-0.092,0.627-0.182,0.916-0.278
			c2.453,0.137,6.673,0.223,11.959,0.263c24.221-0.143,54.969-0.898,58.212-2.16c1.752-0.682,12.917-7.317,14.423-16.624
			c0.663-4.783-2.771-9.662-0.875-14.811c1.897-5.149,2.729-19.109,2.729-19.109C839.063,647.872,854,617.025,854,589.309
			C854,551.598,825.858,521.442,793.307,513.433z"/>
	</g>
	<g>
		<path fill="#D5C1EA" d="M805.546,705.574c0-25.144,19.874-36.496,50.767-42.094l1.084-5.058
			c-21.086-12.568-36.946-32.068-37.758-68.11c-0.725-32.108,19.833-70.446,46.369-76.098
			c-32.633-6.964-60.544,38.777-59.702,76.098c0.813,36.042,16.672,55.542,37.758,68.11l-1.084,5.058
			c-30.893,5.599-50.767,16.95-50.767,42.094c0,5.358,12.597,7.7,20.858,8.067c-0.162-0.767-0.295-1.509-0.404-2.23
			C808.592,710.111,805.546,708.208,805.546,705.574z"/>
		<path fill="#EAAD94" d="M817.656,697.225c1.353-5.647-0.922-5.595-4.224,2.513c-1.046,2.568-1.546,6.521-0.764,11.673
			c1.481,0.472,3.096,0.864,4.753,1.183C816.321,709.104,815.858,704.734,817.656,697.225z"/>
		<path fill="#E9DDF2" d="M867.007,514.434c-0.334-0.082-0.667-0.15-1-0.221c-26.536,5.652-47.094,43.99-46.369,76.098
			c0.813,36.042,16.672,55.542,37.758,68.11l-1.084,5.058c-30.893,5.599-50.767,16.95-50.767,42.094
			c0,2.634,3.046,4.537,7.121,5.837c-0.782-5.152-0.282-9.105,0.764-11.673c3.302-8.107,5.577-8.16,4.224-2.513
			c-1.798,7.509-1.335,11.879-0.235,15.368c0.112,0.358,0.229,0.709,0.354,1.051c6.247,2.647,15.147,3.076,22.82,2.293
			c1.563-0.16,3.077-0.365,4.505-0.617c-1.083-3.368-1.01-6.799-0.43-10.206c0.999-5.887,7.666-13.275,6.812-9.722
			c-1.961,8.149-3.034,12.902-0.545,18.515c0.026-0.008,0.057-0.016,0.083-0.025c2.635,0.147,4.977,0.235,7.087,0.27
			c3.08,0.051,5.647-0.015,7.858-0.188c4.05-0.316,6.903-0.991,9.444-1.979c1.751-0.681,12.917-7.316,14.423-16.623
			c0.663-4.783-2.771-9.662-0.874-14.81c1.897-5.15,2.729-19.111,2.729-19.111c21.086-12.566,36.022-43.413,36.022-71.13
			C927.709,552.597,899.563,522.438,867.007,514.434z"/>
	</g>
	<path fill="#E29479" d="M817.656,697.225c1.353-5.647-0.922-5.595-4.224,2.513c-1.192,2.927-1.677,7.651-0.36,13.903
		c1.803,0.08,3.402,0.068,4.616-0.029c0.027,0.012,0.059,0.021,0.086,0.033C816.437,709.971,815.673,705.504,817.656,697.225z"/>
	<path fill="#E29479" d="M683.73,699.315c2.5-2.486,1.75-3.333-2.208,0.042c-2.405,2.05-4.768,7.074-3.45,13.326
		c1.802,0.08,3.402,0.068,4.616-0.029c0.027,0.012,0.059,0.021,0.086,0.033C681.437,709.013,679.646,703.376,683.73,699.315z"/>
	<path fill="#E29479" d="M851.481,695.393c0.854-3.553-5.813,3.835-6.812,9.722c-0.58,3.407-0.653,6.837,0.43,10.206
		c2.178-0.385,4.168-0.862,5.836-1.413C848.447,708.295,849.52,703.542,851.481,695.393z"/>
</g>
<g id="달토끼_오른팔">
	<g display="none">
		<g display="inline">
			<path fill="none" d="M615.341,345.116c-0.004-0.005-0.006-0.009-0.01-0.013c-0.059,0.053-0.12,0.105-0.179,0.159
				C615.216,345.208,615.28,345.155,615.341,345.116z"/>
			<path fill="#EAAD94" d="M648.765,324.775c-0.026,0.015-0.051,0.032-0.077,0.047c6.359,3.059,6.398,5.728,5.15,4.628
				c-2.075-1.829-4.153-3.044-6.188-3.897c-0.006,0.005-0.012,0.009-0.018,0.014c-0.004,0.004-0.009,0.006-0.014,0.011
				c-6.775-2.814-17.212-1.878-20.734,2.15c-0.22,0.251-0.405,0.518-0.572,0.792c12.047-1.462,14.476,2.339,11.951,1.839
				c-4.773-0.947-8.891-0.757-12.585-0.055c0,0.005-0.002,0.01-0.003,0.015c-0.066,0.027-0.133,0.081-0.205,0.091
				c-6.675,1.026-12.248,7.274-11.274,12.299c0.005,0.026,0.015,0.051,0.02,0.077c1.778-1.198,3.77-1.97,5.852-2.511
				c4.643-1.203,10.692-0.209,7.807,0.334c-5.827,1.095-9.498,1.826-12.543,4.492c0.004,0.004,0.006,0.008,0.01,0.013
				c-0.061,0.039-0.125,0.092-0.189,0.146c-0.096,0.087-0.19,0.183-0.284,0.274c-1.241,1.34-2.768,4.898-2.507,8.891
				c0.032,0.281,0.071,0.562,0.115,0.841c0.734,4.65,3.126,8.931,12.287,12.295c17.802,5.617,22.368,6.002,36.874,5.896l0.683-1.037
				c0.045,0.003,0.104,0.006,0.148,0.009l18.339-22.74C676.063,335.126,656.997,320.223,648.765,324.775z"/>
			<path fill="#E29479" d="M626.313,328.521c-0.335,0.548-0.565,1.138-0.634,1.784c3.694-0.702,7.812-0.892,12.585,0.055
				C640.789,330.859,638.36,327.059,626.313,328.521z"/>
			<path fill="#E29479" d="M648.688,324.823c-0.366,0.208-0.717,0.441-1.038,0.731c2.035,0.853,4.112,2.068,6.188,3.897
				C655.086,330.55,655.047,327.882,648.688,324.823z"/>
			<path fill="#E29479" d="M615.145,345.268c-0.09,0.075-0.182,0.167-0.276,0.269c0.094-0.091,0.188-0.188,0.284-0.274
				C615.149,345.264,615.147,345.266,615.145,345.268z"/>
			<path fill="#E29479" d="M615.332,345.103c3.045-2.666,6.716-3.396,12.543-4.492c2.886-0.543-3.164-1.538-7.807-0.334
				c-2.082,0.541-4.073,1.313-5.852,2.511C614.38,343.567,614.724,344.344,615.332,345.103z"/>
		</g>
		<path display="inline" fill="#E29479" d="M634.553,366.998c-4.924-1.023-20.652-4.489-22.076-11.729
			c0.734,4.65,3.126,8.931,12.287,12.295c17.802,5.617,22.368,6.002,36.874,5.896l3.342-5.08
			C661.098,368.078,638.916,367.905,634.553,366.998z"/>
	</g>
	<g>
		<path fill="#E9DDF2" d="M645.01,307.233c6.341,6.329,5.206,9.43,4.41,7.795c-1.6-3.293-3.617-5.6-5.737-7.409
			c-0.005,0.003-0.01,0.003-0.016,0.006c-5.511-4.842-15.694-7.313-20.325-4.629c5.871,0.951,9.502,3.065,11.616,5.016
			c3.491,3.222,2.813,3.487,1.12,2.331c-7.342-5.017-11-5.255-14.938-5.262c-5.352,0.403-13.936,2.951-14.629,8.021
			c4.503-0.854,8.192,0.605,11.526,2.772c4.021,2.615,7.368,7.75,5.021,5.987c-6.396-4.805-9.648-7.169-16.473-6.033
			c-1.551,0.603-4.465,3.622-5.581,7.778c-0.06,0.276-0.113,0.554-0.161,0.834c-0.979,7.313,10.046,14.489,16.059,19.057
			c10.206,7.752,22.183,11.735,25.76,13.268l24.677-15.636C667.53,325.81,654.269,305.569,645.01,307.233z"/>
		<path fill="#D4BBEA" d="M617.978,342.645c-4.334-2.552-18.113-10.891-17.133-18.205c-0.799,4.638,0.089,9.461,7.681,15.592
			c15.052,11.041,19.25,12.875,33.021,17.438l4.798-3.735C642.766,352.201,621.817,344.906,617.978,342.645z"/>
		<path fill="#E29479" d="M645.01,307.233c-0.451,0.082-0.895,0.199-1.327,0.386c2.12,1.809,4.137,4.115,5.737,7.409
			C650.216,316.663,651.351,313.562,645.01,307.233z"/>
		<path fill="#D4BBEA" d="M636.079,310.342c1.692,1.156,2.371,0.891-1.12-2.331c-2.114-1.951-5.746-4.064-11.616-5.016
			c-0.872,0.505-1.57,1.173-1.979,2.064c-0.071,0.004-0.151,0.016-0.224,0.021C625.08,305.087,628.737,305.326,636.079,310.342z"/>
		<path fill="#D4BBEA" d="M623.059,321.861c2.347,1.763-1-3.373-5.021-5.987c-3.334-2.167-7.022-3.626-11.526-2.772
			c-0.112,0.817-0.038,1.696,0.31,2.646c-0.072,0.018-0.154,0.05-0.235,0.081C613.411,314.692,616.663,317.056,623.059,321.861z"/>
	</g>
	<path fill="#F9F9F4" stroke="#EFE8D5" stroke-width="3" stroke-miterlimit="10" d="M782.887,326.103
		c-16.468,5.663-44.809,37.379-63.964,41.691c-13.545,3.049-21.665-14.853-44.14-32.536c-6.528-5.135-27.984,9.408-36.404,17.906
		c-2.226,2.247-3.553,4.078-3.437,5.003c0.555,4.423,4.386,103.004,58.245,114.626c63.333,13.667,106.333-60,122.496-95.203
		C817.64,373.326,782.887,326.103,782.887,326.103z"/>
	<g>
		<path fill="#EFE8D5" d="M695.584,454.586c-42.794-9.234-54.003-73.364-57.082-101.544c-0.04,0.041-0.084,0.083-0.124,0.123
			c-2.226,2.247-3.553,4.078-3.437,5.003c0.555,4.423,4.386,103.004,58.245,114.626c63.333,13.667,106.333-60,122.496-95.203
			c0.405-0.882-0.763-3.604-2.866-7.363C793.653,407.666,752.964,466.968,695.584,454.586z"/>
	</g>
</g>
<g id="절구공이">
	<path fill="#EAC7A4" d="M781.002,32.775c-12.664-6.573-25.68-6.603-29.073-0.066l-68.335,131.666c0,0-15.728,61.06-48.851,124.878
		c-33.121,63.817-74,111.826-74,111.826l-68.335,131.667c-3.393,6.536,4.124,17.164,16.788,23.736
		c12.665,6.572,25.68,6.603,29.073,0.065l68.335-131.666c0,0,18.488-66.379,48.85-124.879c30.361-58.499,74-111.825,74-111.825
		l68.336-131.666C801.184,49.975,793.667,39.348,781.002,32.775z"/>
	
		<ellipse transform="matrix(0.8876 0.4607 -0.4607 0.8876 107.663 -351.9327)" fill="#EAC7A4" cx="774.861" cy="44.61" rx="25.835" ry="13.334"/>
	
		<rect x="524.672" y="404.642" transform="matrix(-0.8876 -0.4607 0.4607 -0.8876 818.5515 1157.3954)" fill="#EAC7A4" width="51.67" height="148.343"/>
	<path fill="#EAC7A4" d="M683.595,164.375l45.861,23.803c0,0-43.639,53.326-74,111.825c-30.362,58.5-48.85,124.879-48.85,124.879
		l-45.861-23.803c0,0,40.878-48.009,74-111.826C667.867,225.435,683.595,164.375,683.595,164.375z"/>
	
		<rect x="714.857" y="36.272" transform="matrix(-0.8876 -0.4607 0.4607 -0.8876 1347.2368 549.6783)" fill="#EAC7A4" width="51.671" height="148.343"/>
	<path fill="#E2B083" d="M790.073,38.875c-0.132,0.667-0.351,1.306-0.664,1.909L721.074,172.45c0,0-43.639,53.327-74,111.826
		c-30.361,58.499-48.85,124.878-48.85,124.878L529.889,540.82c-3.393,6.537-16.409,6.506-29.073-0.065
		c-3.444-1.788-6.503-3.876-9.07-6.1c-1.296,6.556,5.957,15.861,17.452,21.827c12.665,6.572,25.68,6.603,29.073,0.065
		l68.335-131.666c0,0,18.488-66.379,48.85-124.879c30.361-58.499,74-111.825,74-111.825l68.336-131.666
		C800.261,51.752,796.945,44.826,790.073,38.875z"/>
	
		<ellipse transform="matrix(0.8876 0.4606 -0.4606 0.8876 308.9374 -176.6237)" fill="#C9996D" cx="516.34" cy="544.647" rx="25.835" ry="13.334"/>
</g>
<g id="달토끼수염_오">
	<g>
		
			<linearGradient id="SVGID_2_" gradientUnits="userSpaceOnUse" x1="1295.0078" y1="233.0508" x2="1357.8237" y2="233.0508" gradientTransform="matrix(-1 0 0 1 1936.8828 0)">
			<stop  offset="0" style="stop-color:#666666"/>
			<stop  offset="0.1916" style="stop-color:#6A6867;stop-opacity:0.8084"/>
			<stop  offset="0.3642" style="stop-color:#756E6B;stop-opacity:0.6358"/>
			<stop  offset="0.5294" style="stop-color:#877871;stop-opacity:0.4706"/>
			<stop  offset="0.6902" style="stop-color:#A1867A;stop-opacity:0.3098"/>
			<stop  offset="0.8461" style="stop-color:#C29786;stop-opacity:0.1539"/>
			<stop  offset="1" style="stop-color:#EAAD94;stop-opacity:0"/>
		</linearGradient>
		<path fill="none" stroke="url(#SVGID_2_)" stroke-width="0.25" stroke-miterlimit="10" d="M641.841,236.066
			c-19.093-5.35-47.931-7.102-62.768-5.397"/>
		
			<linearGradient id="SVGID_3_" gradientUnits="userSpaceOnUse" x1="1294.9004" y1="235.1045" x2="1351.9917" y2="235.1045" gradientTransform="matrix(-1 0 0 1 1936.8828 0)">
			<stop  offset="0" style="stop-color:#666666"/>
			<stop  offset="0.1916" style="stop-color:#6A6867;stop-opacity:0.8084"/>
			<stop  offset="0.3642" style="stop-color:#756E6B;stop-opacity:0.6358"/>
			<stop  offset="0.5294" style="stop-color:#877871;stop-opacity:0.4706"/>
			<stop  offset="0.6902" style="stop-color:#A1867A;stop-opacity:0.3098"/>
			<stop  offset="0.8461" style="stop-color:#C29786;stop-opacity:0.1539"/>
			<stop  offset="1" style="stop-color:#EAAD94;stop-opacity:0"/>
		</linearGradient>
		<path fill="none" stroke="url(#SVGID_3_)" stroke-width="0.25" stroke-miterlimit="10" d="M641.944,238.983
			c-18.871-6.084-42.151-8.617-57.043-7.489"/>
		
			<linearGradient id="SVGID_4_" gradientUnits="userSpaceOnUse" x1="1292.5972" y1="237.9873" x2="1354.04" y2="237.9873" gradientTransform="matrix(-1 0 0 1 1936.8828 0)">
			<stop  offset="0" style="stop-color:#666666"/>
			<stop  offset="0.1916" style="stop-color:#6A6867;stop-opacity:0.8084"/>
			<stop  offset="0.3642" style="stop-color:#756E6B;stop-opacity:0.6358"/>
			<stop  offset="0.5294" style="stop-color:#877871;stop-opacity:0.4706"/>
			<stop  offset="0.6902" style="stop-color:#A1867A;stop-opacity:0.3098"/>
			<stop  offset="0.8461" style="stop-color:#C29786;stop-opacity:0.1539"/>
			<stop  offset="1" style="stop-color:#EAAD94;stop-opacity:0"/>
		</linearGradient>
		<path fill="none" stroke="url(#SVGID_4_)" stroke-width="0.25" stroke-miterlimit="10" d="M644.267,239.891
			c-19.598-3.009-46.871-5.628-61.395-2.147"/>
		
			<linearGradient id="SVGID_5_" gradientUnits="userSpaceOnUse" x1="1293.5156" y1="246.3257" x2="1356.0107" y2="246.3257" gradientTransform="matrix(-1 0 0 1 1936.8828 0)">
			<stop  offset="0" style="stop-color:#666666"/>
			<stop  offset="0.1916" style="stop-color:#6A6867;stop-opacity:0.8084"/>
			<stop  offset="0.3642" style="stop-color:#756E6B;stop-opacity:0.6358"/>
			<stop  offset="0.5294" style="stop-color:#877871;stop-opacity:0.4706"/>
			<stop  offset="0.6902" style="stop-color:#A1867A;stop-opacity:0.3098"/>
			<stop  offset="0.8461" style="stop-color:#C29786;stop-opacity:0.1539"/>
			<stop  offset="1" style="stop-color:#EAAD94;stop-opacity:0"/>
		</linearGradient>
		<path fill="none" stroke="url(#SVGID_5_)" stroke-width="0.25" stroke-miterlimit="10" d="M643.355,242.653
			c-19.73-1.962-48.129,3.515-62.447,7.762"/>
		
			<linearGradient id="SVGID_6_" gradientUnits="userSpaceOnUse" x1="1294.7285" y1="241.248" x2="1361.6426" y2="241.248" gradientTransform="matrix(-1 0 0 1 1936.8828 0)">
			<stop  offset="0" style="stop-color:#666666"/>
			<stop  offset="0.1916" style="stop-color:#6A6867;stop-opacity:0.8084"/>
			<stop  offset="0.3642" style="stop-color:#756E6B;stop-opacity:0.6358"/>
			<stop  offset="0.5294" style="stop-color:#877871;stop-opacity:0.4706"/>
			<stop  offset="0.6902" style="stop-color:#A1867A;stop-opacity:0.3098"/>
			<stop  offset="0.8461" style="stop-color:#C29786;stop-opacity:0.1539"/>
			<stop  offset="1" style="stop-color:#EAAD94;stop-opacity:0"/>
		</linearGradient>
		<path fill="none" stroke="url(#SVGID_6_)" stroke-width="0.25" stroke-miterlimit="10" d="M642.142,237.221
			c-19.723-2.029-52.534,4.253-66.866,8.451"/>
	</g>
</g>
<g id="달토끼_머리">
	<path fill="#F3EDF9" d="M844.271,17.315c30.833-20-3.167,106.333-32.833,122.333c-12.571,6.78-1.405,19.858-12.529,29.788
		c-11.124,9.93-9.49,13.535-18.758,17.356c-9.269,3.821-39.943-53.319-15.241-71.807c12.968-9.706,24.706-38.655,41.059-61.005
		C820.764,33.762,840.679,19.645,844.271,17.315z"/>
	<path fill="#F3EDF9" d="M676.688,8.482c-4.25-12.5,1.5,45.25,13.939,66.944c7.105,12.39,1.255,24.007,9.311,36.556
		c8.055,12.548-0.154,24.142,7.75,30.309c7.905,6.166,56.093,14.874,37.25-9.559c-9.893-12.827-18.236-38.084-28-64
		C708.105,45.287,678.066,12.535,676.688,8.482z"/>
	<path fill="#E9DDF2" d="M701.938,135.482c-16.738,15.036-43,32.5-50.5,54s-6,21.167-11,28s-8.833,28.333-3.167,33.833
		s5.167,7.167,9,7.5c-0.333,1.333-0.167,0.5,0.667,2.833s9.491,6.338,19.833,7.25c6.837,0.603,10.091,0.54,13.413-0.047
		c-0.421,4.483,20.976,11.435,27.09,12.417c6.837,1.097,31.997,4.714,41.33-3.12s25.167-25.334,31.333-30.5s33-25.667,24.667-43.167
		s-12.333-22.666-9.833-25.833s-12.083-20.042-6.833-30.542s0.625-25.375,5.5-32s0.875-15,6.875-21.875s3.875-23.25,9.125-29.375
		s-4.692-5.403,18.058-25.903s9.933-18.222,23.558-22.847c3.577-1.214-7.365-3.875-13.99,3.375c-2.877,3.148-35.125,31.75-45.125,42
		s-16,15.75-19.75,21.5s-24.75,40.25-27.25,44.25c1-5.75,3-21.75-2.5-31.75s-18-35.25-25.25-43.25s-27.75-29.625-32.5-37.938
		s-9.5-18.063-12.75-12.813s2,20.75,5.75,28.25s12.5,25.5,16,35s13,32.75,18,40S716.688,122.232,701.938,135.482z"/>
	
		<linearGradient id="SVGID_7_" gradientUnits="userSpaceOnUse" x1="1243.8379" y1="235.2666" x2="1271.6573" y2="272.2589" gradientTransform="matrix(-1 0 0 1 1937.0498 0)">
		<stop  offset="0" style="stop-color:#E9DDF2"/>
		<stop  offset="0.5482" style="stop-color:#EFE6F5"/>
		<stop  offset="1" style="stop-color:#F6F2F9"/>
	</linearGradient>
	<path fill="url(#SVGID_7_)" d="M700.313,238.857c5.591,2.334,7.5,16.813,4.5,19.375c-2.872,2.453-11.25,14-44.292,9.65
		c-8.799-1.158-12.299-6.91-13.012-8.983c-1.375-3.995,16.748-13.167,29.188-26.917
		C685.538,231.221,694.722,236.523,700.313,238.857z"/>
	<linearGradient id="SVGID_8_" gradientUnits="userSpaceOnUse" x1="645.8716" y1="254.5713" x2="666.861" y2="206.6256">
		<stop  offset="0" style="stop-color:#918899"/>
		<stop  offset="0.0525" style="stop-color:#9F95A7"/>
		<stop  offset="0.1942" style="stop-color:#BFB4C8"/>
		<stop  offset="0.3304" style="stop-color:#D6CBDF"/>
		<stop  offset="0.4576" style="stop-color:#E4D8ED"/>
		<stop  offset="0.5665" style="stop-color:#E9DDF2"/>
	</linearGradient>
	<path fill="url(#SVGID_8_)" d="M675.003,210.099c-1.078-5.962-28.304-6.328-29.517-2.574
		c-3.298,10.208-11.031,13.208-11.009,34.548c0.01,9.75,7.339,14.768,9.211,15.91c3.606,2.201,22.375-12.5,32.959-23.342
		C679.289,226.169,676.083,216.061,675.003,210.099z"/>
	<path fill="#070301" d="M714.478,192.312c-6.588,5.76-4.14,13.8-4.74,17.22c2.7-0.54,8.099-0.262,12.42-0.419
		c3.3-0.121,5.58-3.9,7.2-6.601c1.62-2.7,1.26-8.28,0.9-12.064C727.917,190.623,721.066,186.551,714.478,192.312z"/>
	<circle fill="#7EC152" cx="718.747" cy="197.949" r="9.914"/>
	<circle fill="#165916" cx="718.748" cy="197.949" r="7.931"/>
	<path fill="#4F3527" d="M734.188,186.976c-3.25,0.244-12.766-5.411-21.917,2.589s-5.75,19.167-6.583,23.917
		c3.75-0.75,11.249-0.364,17.25-0.583c4.583-0.167,7.75-5.417,10-9.167S734.688,192.232,734.188,186.976z M729.357,202.511
		c-1.62,2.7-3.9,6.48-7.2,6.601c-4.321,0.157-9.72-0.121-12.42,0.419c0.6-3.42-1.849-11.46,4.74-17.22
		c6.589-5.76,13.44-1.688,15.78-1.864C730.618,194.231,730.978,199.812,729.357,202.511z"/>
	<circle fill="#E6F4FC" cx="722.522" cy="191.648" r="1.521"/>
	<path fill="#ED94B4" d="M646.146,258.899c-2.25-0.125-5.125-0.75-2.25-2.625s4.5-2.75,6.375-2c-0.375,2.75-2.375,2.625-1.5,5.25
		s5.417,6.714,12.5,7.708c12.128,1.703,22.42,0.453,30.583-2.5c10.489-3.794,13.703-8.734,15.022-10.689
		c1.728-2.561,2.74-3.982-0.476,1.922c-3.522,6.464-12.389,11.018-18.757,12.891c-11.586,3.408-17.941,2.954-27.997,1.043
		C654.843,268.986,644.191,263.694,646.146,258.899z"/>
	<path fill="#EF6579" d="M647.147,258.899c-2.25-0.125-5.125-0.75-2.25-2.625s4.5-2.75,6.375-2
		C650.897,257.024,648.458,258.836,647.147,258.899z"/>
	<path display="none" fill="#F281A4" d="M736.933,255.482c-0.307,0.467-1.322,5.157-1.75,7.694s-2.716,11.938-5.925,15.29
		c-4.792,5.004-0.936,4.753,1.421,2.599c4.42-4.04,6.087-11.938,6.254-15.51S738.683,252.815,736.933,255.482z"/>
	<path fill="#EF6579" d="M704.493,257.091c0.927-1.032,3.575-3.942,2.816-6.374c0.758-0.193,3.318-0.299,3.507,0.182
		C710.752,251.46,705.774,257.311,704.493,257.091z"/>
</g>
<g id="달토끼수염_왼">
	<linearGradient id="SVGID_9_" gradientUnits="userSpaceOnUse" x1="659.7393" y1="234.2959" x2="722.5547" y2="234.2959">
		<stop  offset="0" style="stop-color:#666666"/>
		<stop  offset="0.1916" style="stop-color:#6A6867;stop-opacity:0.8084"/>
		<stop  offset="0.3642" style="stop-color:#756E6B;stop-opacity:0.6358"/>
		<stop  offset="0.5294" style="stop-color:#877871;stop-opacity:0.4706"/>
		<stop  offset="0.6902" style="stop-color:#A1867A;stop-opacity:0.3098"/>
		<stop  offset="0.8461" style="stop-color:#C29786;stop-opacity:0.1539"/>
		<stop  offset="1" style="stop-color:#EAAD94;stop-opacity:0"/>
	</linearGradient>
	<path fill="none" stroke="url(#SVGID_9_)" stroke-width="0.25" stroke-miterlimit="10" d="M659.773,237.311
		c19.093-5.35,47.931-7.102,62.768-5.397"/>
	<linearGradient id="SVGID_10_" gradientUnits="userSpaceOnUse" x1="659.6318" y1="236.3496" x2="716.7227" y2="236.3496">
		<stop  offset="0" style="stop-color:#666666"/>
		<stop  offset="0.1916" style="stop-color:#6A6867;stop-opacity:0.8084"/>
		<stop  offset="0.3642" style="stop-color:#756E6B;stop-opacity:0.6358"/>
		<stop  offset="0.5294" style="stop-color:#877871;stop-opacity:0.4706"/>
		<stop  offset="0.6902" style="stop-color:#A1867A;stop-opacity:0.3098"/>
		<stop  offset="0.8461" style="stop-color:#C29786;stop-opacity:0.1539"/>
		<stop  offset="1" style="stop-color:#EAAD94;stop-opacity:0"/>
	</linearGradient>
	<path fill="none" stroke="url(#SVGID_10_)" stroke-width="0.25" stroke-miterlimit="10" d="M659.67,240.228
		c18.871-6.084,42.151-8.617,57.043-7.489"/>
	<linearGradient id="SVGID_11_" gradientUnits="userSpaceOnUse" x1="657.3286" y1="239.2314" x2="718.7715" y2="239.2314">
		<stop  offset="0" style="stop-color:#666666"/>
		<stop  offset="0.1916" style="stop-color:#6A6867;stop-opacity:0.8084"/>
		<stop  offset="0.3642" style="stop-color:#756E6B;stop-opacity:0.6358"/>
		<stop  offset="0.5294" style="stop-color:#877871;stop-opacity:0.4706"/>
		<stop  offset="0.6902" style="stop-color:#A1867A;stop-opacity:0.3098"/>
		<stop  offset="0.8461" style="stop-color:#C29786;stop-opacity:0.1539"/>
		<stop  offset="1" style="stop-color:#EAAD94;stop-opacity:0"/>
	</linearGradient>
	<path fill="none" stroke="url(#SVGID_11_)" stroke-width="0.25" stroke-miterlimit="10" d="M657.348,241.136
		c19.598-3.009,46.871-5.628,61.395-2.147"/>
	<linearGradient id="SVGID_12_" gradientUnits="userSpaceOnUse" x1="658.2471" y1="247.5703" x2="720.7422" y2="247.5703">
		<stop  offset="0" style="stop-color:#666666"/>
		<stop  offset="0.1916" style="stop-color:#6A6867;stop-opacity:0.8084"/>
		<stop  offset="0.3642" style="stop-color:#756E6B;stop-opacity:0.6358"/>
		<stop  offset="0.5294" style="stop-color:#877871;stop-opacity:0.4706"/>
		<stop  offset="0.6902" style="stop-color:#A1867A;stop-opacity:0.3098"/>
		<stop  offset="0.8461" style="stop-color:#C29786;stop-opacity:0.1539"/>
		<stop  offset="1" style="stop-color:#EAAD94;stop-opacity:0"/>
	</linearGradient>
	<path fill="none" stroke="url(#SVGID_12_)" stroke-width="0.25" stroke-miterlimit="10" d="M658.259,243.897
		c19.73-1.962,48.129,3.515,62.447,7.762"/>
	<linearGradient id="SVGID_13_" gradientUnits="userSpaceOnUse" x1="659.46" y1="242.4922" x2="726.3735" y2="242.4922">
		<stop  offset="0" style="stop-color:#666666"/>
		<stop  offset="0.1916" style="stop-color:#6A6867;stop-opacity:0.8084"/>
		<stop  offset="0.3642" style="stop-color:#756E6B;stop-opacity:0.6358"/>
		<stop  offset="0.5294" style="stop-color:#877871;stop-opacity:0.4706"/>
		<stop  offset="0.6902" style="stop-color:#A1867A;stop-opacity:0.3098"/>
		<stop  offset="0.8461" style="stop-color:#C29786;stop-opacity:0.1539"/>
		<stop  offset="1" style="stop-color:#EAAD94;stop-opacity:0"/>
	</linearGradient>
	<path fill="none" stroke="url(#SVGID_13_)" stroke-width="0.25" stroke-miterlimit="10" d="M659.473,238.466
		c19.723-2.029,52.534,4.253,66.866,8.451"/>
</g>
<g id="달토끼_몸통">
	<path fill="#F9F9F4" stroke="#EFE8D5" stroke-width="3" stroke-miterlimit="10" d="M813.938,211.481
		c-2.163,11.953-22.306,39.616-28.244,46.722c-10.558,12.633-7.885,35.653-34.585,51.398c-1.229,44.061-8.003,82.353-8.003,131.714
		c0,32.236,0.054,76.049,5.463,97.75c18.813,9.597,47.874,13.25,91.87,13.25c38.698,0,91.318-2.75,109.59-12.881
		c0.88-2.097,9.509-95.854,2.592-138.881C938.248,311.161,874.94,232.773,813.938,211.481z"/>
	<path fill="#EFE8D5" d="M857.695,541.263c-43.997,0-73.058-3.654-91.87-13.25c-5.409-21.701-5.463-65.513-5.463-97.75
		c0-49.362,6.774-87.653,8.003-131.714c26.7-15.745,24.028-38.765,34.585-51.398c4.02-4.81,14.542-19.035,21.596-31.434
		c-3.567-1.594-7.11-3.014-10.608-4.235c-2.163,11.953-22.306,39.616-28.244,46.722c-10.558,12.633-7.885,35.653-34.585,51.398
		c-1.229,44.061-8.003,82.353-8.003,131.714c0,32.236,0.054,76.049,5.463,97.75c18.813,9.597,47.874,13.25,91.87,13.25
		c38.698,0,91.318-2.75,109.59-12.881c0.31-1.563,0.665-3.188,0.665-4.969C932.583,539.269,887.072,541.263,857.695,541.263z"/>
	<path fill="#F9F9F4" stroke="#EFE8D5" stroke-width="3" stroke-miterlimit="10" d="M806.938,205.149
		c-0.913,9.036-32.538,68.161-57.292,92.167c-0.403,11.942-0.561,15.439-0.571,15.673c32.224-7.333,68.513-85.738,73.239-98.507
		C821.791,214.144,807.705,205.092,806.938,205.149z"/>
	<path fill="#EFE8D5" d="M819.317,212.402c-0.653,0.568-39.185,87.076-70.214,99.937c-0.009,0.202-0.018,0.417-0.028,0.65
		c32.224-7.333,68.513-85.738,73.239-98.507C821.791,214.144,820.266,213.045,819.317,212.402z"/>
</g>
<g id="달토끼_왼팔">
	<path fill="#EFE8D5" d="M774.565,307.653c-7.895,6.547-16.449,23-25.496,37.628c-2.426,30.467-8.161,55.729-8.161,91.404
		c0,10.826-0.269,6.339-0.056,18.5c63.353-10.207,79.916-72.481,82.585-110.953C823.762,339.549,774.565,307.653,774.565,307.653z"
		/>
	<path fill="#F9F9F4" d="M752.461,375.334c-1.357-3.366,9.766-4.96,12.298-4.367c2.531,0.593,3.616,11.443,3.616,15.06
		c0,3.617-7.957,4.747-10.127,5.267C756.079,391.815,753.546,378.023,752.461,375.334z"/>
	<path fill="#F9F9F4" d="M761.887,375.727c4.341-4.346,17.724-17.005,24.596-16.282c6.871,0.723,0.452,17.854,5.651,21.586
		c5.199,3.732-16.556,6.883-25.571,6.212C757.546,386.572,761.887,375.727,761.887,375.727z"/>
	<path fill="#F9F9F4" stroke="#EFE8D5" stroke-width="3" stroke-miterlimit="10" d="M755.717,375.334
		c-6.148,4.183-18.083,56.989-12.297,91.711c5.426,2.17,9.404,1.808,12.297,6.148s-7.233-77.763,2.894-85.358
		C768.738,380.241,755.717,375.334,755.717,375.334z"/>
	<path fill="#F9F9F4" stroke="#EFE8D5" stroke-width="3" stroke-miterlimit="10" d="M754.093,374.826
		c-16.641,10.155-24.149,96.682-18.362,131.404c5.425,2.17,9.404,1.808,12.297,6.148s-1.168-117.455,8.959-125.051
		C767.114,379.733,754.093,374.826,754.093,374.826z"/>
	<path fill="#D3E5E4" d="M817.276,352.604c3.674-3.06,2.842-6.887-0.307-10.835c-8.411-10.547-33.38-21.963-33.38-21.963
		c-10.8,10.015-28.11,32.204-42.736,45.885c0.822,19.741,1.716,39.852,2.042,59.429
		C778.466,410.378,805.165,362.689,817.276,352.604z"/>
	<g>
		<path fill="#E9DDF2" d="M666.298,277.752c4.927,7.482,3.187,10.29,2.74,8.527c-0.9-3.55-2.409-6.217-4.118-8.417
			c-0.005,0.002-0.01,0.001-0.017,0.002c-4.416-5.859-13.887-10.341-18.965-8.652c5.557,2.121,8.685,4.927,10.359,7.265
			c2.766,3.863,2.048,3.985,0.625,2.51c-6.173-6.4-9.707-7.375-13.563-8.18c-5.322-0.69-14.244,0.066-15.951,4.89
			c4.583,0.077,7.899,2.252,10.725,5.05c3.408,3.375,5.645,9.082,3.704,6.88c-5.29-6.001-7.995-8.975-14.909-9.246
			c-1.641,0.275-5.106,2.642-7.041,6.486c-0.115,0.258-0.223,0.52-0.327,0.784c-2.441,6.963,6.902,16.225,11.864,21.916
			c8.423,9.659,19.345,15.986,22.538,18.212l27.333-10.312C684.586,300.507,675.702,277.999,666.298,277.752z"/>
		<path fill="#D4BBEA" d="M632.651,306.951c-3.727-3.377-15.53-14.335-13.089-21.298c-1.723,4.38-1.83,9.283,4.362,16.826
			c12.502,13.862,16.242,16.508,28.802,23.768l5.456-2.686C654.989,321.333,635.953,309.944,632.651,306.951z"/>
		<path fill="#D4BBEA" d="M666.298,277.752c-0.458-0.012-0.917,0.013-1.378,0.109c1.709,2.2,3.217,4.868,4.118,8.417
			C669.485,288.042,671.226,285.234,666.298,277.752z"/>
		<path fill="#D4BBEA" d="M656.922,278.987c1.423,1.475,2.141,1.353-0.625-2.51c-1.675-2.338-4.803-5.144-10.359-7.265
			c-0.956,0.318-1.775,0.831-2.355,1.621c-0.07-0.01-0.15-0.015-0.223-0.025C647.216,271.612,650.749,272.587,656.922,278.987z"/>
		<path fill="#D4BBEA" d="M641.838,287.628c1.941,2.202-0.296-3.505-3.704-6.88c-2.826-2.798-6.142-4.974-10.725-5.05
			c-0.275,0.778-0.38,1.653-0.233,2.653c-0.074,0.003-0.161,0.017-0.247,0.032C633.843,278.653,636.549,281.627,641.838,287.628z"/>
	</g>
	<path fill="#F9F9F4" stroke="#EFE8D5" stroke-width="3" stroke-miterlimit="10" d="M790.642,292.744
		c-16.468,5.663-44.809,37.379-63.964,41.691c-13.545,3.049-21.665-14.853-44.14-32.536c-6.528-5.135-27.984,9.408-36.404,17.906
		c-2.227,2.247-3.554,4.078-3.438,5.003c0.555,4.423,4.386,103.004,58.245,114.626c63.333,13.667,106.333-60,122.496-95.203
		C825.395,339.966,790.642,292.744,790.642,292.744z"/>
	<g>
		<path fill="#EFE8D5" d="M703.34,421.227c-42.794-9.234-54.003-73.364-57.082-101.544c-0.04,0.041-0.084,0.083-0.124,0.123
			c-2.227,2.247-3.554,4.078-3.438,5.003c0.555,4.423,4.386,103.004,58.245,114.626c63.333,13.667,106.333-60,122.496-95.203
			c0.405-0.882-0.763-3.604-2.866-7.363C801.409,374.307,760.719,433.609,703.34,421.227z"/>
	</g>
</g>
<g id="달토끼_꼬리_copy">
	<g>
		<path fill="#ACE2DF" d="M66.337,515.031c0.904,2.88,1.151,5.54,0.537,7.842c-4.481,16.789-9.32,17.33-9.32,17.33
			c-10.315,6.191-30.842,11.546-46.94,4.235c0.108,0.441,0.216,0.874,0.328,1.329c9.864,40.215,49.436,28.538,67.442,22.822
			c0,0,4.839-0.541,9.32-17.33C90.173,542.01,78.793,526.997,66.337,515.031z"/>
		
			<linearGradient id="SVGID_14_" gradientUnits="userSpaceOnUse" x1="1045.8662" y1="513.1182" x2="1084.5535" y2="551.6407" gradientTransform="matrix(0.9755 -0.2201 0.2201 0.9755 -1123.9351 239.3412)">
			<stop  offset="0" style="stop-color:#FFFFFF"/>
			<stop  offset="0.2058" style="stop-color:#E3F4F4"/>
			<stop  offset="0.3469" style="stop-color:#D5EFEF"/>
			<stop  offset="1" style="stop-color:#D5EFEF"/>
		</linearGradient>
		<path fill="url(#SVGID_14_)" d="M57.554,540.203c0,0,4.839-0.541,9.32-17.33c0.614-2.302,0.367-4.962-0.537-7.842
			c-10.155-9.755-21.025-17.485-25.69-18.414c-10.389-2.067-26.568,9.301-34.082,12.65c1.984-0.001,6.481,1.846,10.354,9.241
			c-4.212-4.011-12.18-3.592-16.919-1.695c3.037,1.479,4.865,4.352,10.613,27.625C26.711,551.75,47.238,546.395,57.554,540.203z"/>
	</g>
</g>
<g id="달토끼_다리_copy">
	<g>
		<path fill="#ACE2DF" d="M245.653,360.297c1.341,1.71,2.823,3.363,4.497,4.93c0.804-19.293,0.108-34.919,3.209-52.373
			c5.881-33.104,7.576-65.851-0.685-86.221C243.175,246.198,235.938,328.613,245.653,360.297z"/>
		<path fill="#D5EFEF" d="M224.212,321.418c9.564,8.868,11.068,25.651,21.441,38.878c-9.715-31.684-2.478-114.099,7.021-133.664
			c-5.204-12.83-14.355-20.753-28.906-20.753c-63.202,0-156.249,90.99-164.908,196.722c-18.25,222.833,39,191.583,114.437,192.085
			c63.2,0.42,91.483-47.286,91.483-153.371c0-4.817,0.047-9.684,0.128-14.583c-35.573-14.742-62.271-62.43-74.382-72.516
			c-3.674-3.06-2.842-6.887,0.307-10.835C199.242,332.835,224.212,321.418,224.212,321.418z"/>
	</g>
	<g>
		<path fill="#EAAD94" d="M277.272,713.158c-3.9,0.018-8.268,0.012-12.875-0.015c5.286-0.04,9.506-0.126,11.959-0.263
			C276.645,712.977,276.965,713.066,277.272,713.158z"/>
		<path fill="#ACE2DF" d="M335.161,704.571c0-25.144-80.988-36.496-111.882-42.095l-1.084-5.058
			c21.087-12.569,36.947-32.067,37.759-68.11c0.716-31.708-19.322-69.494-45.377-75.875c0.003-0.001,0.006-0.001,0.009-0.002
			c33.061-8.129,61.553,38.175,60.701,75.878c-0.813,36.043-16.672,55.542-37.759,68.11l1.084,5.058
			c30.893,5.599,111.882,16.951,111.882,42.095c0,6.527-18.699,8.58-25.475,8.038c-6.55,2.807-16.072,3.157-24.016,2.213
			c3.162-0.418,6.148-1.126,8.683-2.213C316.462,713.151,335.161,711.098,335.161,704.571z"/>
		<path fill="#D5EFEF" d="M214.577,513.433c26.055,6.382,46.093,44.167,45.377,75.875c-0.813,36.043-16.672,55.542-37.759,68.11
			l1.084,5.058c30.894,5.599,111.882,16.951,111.882,42.095c0,6.527-18.699,8.58-25.475,8.038c-2.535,1.086-5.521,1.795-8.683,2.213
			c-8.246,1.09-17.7,0.142-23.732-1.664c-0.307-0.092-0.627-0.182-0.916-0.278c-2.453,0.137-6.673,0.223-11.959,0.263
			c-24.221-0.143-54.969-0.898-58.212-2.16c-1.752-0.682-12.917-7.317-14.423-16.624c-0.663-4.783,2.771-9.662,0.875-14.811
			c-1.897-5.149-2.729-19.109-2.729-19.109c-21.086-12.567-36.022-43.414-36.022-71.13
			C153.884,551.598,182.025,521.442,214.577,513.433z"/>
	</g>
	<g>
		<path fill="#ACE2DF" d="M202.337,705.574c0-25.144-19.874-36.496-50.766-42.094l-1.084-5.058
			c21.086-12.568,36.946-32.068,37.758-68.11c0.725-32.108-19.833-70.446-46.369-76.098c32.633-6.964,60.544,38.777,59.702,76.098
			c-0.813,36.042-16.672,55.542-37.758,68.11l1.084,5.058c30.892,5.599,50.766,16.95,50.766,42.094c0,5.358-12.597,7.7-20.858,8.067
			c0.162-0.767,0.295-1.509,0.404-2.23C199.291,710.111,202.337,708.208,202.337,705.574z"/>
		<path fill="#EAAD94" d="M190.228,697.225c-1.353-5.647,0.922-5.595,4.224,2.513c1.046,2.568,1.546,6.521,0.764,11.673
			c-1.481,0.472-3.096,0.864-4.753,1.183C191.563,709.104,192.025,704.734,190.228,697.225z"/>
		<path fill="#D5EFEF" d="M140.876,514.434c0.334-0.082,0.667-0.15,1-0.221c26.536,5.652,47.094,43.99,46.369,76.098
			c-0.813,36.042-16.672,55.542-37.758,68.11l1.084,5.058c30.892,5.599,50.766,16.95,50.766,42.094c0,2.634-3.046,4.537-7.121,5.837
			c0.782-5.152,0.282-9.105-0.764-11.673c-3.302-8.107-5.577-8.16-4.224-2.513c1.798,7.509,1.335,11.879,0.235,15.368
			c-0.112,0.358-0.229,0.709-0.354,1.051c-6.247,2.647-15.147,3.076-22.82,2.293c-1.563-0.16-3.077-0.365-4.505-0.617
			c1.083-3.368,1.01-6.799,0.429-10.206c-0.999-5.887-7.666-13.275-6.811-9.722c1.961,8.149,3.034,12.902,0.545,18.515
			c-0.026-0.008-0.057-0.016-0.083-0.025c-2.635,0.147-4.977,0.235-7.088,0.27c-3.079,0.051-5.647-0.015-7.858-0.188
			c-4.05-0.316-6.903-0.991-9.444-1.979c-1.751-0.681-12.917-7.316-14.423-16.623c-0.663-4.783,2.771-9.662,0.874-14.81
			c-1.897-5.15-2.729-19.111-2.729-19.111c-21.086-12.566-36.022-43.413-36.022-71.13
			C80.174,552.597,108.32,522.438,140.876,514.434z"/>
	</g>
	<path fill="#E29479" d="M190.228,697.225c-1.353-5.647,0.922-5.595,4.224,2.513c1.192,2.927,1.677,7.651,0.36,13.903
		c-1.803,0.08-3.402,0.068-4.616-0.029c-0.027,0.012-0.059,0.021-0.087,0.033C191.446,709.971,192.21,705.504,190.228,697.225z"/>
	<path fill="#E29479" d="M324.153,699.315c-2.5-2.486-1.75-3.333,2.208,0.042c2.405,2.05,4.768,7.074,3.45,13.326
		c-1.802,0.08-3.402,0.068-4.616-0.029c-0.027,0.012-0.059,0.021-0.086,0.033C326.447,709.013,328.237,703.376,324.153,699.315z"/>
	<path fill="#E29479" d="M156.402,695.393c-0.854-3.553,5.813,3.835,6.811,9.722c0.58,3.407,0.653,6.837-0.429,10.206
		c-2.178-0.385-4.168-0.862-5.836-1.413C159.437,708.295,158.363,703.542,156.402,695.393z"/>
</g>
<g id="달토끼_오른팔_copy">
	<g display="none">
		<g display="inline">
			<path fill="none" d="M357.771,415.041c0.005-0.003,0.008-0.007,0.013-0.01c0.041,0.068,0.084,0.136,0.125,0.205
				C357.864,415.166,357.818,415.096,357.771,415.041z"/>
			<path fill="#EAAD94" d="M331.8,385.777c0.021,0.022,0.039,0.046,0.059,0.068c-6.977,1.056-7.798,3.595-6.282,2.911
				c2.521-1.138,4.864-1.69,7.059-1.907c0.004,0.006,0.009,0.012,0.013,0.019c0.003,0.005,0.007,0.008,0.01,0.014
				c7.303-0.699,17.004,3.263,19.187,8.148c0.136,0.305,0.235,0.614,0.314,0.925c-11.085-4.938-14.524-2.019-11.963-1.754
				c4.841,0.498,8.721,1.889,12.045,3.646c-0.001,0.005-0.001,0.01-0.001,0.015c0.055,0.046,0.103,0.116,0.169,0.148
				c6.079,2.942,9.569,10.552,7.162,15.069c-0.012,0.023-0.029,0.044-0.041,0.068c-1.348-1.668-3.025-2.991-4.855-4.12
				c-4.084-2.514-10.159-3.342-7.56-1.974c5.248,2.759,8.542,4.536,10.669,7.979c-0.005,0.003-0.008,0.006-0.013,0.01
				c0.047,0.055,0.093,0.125,0.138,0.195c0.066,0.111,0.128,0.231,0.191,0.346c0.792,1.645,1.206,5.495-0.216,9.234
				c-0.113,0.26-0.233,0.516-0.357,0.771c-2.068,4.229-5.613,7.618-15.357,8.142c-18.666,0.138-23.144-0.835-36.979-5.199
				l-0.347-1.192c-0.044-0.01-0.102-0.025-0.144-0.035l-10.848-27.125C302.666,387.649,325.269,379.006,331.8,385.777z"/>
			<path fill="#E29479" d="M352.16,395.955c0.159,0.623,0.206,1.254,0.082,1.892c-3.324-1.756-7.204-3.147-12.045-3.646
				C337.636,393.936,341.074,391.017,352.16,395.955z"/>
			<path fill="#E29479" d="M331.859,385.845c0.289,0.307,0.556,0.633,0.777,1.004c-2.195,0.217-4.538,0.769-7.059,1.907
				C324.06,389.439,324.882,386.9,331.859,385.845z"/>
			<path fill="#E29479" d="M357.914,415.244c0.064,0.098,0.125,0.213,0.185,0.338c-0.063-0.115-0.125-0.235-0.191-0.346
				C357.911,415.239,357.912,415.241,357.914,415.244z"/>
			<path fill="#E29479" d="M357.784,415.031c-2.127-3.443-5.421-5.22-10.669-7.979c-2.599-1.368,3.476-0.54,7.56,1.974
				c1.831,1.128,3.508,2.452,4.855,4.12C359.144,413.843,358.587,414.484,357.784,415.031z"/>
		</g>
		<path display="inline" fill="#E29479" d="M332.978,430.312c5.008,0.469,21.06,1.778,24.548-4.725
			c-2.068,4.229-5.613,7.618-15.357,8.142c-18.666,0.138-23.144-0.835-36.979-5.199l-1.702-5.838
			C307.286,423.544,328.541,429.896,332.978,430.312z"/>
	</g>
	<g>
		<path fill="#D5EFEF" d="M365.868,361.297c-7.92,4.187-7.747,7.484-6.506,6.155c2.497-2.678,5.103-4.29,7.661-5.396
			c0.004,0.005,0.009,0.006,0.014,0.01c6.691-3.009,17.15-2.378,20.788,1.547c-5.891-0.816-9.984,0.137-12.577,1.381
			c-4.283,2.054-3.713,2.507-1.756,1.899c8.492-2.638,12.058-1.791,15.825-0.64c4.997,1.958,12.453,6.915,11.626,11.965
			c-4.054-2.139-8.008-1.829-11.832-0.737c-4.612,1.318-9.32,5.243-6.559,4.248c7.526-2.714,11.329-4.018,17.518-0.926
			c1.305,1.031,3.204,4.773,3.049,9.075c-0.024,0.281-0.055,0.563-0.091,0.844c-1.213,7.279-13.861,10.897-20.95,13.497
			c-12.033,4.411-24.652,4.698-28.522,5.112l-18.993-22.197C338.883,372.437,357.507,356.986,365.868,361.297z"/>
		<path fill="#ACE2DF" d="M381.301,403.088c4.893-1.166,20.513-5.087,21.726-12.366c-0.599,4.668-2.866,9.018-11.924,12.647
			c-17.632,6.131-22.183,6.649-36.687,6.965l-3.488-4.98C354.799,404.939,376.967,404.122,381.301,403.088z"/>
		<path fill="#E29479" d="M365.868,361.297c0.407,0.21,0.797,0.453,1.155,0.759c-2.557,1.105-5.163,2.718-7.661,5.396
			C358.121,368.781,357.947,365.483,365.868,361.297z"/>
		<path fill="#BEEAE9" d="M373.491,366.894c-1.957,0.608-2.528,0.155,1.756-1.899c2.594-1.244,6.686-2.197,12.577-1.381
			c0.685,0.739,1.156,1.583,1.285,2.554c0.066,0.025,0.14,0.059,0.208,0.086C385.549,365.103,381.983,364.256,373.491,366.894z"/>
		<path fill="#BEEAE9" d="M382.552,381.729c-2.761,0.995,1.947-2.93,6.559-4.248c3.823-1.092,7.778-1.402,11.832,0.737
			c-0.133,0.814-0.462,1.632-1.073,2.438c0.063,0.038,0.133,0.093,0.201,0.146C393.88,377.712,390.077,379.016,382.552,381.729z"/>
	</g>
	<path fill="#F9F9F4" d="M166.279,323.139c-2.493,38.656-1.825,113.19,40.401,134.833c75.718,38.81,146.822-39.328,149.411-42.958
		c0.542-0.759,0.243-3-0.649-6.035c-3.374-11.478-15.351-34.465-23.535-33.045c-28.177,4.889-62.06,0.824-72.533-8.291
		c-14.81-12.891-27.98-61.439-39.784-74.244C219.59,293.399,166.581,318.455,166.279,323.139z"/>
	<g>
		<path fill="#EFE8D5" d="M353.782,404.167c-18.576,18.513-79.485,69.754-143.722,36.829
			c-37.533-19.238-42.231-80.262-41.061-120.736c-1.683,1.252-2.679,2.25-2.719,2.878c-2.493,38.656-1.825,113.19,40.401,134.833
			c75.718,38.81,146.822-39.328,149.411-42.958c0.542-0.759,0.243-3-0.649-6.035C355.017,407.534,354.455,405.906,353.782,404.167z"
			/>
		<path fill="#F9F9F4" stroke="#EFE8D5" stroke-width="3" stroke-miterlimit="10" d="M210.06,440.997
			c64.238,32.925,125.146-18.316,143.722-36.829c-4.671-12.068-14.722-29.475-21.875-28.234c-28.177,4.889-62.06,0.824-72.533-8.291
			c-14.81-12.891-27.98-61.439-39.784-74.244c0,0-39.732,18.782-50.592,26.862C167.828,360.734,172.527,421.759,210.06,440.997z"/>
	</g>
</g>
<g id="절구공이_copy">
	<path fill="#EAC7A4" d="M316.528,58.995c14.036-2.562,26.487,1.235,27.809,8.48l26.628,145.933c0,0-2.909,62.986,9.999,133.72
		c12.906,70.732,37.873,128.633,37.873,128.633l26.628,145.935c1.322,7.245-8.985,15.194-23.022,17.755
		c-14.037,2.56-26.487-1.235-27.809-8.48l-26.629-145.934c0,0,1.833-68.882-9.998-133.72
		c-11.831-64.838-37.873-128.633-37.873-128.633L293.506,76.75C292.184,69.504,302.492,61.556,316.528,58.995z"/>
	
		<ellipse transform="matrix(-0.9838 0.1795 -0.1795 -0.9838 645.6081 85.8039)" fill="#EAC7A4" cx="318.922" cy="72.112" rx="25.835" ry="13.334"/>
	
		<rect x="380.9" y="479.194" transform="matrix(0.9838 -0.1795 0.1795 0.9838 -92.7325 82.0069)" fill="#EAC7A4" width="51.67" height="148.343"/>
	<path fill="#EAC7A4" d="M370.966,213.408l-50.831,9.276c0,0,26.042,63.795,37.873,128.633c11.831,64.838,9.998,133.72,9.998,133.72
		l50.831-9.276c0,0-24.966-57.901-37.873-128.633C368.057,276.394,370.966,213.408,370.966,213.408z"/>
	
		<rect x="306.401" y="70.907" transform="matrix(0.9838 -0.1795 0.1795 0.9838 -20.6464 61.9964)" fill="#EAC7A4" width="51.671" height="148.343"/>
	<path fill="#E2B083" d="M306.066,62.159c-0.07,0.676-0.049,1.351,0.073,2.02l26.629,145.934c0,0,26.042,63.796,37.873,128.634
		s9.998,133.72,9.998,133.72L407.268,618.4c1.323,7.245,13.772,11.041,27.809,8.48c3.817-0.697,7.355-1.794,10.462-3.165
		c-0.688,6.647-10.355,13.411-23.095,15.735c-14.037,2.56-26.487-1.235-27.809-8.48l-26.629-145.934c0,0,1.833-68.882-9.998-133.72
		c-11.831-64.838-37.873-128.633-37.873-128.633L293.506,76.75C292.544,71.475,297.749,65.829,306.066,62.159z"/>
	
		<ellipse transform="matrix(-0.9838 0.1795 -0.1795 -0.9838 945.705 1167.0938)" fill="#C9996D" cx="420.05" cy="626.333" rx="25.835" ry="13.334"/>
</g>
<g id="달토끼수염_오_copy">
	<g>
		
			<linearGradient id="SVGID_15_" gradientUnits="userSpaceOnUse" x1="1319.0078" y1="233.0508" x2="1381.8237" y2="233.0508" gradientTransform="matrix(1 0 0 1 -952.999 0)">
			<stop  offset="0" style="stop-color:#666666"/>
			<stop  offset="0.1916" style="stop-color:#6A6867;stop-opacity:0.8084"/>
			<stop  offset="0.3642" style="stop-color:#756E6B;stop-opacity:0.6358"/>
			<stop  offset="0.5294" style="stop-color:#877871;stop-opacity:0.4706"/>
			<stop  offset="0.6902" style="stop-color:#A1867A;stop-opacity:0.3098"/>
			<stop  offset="0.8461" style="stop-color:#C29786;stop-opacity:0.1539"/>
			<stop  offset="1" style="stop-color:#EAAD94;stop-opacity:0"/>
		</linearGradient>
		<path fill="none" stroke="url(#SVGID_15_)" stroke-width="0.25" stroke-miterlimit="10" d="M366.042,236.066
			c19.093-5.35,47.931-7.102,62.768-5.397"/>
		
			<linearGradient id="SVGID_16_" gradientUnits="userSpaceOnUse" x1="1318.9004" y1="235.1045" x2="1375.9912" y2="235.1045" gradientTransform="matrix(1 0 0 1 -952.999 0)">
			<stop  offset="0" style="stop-color:#666666"/>
			<stop  offset="0.1916" style="stop-color:#6A6867;stop-opacity:0.8084"/>
			<stop  offset="0.3642" style="stop-color:#756E6B;stop-opacity:0.6358"/>
			<stop  offset="0.5294" style="stop-color:#877871;stop-opacity:0.4706"/>
			<stop  offset="0.6902" style="stop-color:#A1867A;stop-opacity:0.3098"/>
			<stop  offset="0.8461" style="stop-color:#C29786;stop-opacity:0.1539"/>
			<stop  offset="1" style="stop-color:#EAAD94;stop-opacity:0"/>
		</linearGradient>
		<path fill="none" stroke="url(#SVGID_16_)" stroke-width="0.25" stroke-miterlimit="10" d="M365.939,238.983
			c18.871-6.084,42.151-8.617,57.043-7.489"/>
		
			<linearGradient id="SVGID_17_" gradientUnits="userSpaceOnUse" x1="1316.5972" y1="237.9873" x2="1378.04" y2="237.9873" gradientTransform="matrix(1 0 0 1 -952.999 0)">
			<stop  offset="0" style="stop-color:#666666"/>
			<stop  offset="0.1916" style="stop-color:#6A6867;stop-opacity:0.8084"/>
			<stop  offset="0.3642" style="stop-color:#756E6B;stop-opacity:0.6358"/>
			<stop  offset="0.5294" style="stop-color:#877871;stop-opacity:0.4706"/>
			<stop  offset="0.6902" style="stop-color:#A1867A;stop-opacity:0.3098"/>
			<stop  offset="0.8461" style="stop-color:#C29786;stop-opacity:0.1539"/>
			<stop  offset="1" style="stop-color:#EAAD94;stop-opacity:0"/>
		</linearGradient>
		<path fill="none" stroke="url(#SVGID_17_)" stroke-width="0.25" stroke-miterlimit="10" d="M363.617,239.891
			c19.598-3.009,46.871-5.628,61.395-2.147"/>
		
			<linearGradient id="SVGID_18_" gradientUnits="userSpaceOnUse" x1="1317.5156" y1="246.3257" x2="1380.0107" y2="246.3257" gradientTransform="matrix(1 0 0 1 -952.999 0)">
			<stop  offset="0" style="stop-color:#666666"/>
			<stop  offset="0.1916" style="stop-color:#6A6867;stop-opacity:0.8084"/>
			<stop  offset="0.3642" style="stop-color:#756E6B;stop-opacity:0.6358"/>
			<stop  offset="0.5294" style="stop-color:#877871;stop-opacity:0.4706"/>
			<stop  offset="0.6902" style="stop-color:#A1867A;stop-opacity:0.3098"/>
			<stop  offset="0.8461" style="stop-color:#C29786;stop-opacity:0.1539"/>
			<stop  offset="1" style="stop-color:#EAAD94;stop-opacity:0"/>
		</linearGradient>
		<path fill="none" stroke="url(#SVGID_18_)" stroke-width="0.25" stroke-miterlimit="10" d="M364.528,242.653
			c19.73-1.962,48.129,3.515,62.447,7.762"/>
		
			<linearGradient id="SVGID_19_" gradientUnits="userSpaceOnUse" x1="1318.7285" y1="241.248" x2="1385.6421" y2="241.248" gradientTransform="matrix(1 0 0 1 -952.999 0)">
			<stop  offset="0" style="stop-color:#666666"/>
			<stop  offset="0.1916" style="stop-color:#6A6867;stop-opacity:0.8084"/>
			<stop  offset="0.3642" style="stop-color:#756E6B;stop-opacity:0.6358"/>
			<stop  offset="0.5294" style="stop-color:#877871;stop-opacity:0.4706"/>
			<stop  offset="0.6902" style="stop-color:#A1867A;stop-opacity:0.3098"/>
			<stop  offset="0.8461" style="stop-color:#C29786;stop-opacity:0.1539"/>
			<stop  offset="1" style="stop-color:#EAAD94;stop-opacity:0"/>
		</linearGradient>
		<path fill="none" stroke="url(#SVGID_19_)" stroke-width="0.25" stroke-miterlimit="10" d="M365.742,237.221
			c19.723-2.029,52.534,4.253,66.866,8.451"/>
	</g>
</g>
<g id="달토끼_머리_copy">
	<path fill="#EDF7F7" d="M163.612,17.315c-30.833-20,3.167,106.333,32.833,122.333c12.571,6.78,1.405,19.858,12.529,29.788
		c11.124,9.93,9.49,13.535,18.758,17.356c9.269,3.821,39.943-53.319,15.241-71.807c-12.968-9.706-24.706-38.655-41.059-61.005
		C187.12,33.762,167.204,19.645,163.612,17.315z"/>
	<path fill="#EDF7F7" d="M331.195,8.482c4.25-12.5-1.5,45.25-13.94,66.944c-7.105,12.39-1.255,24.007-9.31,36.556
		c-8.055,12.548,0.154,24.142-7.75,30.309c-7.905,6.166-56.093,14.874-37.25-9.559c9.892-12.827,18.236-38.084,28-64
		C299.778,45.287,329.817,12.535,331.195,8.482z"/>
	<path fill="#D5EFEF" d="M305.945,135.482c16.738,15.036,43,32.5,50.5,54s6,21.167,11,28s8.833,28.333,3.167,33.833
		s-5.167,7.167-9,7.5c0.333,1.333,0.167,0.5-0.667,2.833s-9.491,6.338-19.833,7.25c-6.837,0.603-10.091,0.54-13.413-0.047
		c0.421,4.483-20.976,11.435-27.09,12.417c-6.837,1.097-31.997,4.714-41.33-3.12s-25.167-25.334-31.333-30.5
		s-33-25.667-24.667-43.167s12.333-22.666,9.833-25.833s12.083-20.042,6.833-30.542s-0.625-25.375-5.5-32s-0.875-15-6.875-21.875
		s-3.875-23.25-9.125-29.375s4.692-5.403-18.058-25.903s-9.933-18.222-23.558-22.847c-3.577-1.214,7.365-3.875,13.99,3.375
		c2.877,3.148,35.125,31.75,45.125,42s16,15.75,19.75,21.5s24.75,40.25,27.25,44.25c-1-5.75-3-21.75,2.5-31.75s18-35.25,25.25-43.25
		s27.75-29.625,32.5-37.938s9.5-18.063,12.75-12.813s-2,20.75-5.75,28.25s-12.5,25.5-16,35s-13,32.75-18,40
		S291.195,122.232,305.945,135.482z"/>
	<path display="none" fill="#B9EDE9" d="M253.153,261.595c-8.347,10.702-50.711,10.732-62.961,2.099
		c5.363,5.439,10.883,10.927,15.086,14.455c9.333,7.833,34.493,4.217,41.33,3.12c5.76-0.925,25.077-7.147,26.944-11.613
		C265.007,268.615,260.978,266.019,253.153,261.595z"/>
	
		<linearGradient id="SVGID_20_" gradientUnits="userSpaceOnUse" x1="1267.8384" y1="235.2671" x2="1295.6578" y2="272.2593" gradientTransform="matrix(1 0 0 1 -953.166 0)">
		<stop  offset="0" style="stop-color:#D5EFEF"/>
		<stop  offset="0.4676" style="stop-color:#DEF3F3"/>
		<stop  offset="1" style="stop-color:#EFF9F9"/>
	</linearGradient>
	<path fill="url(#SVGID_20_)" d="M307.57,238.857c-5.591,2.334-7.5,16.813-4.5,19.375c2.872,2.453,11.25,14,44.292,9.65
		c8.799-1.158,12.299-6.91,13.012-8.983c1.375-3.995-16.748-13.167-29.188-26.917C322.345,231.221,313.162,236.523,307.57,238.857z"
		/>
	
		<linearGradient id="SVGID_21_" gradientUnits="userSpaceOnUse" x1="621.8716" y1="254.5723" x2="642.8612" y2="206.6261" gradientTransform="matrix(-1 0 0 1 983.8833 0)">
		<stop  offset="0" style="stop-color:#526867"/>
		<stop  offset="0.0464" style="stop-color:#647B7A"/>
		<stop  offset="0.1614" style="stop-color:#8CA4A4"/>
		<stop  offset="0.2737" style="stop-color:#ACC5C5"/>
		<stop  offset="0.3809" style="stop-color:#C3DCDC"/>
		<stop  offset="0.4809" style="stop-color:#D0EAEA"/>
		<stop  offset="0.5665" style="stop-color:#D5EFEF"/>
	</linearGradient>
	<path fill="url(#SVGID_21_)" d="M332.88,210.099c1.078-5.962,28.304-6.328,29.517-2.574c3.298,10.208,11.031,13.208,11.009,34.548
		c-0.01,9.75-7.339,14.768-9.211,15.91c-3.607,2.201-22.375-12.5-32.959-23.342C328.595,226.169,331.801,216.061,332.88,210.099z"/>
	<path fill="#070301" d="M293.406,192.312c6.588,5.76,4.14,13.8,4.74,17.22c-2.7-0.54-8.099-0.262-12.42-0.419
		c-3.3-0.121-5.58-3.9-7.2-6.601c-1.62-2.7-1.26-8.28-0.9-12.064C279.966,190.623,286.817,186.551,293.406,192.312z"/>
	<circle fill="#EFDF6A" cx="289.136" cy="197.949" r="9.914"/>
	<circle fill="#774D0E" cx="289.136" cy="197.949" r="7.931"/>
	<path fill="#4F3527" d="M274.945,203.732c2.25,3.75,5.417,9,10,9.167c6.001,0.219,13.5-0.167,17.25,0.583
		c-0.833-4.75,2.567-15.917-6.583-23.917c-9.151-8-18.667-2.345-21.917-2.589C273.195,192.232,272.695,199.982,274.945,203.732z
		 M277.625,190.447c2.34,0.176,9.191-3.896,15.78,1.864c6.588,5.76,4.14,13.8,4.74,17.22c-2.7-0.54-8.099-0.262-12.42-0.419
		c-3.3-0.121-5.58-3.9-7.2-6.601C276.906,199.812,277.266,194.231,277.625,190.447z"/>
	<circle fill="#E6F4FC" cx="285.362" cy="191.648" r="1.521"/>
	<path fill="#ED94B4" d="M361.737,258.899c2.25-0.125,5.125-0.75,2.25-2.625s-4.5-2.75-6.375-2c0.375,2.75,2.375,2.625,1.5,5.25
		s-5.417,6.714-12.5,7.708c-12.128,1.703-22.42,0.453-30.583-2.5c-10.489-3.794-13.703-8.734-15.022-10.689
		c-1.728-2.561-2.74-3.982,0.476,1.922c3.522,6.464,12.389,11.018,18.758,12.891c11.586,3.408,17.941,2.954,27.997,1.043
		C353.04,268.986,363.692,263.694,361.737,258.899z"/>
	<path fill="#EF6579" d="M361.736,258.899c2.25-0.125,5.125-0.75,2.25-2.625s-4.5-2.75-6.375-2
		C357.986,257.024,360.425,258.836,361.736,258.899z"/>
	<path display="none" fill="#F281A4" d="M246.951,255.482c0.307,0.467,1.322,5.157,1.75,7.694c0.428,2.538,2.716,11.938,5.925,15.29
		c4.792,5.004,0.936,4.753-1.421,2.599c-4.42-4.04-6.087-11.938-6.254-15.51S245.201,252.815,246.951,255.482z"/>
	<path fill="#EF6579" d="M303.39,257.091c-0.927-1.032-3.575-3.942-2.816-6.374c-0.758-0.193-3.318-0.299-3.507,0.182
		C297.13,251.46,302.109,257.311,303.39,257.091z"/>
</g>
<g id="달토끼수염_왼_copy">
	
		<linearGradient id="SVGID_22_" gradientUnits="userSpaceOnUse" x1="635.7393" y1="234.2959" x2="698.5547" y2="234.2959" gradientTransform="matrix(-1 0 0 1 983.8833 0)">
		<stop  offset="0" style="stop-color:#666666"/>
		<stop  offset="0.1916" style="stop-color:#6A6867;stop-opacity:0.8084"/>
		<stop  offset="0.3642" style="stop-color:#756E6B;stop-opacity:0.6358"/>
		<stop  offset="0.5294" style="stop-color:#877871;stop-opacity:0.4706"/>
		<stop  offset="0.6902" style="stop-color:#A1867A;stop-opacity:0.3098"/>
		<stop  offset="0.8461" style="stop-color:#C29786;stop-opacity:0.1539"/>
		<stop  offset="1" style="stop-color:#EAAD94;stop-opacity:0"/>
	</linearGradient>
	<path fill="none" stroke="url(#SVGID_22_)" stroke-width="0.25" stroke-miterlimit="10" d="M348.11,237.311
		c-19.093-5.35-47.931-7.102-62.768-5.397"/>
	
		<linearGradient id="SVGID_23_" gradientUnits="userSpaceOnUse" x1="635.6318" y1="236.3496" x2="692.7231" y2="236.3496" gradientTransform="matrix(-1 0 0 1 983.8833 0)">
		<stop  offset="0" style="stop-color:#666666"/>
		<stop  offset="0.1916" style="stop-color:#6A6867;stop-opacity:0.8084"/>
		<stop  offset="0.3642" style="stop-color:#756E6B;stop-opacity:0.6358"/>
		<stop  offset="0.5294" style="stop-color:#877871;stop-opacity:0.4706"/>
		<stop  offset="0.6902" style="stop-color:#A1867A;stop-opacity:0.3098"/>
		<stop  offset="0.8461" style="stop-color:#C29786;stop-opacity:0.1539"/>
		<stop  offset="1" style="stop-color:#EAAD94;stop-opacity:0"/>
	</linearGradient>
	<path fill="none" stroke="url(#SVGID_23_)" stroke-width="0.25" stroke-miterlimit="10" d="M348.213,240.228
		c-18.871-6.084-42.151-8.617-57.043-7.489"/>
	
		<linearGradient id="SVGID_24_" gradientUnits="userSpaceOnUse" x1="633.3286" y1="239.2314" x2="694.7715" y2="239.2314" gradientTransform="matrix(-1 0 0 1 983.8833 0)">
		<stop  offset="0" style="stop-color:#666666"/>
		<stop  offset="0.1916" style="stop-color:#6A6867;stop-opacity:0.8084"/>
		<stop  offset="0.3642" style="stop-color:#756E6B;stop-opacity:0.6358"/>
		<stop  offset="0.5294" style="stop-color:#877871;stop-opacity:0.4706"/>
		<stop  offset="0.6902" style="stop-color:#A1867A;stop-opacity:0.3098"/>
		<stop  offset="0.8461" style="stop-color:#C29786;stop-opacity:0.1539"/>
		<stop  offset="1" style="stop-color:#EAAD94;stop-opacity:0"/>
	</linearGradient>
	<path fill="none" stroke="url(#SVGID_24_)" stroke-width="0.25" stroke-miterlimit="10" d="M350.536,241.136
		c-19.598-3.009-46.871-5.628-61.395-2.147"/>
	
		<linearGradient id="SVGID_25_" gradientUnits="userSpaceOnUse" x1="634.2471" y1="247.5703" x2="696.7422" y2="247.5703" gradientTransform="matrix(-1 0 0 1 983.8833 0)">
		<stop  offset="0" style="stop-color:#666666"/>
		<stop  offset="0.1916" style="stop-color:#6A6867;stop-opacity:0.8084"/>
		<stop  offset="0.3642" style="stop-color:#756E6B;stop-opacity:0.6358"/>
		<stop  offset="0.5294" style="stop-color:#877871;stop-opacity:0.4706"/>
		<stop  offset="0.6902" style="stop-color:#A1867A;stop-opacity:0.3098"/>
		<stop  offset="0.8461" style="stop-color:#C29786;stop-opacity:0.1539"/>
		<stop  offset="1" style="stop-color:#EAAD94;stop-opacity:0"/>
	</linearGradient>
	<path fill="none" stroke="url(#SVGID_25_)" stroke-width="0.25" stroke-miterlimit="10" d="M349.624,243.897
		c-19.73-1.962-48.129,3.515-62.447,7.762"/>
	
		<linearGradient id="SVGID_26_" gradientUnits="userSpaceOnUse" x1="635.46" y1="242.4922" x2="702.374" y2="242.4922" gradientTransform="matrix(-1 0 0 1 983.8833 0)">
		<stop  offset="0" style="stop-color:#666666"/>
		<stop  offset="0.1916" style="stop-color:#6A6867;stop-opacity:0.8084"/>
		<stop  offset="0.3642" style="stop-color:#756E6B;stop-opacity:0.6358"/>
		<stop  offset="0.5294" style="stop-color:#877871;stop-opacity:0.4706"/>
		<stop  offset="0.6902" style="stop-color:#A1867A;stop-opacity:0.3098"/>
		<stop  offset="0.8461" style="stop-color:#C29786;stop-opacity:0.1539"/>
		<stop  offset="1" style="stop-color:#EAAD94;stop-opacity:0"/>
	</linearGradient>
	<path fill="none" stroke="url(#SVGID_26_)" stroke-width="0.25" stroke-miterlimit="10" d="M348.411,238.466
		c-19.723-2.029-52.534,4.253-66.866,8.451"/>
</g>
<g id="달토끼_몸통_copy">
	<path fill="#F9F9F4" d="M255.71,443.659c7.946,11.698,22.652,89.843,21.608,104.309s-36.761,3.966-31.902,11.466
		s-29.533,4.143-47.428,4.893c-25.479,1.068-68.964,10.343-77.078,1.386c-3.628-4.004-23.207-0.126-32.867,1.375
		s-42.471-0.607-43.019-9.404s8.667-102.301,12.5-114.025S253.146,439.884,255.71,443.659z"/>
	<g>
		<path fill="#EFE8D5" d="M255.71,443.659c-0.151-0.223-0.967-0.459-2.355-0.706c7.889,25.923,17.511,80.062,16.66,91.859
			c-1.043,14.466-36.761,3.966-31.902,11.466s-29.533,4.143-47.428,4.893c-25.479,1.068-68.964,10.343-77.078,1.386
			c-3.628-4.004-23.207-0.126-32.867,1.375c-6.803,1.057-25.075,0.32-35.488-3.278c-0.211,3.466-0.297,5.922-0.228,7.031
			c0.547,8.796,33.358,10.905,43.019,9.404s29.239-5.379,32.867-1.375c8.115,8.957,51.6-0.318,77.078-1.386
			c17.895-0.75,52.286,2.607,47.428-4.893s30.859,3,31.902-11.466S263.656,455.357,255.71,443.659z"/>
		<g>
			<path fill="#F9F9F4" d="M130.498,554.921c-8.443,0-13.752-1.134-15.779-3.371c-1.392-1.536-4.151-2.251-8.684-2.251
				c-6.343,0-15.13,1.449-21.546,2.506c-1.445,0.238-2.787,0.459-3.978,0.645c-1.764,0.274-4.426,0.425-7.494,0.425c0,0,0,0,0,0
				c-7.374,0-18.443-0.869-26.193-3.285c1.654-25.713,8.903-95.603,12.128-105.465c0.465-0.833,5.909-5.122,66.531-5.122
				c48.95,0,111.59,2.93,126.707,5.276c8.026,26.875,17.117,79.518,16.331,90.424c-0.464,6.43-10.146,6.969-19.185,6.969
				l-2.941-0.005c-5.444,0-8.829,0.146-9.927,2.166c-0.359,0.66-0.583,1.762,0.388,3.26c0.197,0.304,0.229,0.479,0.224,0.517
				c-0.177,0.509-2.026,2.182-18.38,2.182c-3.467,0-7.182-0.062-10.775-0.121c-3.51-0.059-7.14-0.119-10.451-0.119
				c-2.684,0-4.925,0.04-6.85,0.12c-7.757,0.325-16.947,1.38-26.677,2.497C152.156,553.522,139.965,554.921,130.498,554.921z"/>
			<path fill="#EFE8D5" d="M125.482,440.504c47.957,0,109.024,2.808,125.541,5.12c7.924,27.016,16.772,78.29,16.001,88.972
				c-0.334,4.628-7.313,5.577-17.689,5.577l-1.514-0.002l-1.427-0.002c-5.999,0-9.749,0.199-11.245,2.949
				c-0.392,0.722-0.854,2.118-0.029,3.929c-1.589,0.545-5.715,1.246-16.421,1.246c-3.455,0-7.164-0.062-10.75-0.121
				c-3.516-0.058-7.152-0.119-10.476-0.119c-2.706,0-4.967,0.04-6.912,0.121c-7.811,0.328-17.028,1.385-26.786,2.505
				c-11.748,1.348-23.896,2.742-33.277,2.742c-10.492,0-13.693-1.803-14.667-2.878c-1.72-1.898-4.741-2.745-9.796-2.745
				c-6.466,0-15.323,1.46-21.79,2.526c-1.44,0.237-2.777,0.458-3.964,0.643c-1.69,0.263-4.27,0.407-7.264,0.407
				c-7.419,0-17.497-0.898-24.617-2.885c1.741-25.705,8.718-92.712,11.855-103.499C61.795,443.979,71.068,440.504,125.482,440.504
				 M125.482,437.504c-36.34,0-66.461,1.579-67.957,6.155c-3.35,10.247-10.81,82.958-12.272,106.995
				c7.574,2.618,19.31,3.721,27.762,3.721c3.166,0,5.871-0.155,7.725-0.443c6.558-1.019,17.688-3.133,25.294-3.133
				c3.599,0,6.407,0.473,7.573,1.759c2.595,2.864,8.807,3.864,16.89,3.864c17.195,0,42.857-4.523,60.188-5.25
				c2.07-0.087,4.362-0.119,6.787-0.119c6.657,0,14.328,0.24,21.226,0.24c12.315,0,22.169-0.763,19.415-5.014
				c-1.885-2.911,2.342-3.11,8.28-3.11c0.943,0,1.929,0.005,2.941,0.005c9.035,0,20.107-0.4,20.681-8.361
				c0.851-11.797-8.771-65.936-16.66-91.859C240.384,440.648,176.751,437.504,125.482,437.504L125.482,437.504z"/>
		</g>
	</g>
	<path fill="#F9F9F4" stroke="#EFE8D5" stroke-width="3" stroke-miterlimit="10" d="M193.945,211.481
		c2.163,11.953,22.306,39.616,28.244,46.722c10.558,12.633,7.885,35.653,34.585,51.398c1.229,44.061,8.003,82.353,8.003,131.714
		c0,32.236,6.635-4.748,1.226,16.953c-18.813,9.597-52.974,13.662-96.971,13.662c-38.698,0-97.887-3.697-116.159-13.829
		c-0.88-2.097-4.529-14.521,2.389-57.548C69.635,311.161,132.943,232.773,193.945,211.481z"/>
	<path fill="#EFE8D5" d="M144.125,460.878c43.997,0,79.004-1.18,97.817-10.776c5.409-21.701,5.58,12.398,5.58-19.838
		c0-49.362-6.774-87.653-8.003-131.714c-26.7-15.745-24.028-38.765-34.585-51.398c-4.02-4.81-14.542-19.035-21.596-31.434
		c3.568-1.594,7.111-3.014,10.609-4.235c2.163,11.953,22.306,39.616,28.244,46.722c10.558,12.633,7.885,35.653,34.585,51.398
		c1.229,44.061,8.003,82.353,8.003,131.714c0,32.236-2.261-1.582-7.67,20.119c-18.813,9.597-51.73,10.496-95.726,10.496
		c-38.698,0-90.547-2.629-108.819-12.76c-0.31-1.563-0.665-3.188-0.665-4.969C70.009,459.004,114.748,460.878,144.125,460.878z"/>
	<path fill="#F9F9F4" stroke="#EFE8D5" stroke-width="3" stroke-miterlimit="10" d="M200.945,205.149
		c0.913,9.036,32.538,68.161,57.292,92.167c0.403,11.942,0.561,15.439,0.571,15.673c-32.224-7.333-68.513-85.738-73.239-98.507
		C186.093,214.144,200.178,205.092,200.945,205.149z"/>
	<path fill="#EFE8D5" d="M188.566,212.402c0.653,0.568,39.185,87.076,70.214,99.937c0.009,0.202,0.018,0.417,0.028,0.65
		c-32.224-7.333-68.513-85.738-73.239-98.507C186.093,214.144,187.618,213.045,188.566,212.402z"/>
</g>
<g id="저고리_고름">
	<g>
		<g>
			<path fill="#F9F9F4" d="M243.725,351.803c-3.588,0-23.435-1.093-24.99-5.925c-0.17-0.528-0.383-1.887,1.302-3.096
				c1.785-1.281,1.684-5.756,1.595-9.704c-0.123-5.449-0.262-11.625,4.774-12.155c0.241-0.025,0.488-0.038,0.741-0.038
				c7.529,0,20.042,11.715,25.073,16.751l0.217,0.217l0.114,0.286c0.104,0.259,2.51,6.389,0.016,10.386
				c-1.189,1.906-3.199,2.977-5.973,3.184c-0.845,0.063-1.811,0.095-2.868,0.095H243.725z"/>
			<path fill="#EFE8D5" d="M227.148,322.385c7.021,0,19.791,12.085,24.011,16.312c0,0,4.34,10.845-4.676,11.516
				c-0.824,0.062-1.752,0.091-2.758,0.091c-10.006,0-27.537-2.911-22.813-6.303c5.199-3.732-1.22-20.863,5.651-21.586
				C226.754,322.395,226.948,322.385,227.148,322.385 M227.148,319.385c-0.305,0-0.607,0.016-0.898,0.046
				c-6.411,0.674-6.241,8.192-6.117,13.681c0.064,2.854,0.172,7.632-0.97,8.452c-2.556,1.835-2.066,4.118-1.855,4.774
				c0.607,1.886,2.384,3.858,11.202,5.502c4.841,0.902,10.67,1.463,15.215,1.463c1.096,0,2.099-0.034,2.981-0.099
				c4.083-0.304,6.133-2.28,7.135-3.885c2.843-4.557,0.393-11.016,0.104-11.738l-0.228-0.57l-0.434-0.435
				C246.87,330.156,234.947,319.385,227.148,319.385L227.148,319.385z"/>
		</g>
		<path fill="#F9F9F4" stroke="#EFE8D5" stroke-width="3" stroke-miterlimit="10" d="M257.329,338.304
			c6.148,4.183,13.414,108.937,7.628,143.659c-5.426,2.17-9.404,1.808-12.297,6.148s11.902-129.71,1.775-137.306
			C244.308,343.21,257.329,338.304,257.329,338.304z"/>
		<g>
			<path fill="#F9F9F4" d="M262.348,512.355l-0.503-0.472c-1.069-1.074-1.248-4.283-1.107-42.036
				c0.086-22.98,0.194-51.58-0.546-75.083c-1.148-36.505-3.903-42.418-5.034-43.267c-3.294-2.471-4.775-5.055-4.401-7.68
				c0.664-4.66,6.951-7.157,7.666-7.426l0.685-0.258l0.625,0.382c10.582,6.458,15.405,49.991,17.338,75.365
				c2.779,36.469,2.689,75.574-0.212,92.985l-0.139,0.833l-0.784,0.313c-1.687,0.675-3.242,1.116-4.615,1.505
				c-3.171,0.899-5.265,1.494-6.991,4.083c-0.32,0.48-0.816,0.756-1.361,0.756H262.348z"/>
			<path fill="#EFE8D5" d="M258.953,337.795c16.641,10.155,22.215,132.101,16.428,166.823c-5.425,2.17-9.404,1.808-12.297,6.148
				c-0.039,0.059-0.077,0.088-0.113,0.088c-2.62,0,3.077-153.066-6.912-160.558C245.932,342.702,258.953,337.795,258.953,337.795
				 M259.266,334.472l-1.371,0.517c-0.8,0.301-7.836,3.104-8.622,8.618c-0.454,3.188,1.199,6.228,4.914,9.036
				c0.828,1.004,3.457,7.082,4.545,43.43c0.696,23.236,0.591,51.255,0.506,73.77c-0.155,41.394,0.071,41.621,1.544,43.1
				c0.587,0.589,1.364,0.914,2.188,0.914c1.04,0,2.015-0.533,2.61-1.424c1.362-2.043,2.87-2.541,6.152-3.472
				c1.408-0.399,3.004-0.852,4.763-1.555l1.567-0.627l0.278-1.665c2.919-17.514,3.015-56.772,0.228-93.345
				c-1.481-19.435-3.651-36.417-6.277-49.111c-4.293-20.757-8.777-25.59-11.776-27.421L259.266,334.472L259.266,334.472z"/>
		</g>
		<g>
			<path fill="#F9F9F4" d="M254.917,355.778c-0.158,0-0.316-0.019-0.469-0.056c-0.257-0.062-0.599-0.131-1-0.214
				c-3.592-0.741-10.277-2.12-10.277-6.511c0-0.154,0.205-15.451,4.774-16.521c0.463-0.108,1.058-0.161,1.818-0.161
				c2.936,0,10.009,0.946,11.907,3.758c0.579,0.857,0.688,1.848,0.307,2.792c-0.282,0.7-0.742,2.514-1.229,4.436
				c-2.199,8.675-3.415,12.478-5.828,12.478C254.918,355.778,254.917,355.778,254.917,355.778z"/>
			<path fill="#EFE8D5" d="M249.762,333.815c3.878,0,11.993,1.585,10.823,4.488c-1.065,2.639-3.524,15.974-5.667,15.974
				c-0.04,0-0.081-0.004-0.121-0.014c-2.17-0.52-10.127-1.65-10.127-5.267c0-3.617,1.085-14.467,3.616-15.06
				C248.635,333.855,249.144,333.815,249.762,333.815 M249.762,330.815c-0.876,0-1.583,0.065-2.16,0.201
				c-2.512,0.588-4.015,3.214-5.025,8.781c-0.595,3.282-0.907,7.112-0.907,9.2c0,5.613,7.464,7.153,11.474,7.98
				c0.383,0.079,0.709,0.146,0.954,0.204c0.268,0.064,0.544,0.097,0.82,0.097c3.67,0,4.953-4.418,7.283-13.609
				c0.453-1.789,0.922-3.638,1.166-4.243c0.565-1.4,0.399-2.928-0.455-4.192C260.057,331.005,249.864,330.815,249.762,330.815
				L249.762,330.815z"/>
		</g>
	</g>
</g>
<g id="달토끼_왼팔_copy">
	<g>
		<path fill="#D5EFEF" d="M354.183,326.862c-6.908,5.705-6.07,8.899-5.125,7.346c1.904-3.129,4.129-5.235,6.409-6.836
			c0.005,0.003,0.01,0.004,0.015,0.007c5.942-4.303,16.313-5.804,20.67-2.697c-5.935,0.395-9.749,2.158-12.037,3.9
			c-3.779,2.879-3.128,3.208-1.334,2.216c7.781-4.304,11.445-4.197,15.367-3.833c5.29,0.904,13.596,4.249,13.81,9.361
			c-4.403-1.273-8.212-0.168-11.736,1.676c-4.249,2.225-8.064,7.022-5.562,5.488c6.819-4.183,10.279-6.229,16.967-4.457
			c1.488,0.745,4.105,4.025,4.824,8.269c0.034,0.281,0.06,0.562,0.082,0.845c0.288,7.374-11.365,13.48-17.781,17.462
			c-10.889,6.757-23.188,9.596-26.894,10.786l-23.096-17.889C330.015,343.238,345.122,324.334,354.183,326.862z"/>
		<path fill="#ACE2DF" d="M377.764,364.659c4.555-2.133,19.057-9.138,18.77-16.512c0.359,4.693-0.979,9.411-9.114,14.801
			c-16.023,9.576-20.376,11.006-34.514,14.255l-4.426-4.17C352.186,371.842,373.729,366.55,377.764,364.659z"/>
		<path fill="#BEEAE9" d="M354.183,326.862c0.442,0.124,0.872,0.282,1.285,0.51c-2.28,1.601-4.506,3.707-6.409,6.836
			C348.113,335.761,347.274,332.566,354.183,326.862z"/>
		<path fill="#BEEAE9" d="M362.782,330.798c-1.794,0.992-2.444,0.664,1.334-2.216c2.288-1.743,6.102-3.506,12.037-3.9
			c0.82,0.585,1.453,1.316,1.775,2.241c0.07,0.011,0.148,0.03,0.22,0.042C374.227,326.601,370.563,326.494,362.782,330.798z"/>
		<path fill="#BEEAE9" d="M374.661,343.49c-2.502,1.534,1.313-3.264,5.562-5.488c3.523-1.844,7.333-2.949,11.736-1.676
			c0.035,0.824-0.122,1.692-0.557,2.604c0.069,0.025,0.149,0.063,0.226,0.103C384.94,337.261,381.48,339.308,374.661,343.49z"/>
	</g>
	<path fill="#F9F9F4" d="M158.815,325.738c5.104,38.398,20.315,111.367,65.954,124.347c81.839,23.275,136.315-67.244,138.146-71.309
		c0.383-0.85-0.348-2.99-1.816-5.792c-5.551-10.598-21.786-30.803-29.535-27.813c-26.679,10.297-60.704,12.928-72.755,6.034
		c-17.043-9.75-39.44-54.792-53.517-65.044C205.292,286.16,158.197,321.086,158.815,325.738z"/>
	<g>
		<path fill="#EFE8D5" d="M358.532,368.589c-14.603,21.785-64.332,83.934-133.763,64.188
			c-40.567-11.538-57.093-70.469-63.849-110.392c-1.406,1.557-2.188,2.729-2.105,3.354c5.104,38.398,20.315,111.367,65.954,124.347
			c81.839,23.275,136.315-67.244,138.146-71.309c0.383-0.85-0.348-2.99-1.816-5.792C360.4,371.65,359.531,370.163,358.532,368.589z"
			/>
		<path fill="#F9F9F4" stroke="#EFE8D5" stroke-width="3" stroke-miterlimit="10" d="M224.769,432.777
			c69.431,19.747,119.16-42.403,133.763-64.188c-6.938-10.923-20.195-26.032-26.968-23.418
			c-26.679,10.297-60.704,12.928-72.755,6.034c-17.043-9.75-39.44-54.792-53.517-65.044c0,0-35.3,26.179-44.372,36.225
			C167.677,362.308,184.202,421.239,224.769,432.777z"/>
	</g>
</g>
<g id="Layer_39">
	<path fill="#898686" d="M674.535,564.328H306.976c-10.721,0,51.768,214.723,84.08,259.107c0,0-74.324,171.014-15.137,171.014
		H605.58c56.681,0-15.136-171.014-15.136-171.014C622.762,779.044,685.246,564.328,674.535,564.328z"/>
	<path fill="#C9996D" d="M915.488,709.553h-13.47H672.752h-13.47c-7.409,0-13.47,6.062-13.47,13.47
		c0,7.409,6.062,13.471,13.47,13.471v45.125c0,7.409,6.062,13.471,13.47,13.471h6.736v199.359h26.94V795.089h161.914v199.359h26.94
		V795.089h6.734c7.409,0,13.471-6.062,13.471-13.471v-45.125c7.408,0,13.47-6.062,13.47-13.471
		C928.958,715.614,922.897,709.553,915.488,709.553z M888.547,767.475H686.223v-31.655h202.324V767.475L888.547,767.475z"/>
	<path fill="#C9996D" d="M77.592,723.022c0,7.409,6.062,13.471,13.47,13.471v45.125c0,7.409,6.062,13.471,13.471,13.471h6.734
		v199.359h26.94V795.089h161.914v199.359h26.94V795.089h6.736c7.408,0,13.47-6.062,13.47-13.471v-45.125
		c7.409,0,13.47-6.062,13.47-13.471c0-7.408-6.062-13.47-13.47-13.47h-13.47H104.532h-13.47
		C83.653,709.553,77.592,715.614,77.592,723.022z M118.002,767.475v-31.655h202.324v31.655H118.002L118.002,767.475z"/>
</g>
</svg>
