<?xml version="1.0" encoding="utf-8"?>
<!-- Generator: Adobe Illustrator 16.0.0, SVG Export Plug-In . SVG Version: 6.00 Build 0)  -->
<!DOCTYPE svg PUBLIC "-//W3C//DTD SVG 1.1//EN" "http://www.w3.org/Graphics/SVG/1.1/DTD/svg11.dtd">
<svg version="1.1" xmlns="http://www.w3.org/2000/svg" xmlns:xlink="http://www.w3.org/1999/xlink" x="0px" y="0px"
	 width="621.595px" height="716.289px" viewBox="0 0 621.595 716.289" enable-background="new 0 0 621.595 716.289"
	 xml:space="preserve">
<g id="케익_사진">
</g>
<g id="Layer_2">
</g>
<g id="Layer_3">
</g>
<g id="Layer_5">
</g>
<g id="Layer_4">
</g>
<g id="토끼_사진">
</g>
<g id="Layer_56">
</g>
<g id="Layer_52">
</g>
<g id="메인토끼_머리_copy">
	<linearGradient id="SVGID_1_" gradientUnits="userSpaceOnUse" x1="140.0063" y1="1334.7837" x2="159.2605" y2="1360.3864">
		<stop  offset="0" style="stop-color:#D8B89A"/>
		<stop  offset="0.2496" style="stop-color:#DDBFA3"/>
		<stop  offset="0.6636" style="stop-color:#ECD2BD"/>
		<stop  offset="0.8043" style="stop-color:#F2DAC7"/>
	</linearGradient>
	<path display="none" fill="url(#SVGID_1_)" d="M136.309,1336.583c-5.591,2.334-10.925,12.208-7.925,14.771
		c2.872,2.453,13.125,9.938,26.25,9.938c8.875,0,12.333-5.375,12.667-7.542s0.167-12.333,1.574-12.333h0.02
		c1.407,0-9.21-7.655-13.085-7.655C146.967,1333,141.9,1334.25,136.309,1336.583z"/>
	
		<linearGradient id="SVGID_2_" gradientUnits="userSpaceOnUse" x1="-655.9939" y1="1334.7837" x2="-636.7392" y2="1360.3871" gradientTransform="matrix(-1 0 0 1 -458.2324 0)">
		<stop  offset="0" style="stop-color:#D8B89A"/>
		<stop  offset="0.2496" style="stop-color:#DDBFA3"/>
		<stop  offset="0.6636" style="stop-color:#ECD2BD"/>
		<stop  offset="0.8043" style="stop-color:#F2DAC7"/>
	</linearGradient>
	<path display="none" fill="url(#SVGID_2_)" d="M201.459,1336.583c5.591,2.334,10.925,12.208,7.925,14.771
		c-2.872,2.453-13.125,9.938-26.25,9.938c-8.875,0-12.333-5.375-12.667-7.542s-0.167-12.333-1.574-12.333h-0.02
		c-1.407,0,9.21-7.655,13.085-7.655C190.8,1333,195.868,1334.25,201.459,1336.583z"/>
	<linearGradient id="SVGID_3_" gradientUnits="userSpaceOnUse" x1="169.2192" y1="1294.1743" x2="169.2192" y2="1343.4236">
		<stop  offset="0" style="stop-color:#D8B89A"/>
		<stop  offset="1" style="stop-color:#B49779"/>
	</linearGradient>
	<path display="none" fill="url(#SVGID_3_)" d="M168.884,1293.433c-30.5,0-18,32.983-16.25,37.983s5.75,12,16.25,12s14.5-7,16.25-12
		S201.259,1293.433,168.884,1293.433z"/>
</g>
<g id="메인토끼_머리_copy_2">
</g>
<g id="메인토끼_머리_copy_4">
</g>
<g id="메인토끼_머리_copy_3">
</g>
<g id="요리토끼">
	<g id="요리토끼_꼬리">
		<g>
			<path fill="#EAA492" d="M555.257,507.336c-0.904,2.88-1.151,5.54-0.537,7.842c4.481,16.789,9.32,17.33,9.32,17.33
				c10.315,6.191,30.842,11.546,46.94,4.235c-0.108,0.441-0.216,0.874-0.328,1.329c-9.864,40.215-49.437,28.538-67.442,22.822
				c0,0-4.839-0.541-9.32-17.33C531.422,534.315,542.802,519.302,555.257,507.336z"/>
			
				<linearGradient id="SVGID_4_" gradientUnits="userSpaceOnUse" x1="-974.7156" y1="320.6685" x2="-936.0287" y2="359.1907" gradientTransform="matrix(-0.9755 -0.2201 -0.2201 0.9755 -267.9048 -25.3486)">
				<stop  offset="0.086" style="stop-color:#F9DACF"/>
				<stop  offset="0.1321" style="stop-color:#F7D4C7"/>
				<stop  offset="0.3709" style="stop-color:#EEB8A2"/>
				<stop  offset="0.4975" style="stop-color:#EAAD94"/>
				<stop  offset="1" style="stop-color:#EAA492"/>
			</linearGradient>
			<path fill="url(#SVGID_4_)" d="M564.041,532.508c0,0-4.839-0.541-9.32-17.33c-0.614-2.302-0.367-4.962,0.537-7.842
				c10.155-9.755,21.025-17.485,25.69-18.414c10.389-2.067,26.568,9.301,34.081,12.65c-1.983-0.001-6.48,1.846-10.353,9.241
				c4.212-4.011,12.18-3.592,16.919-1.695c-3.037,1.479-4.865,4.352-10.613,27.625C594.883,544.055,574.356,538.7,564.041,532.508z"
				/>
		</g>
	</g>
	<g id="요리토끼_다리">
		<path fill="#EAAD94" d="M392.312,205.88c-48.863,0-46.684,77.318-43.181,161.424c14.626-13.682,31.937-35.871,42.736-45.885
			c0,0,24.97,11.417,33.38,21.963c3.149,3.949,3.981,7.775,0.307,10.835c-12.111,10.085-38.81,57.774-74.382,72.516
			c0.082,4.899,0.128,9.765,0.128,14.583c0,106.085,28.353,150.357,91.483,153.371c131.85,6.295,135.85-74.705,114.437-192.085
			C538.181,298.239,455.514,205.88,392.312,205.88z"/>
		<g>
			<path fill="#EAAD94" d="M338.807,713.158c3.9,0.018,8.268,0.012,12.875-0.015c-5.286-0.04-9.506-0.126-11.959-0.263
				C339.434,712.977,339.115,713.066,338.807,713.158z"/>
			<path fill="#EAA492" d="M280.918,704.571c0-25.144,80.989-36.496,111.882-42.095l1.084-5.058
				c-21.087-12.569-36.947-32.067-37.759-68.11c-0.716-31.708,19.322-69.494,45.377-75.875c-0.003-0.001-0.006-0.001-0.009-0.002
				c-33.061-8.129-61.553,38.175-60.701,75.878c0.813,36.043,16.672,55.542,37.759,68.11l-1.084,5.058
				c-30.894,5.599-111.882,16.951-111.882,42.095c0,6.527,18.699,8.58,25.475,8.038c6.55,2.807,16.072,3.157,24.016,2.213
				c-3.162-0.418-6.147-1.126-8.683-2.213C299.617,713.151,280.918,711.098,280.918,704.571z"/>
			<path fill="#EAAD94" d="M401.502,513.433c-26.055,6.382-46.093,44.167-45.377,75.875c0.813,36.043,16.672,55.542,37.759,68.11
				l-1.084,5.058c-30.894,5.599-111.882,16.951-111.882,42.095c0,6.527,18.699,8.58,25.475,8.038
				c2.535,1.086,5.521,1.795,8.683,2.213c8.246,1.09,17.7,0.142,23.732-1.664c0.308-0.092,0.627-0.182,0.916-0.278
				c2.453,0.137,6.673,0.223,11.959,0.263c24.221-0.143,54.969-0.898,58.212-2.16c1.752-0.682,12.917-7.317,14.423-16.624
				c0.663-4.783-2.771-9.662-0.875-14.811c1.897-5.149,2.729-19.109,2.729-19.109c21.086-12.567,36.022-43.414,36.022-71.13
				C462.195,551.598,434.054,521.442,401.502,513.433z"/>
		</g>
		<g>
			<path fill="#EAA492" d="M413.742,705.574c0-25.144,19.874-36.496,50.767-42.094l1.084-5.058
				c-21.086-12.568-36.946-32.068-37.758-68.11c-0.725-32.108,19.833-70.446,46.369-76.098
				c-32.633-6.964-60.544,38.777-59.702,76.098c0.813,36.042,16.672,55.542,37.758,68.11l-1.084,5.058
				c-30.893,5.599-50.767,16.95-50.767,42.094c0,5.358,12.597,7.7,20.858,8.067c-0.162-0.767-0.295-1.509-0.404-2.23
				C416.788,710.111,413.742,708.208,413.742,705.574z"/>
			<path fill="#EAAD94" d="M425.852,697.225c1.353-5.647-0.922-5.595-4.224,2.513c-1.046,2.568-1.546,6.521-0.764,11.673
				c1.481,0.472,3.096,0.864,4.753,1.183C424.517,709.104,424.054,704.734,425.852,697.225z"/>
			<path fill="#EAAD94" d="M475.203,514.434c-0.334-0.082-0.667-0.15-1-0.221c-26.536,5.652-47.094,43.99-46.369,76.098
				c0.813,36.042,16.672,55.542,37.758,68.11l-1.084,5.058c-30.893,5.599-50.767,16.95-50.767,42.094
				c0,2.634,3.046,4.537,7.121,5.837c-0.782-5.152-0.282-9.105,0.764-11.673c3.302-8.107,5.577-8.16,4.224-2.513
				c-1.798,7.509-1.335,11.879-0.235,15.368c0.112,0.358,0.229,0.709,0.354,1.051c6.247,2.647,15.147,3.076,22.82,2.293
				c1.563-0.16,3.078-0.365,4.505-0.617c-1.083-3.368-1.01-6.799-0.429-10.206c0.999-5.887,7.666-13.275,6.811-9.722
				c-1.961,8.149-3.034,12.902-0.545,18.515c0.026-0.008,0.057-0.016,0.083-0.025c2.635,0.147,4.977,0.235,7.087,0.27
				c3.08,0.051,5.647-0.015,7.858-0.188c4.05-0.316,6.903-0.991,9.444-1.979c1.751-0.681,12.917-7.316,14.423-16.623
				c0.663-4.783-2.771-9.662-0.874-14.81c1.897-5.15,2.729-19.111,2.729-19.111c21.086-12.566,36.022-43.413,36.022-71.13
				C535.905,552.597,507.759,522.438,475.203,514.434z"/>
		</g>
		<path fill="#E29479" d="M425.852,697.225c1.353-5.647-0.922-5.595-4.224,2.513c-1.192,2.927-1.677,7.651-0.36,13.903
			c1.803,0.08,3.402,0.068,4.616-0.029c0.027,0.012,0.059,0.021,0.086,0.033C424.633,709.971,423.869,705.504,425.852,697.225z"/>
		<path fill="#E29479" d="M291.926,699.315c2.5-2.486,1.75-3.333-2.208,0.042c-2.405,2.05-4.768,7.074-3.45,13.326
			c1.802,0.08,3.402,0.068,4.616-0.029c0.027,0.012,0.059,0.021,0.086,0.033C289.632,709.013,287.842,703.376,291.926,699.315z"/>
		<path fill="#E29479" d="M459.677,695.393c0.855-3.553-5.812,3.835-6.811,9.722c-0.581,3.407-0.653,6.837,0.429,10.206
			c2.178-0.385,4.168-0.862,5.836-1.413C456.643,708.295,457.716,703.542,459.677,695.393z"/>
	</g>
	<g id="요리토끼_오른팔">
		<g>
			<g>
				<path fill="none" d="M193.537,345.116c-0.003-0.005-0.006-0.009-0.01-0.013c-0.059,0.053-0.12,0.105-0.179,0.159
					C193.412,345.208,193.476,345.155,193.537,345.116z"/>
				<path fill="#EAAD94" d="M226.961,324.775c-0.026,0.015-0.051,0.032-0.077,0.047c6.359,3.059,6.398,5.728,5.15,4.628
					c-2.075-1.829-4.153-3.044-6.188-3.897c-0.006,0.005-0.012,0.009-0.018,0.014c-0.004,0.004-0.009,0.006-0.014,0.011
					c-6.775-2.814-17.212-1.878-20.734,2.15c-0.22,0.251-0.405,0.518-0.572,0.792c12.047-1.462,14.476,2.339,11.951,1.839
					c-4.773-0.947-8.891-0.757-12.585-0.055c0,0.005-0.002,0.01-0.003,0.015c-0.066,0.027-0.133,0.081-0.205,0.091
					c-6.675,1.026-12.248,7.274-11.274,12.299c0.005,0.026,0.015,0.051,0.02,0.077c1.778-1.198,3.77-1.97,5.852-2.511
					c4.643-1.203,10.692-0.209,7.807,0.334c-5.827,1.095-9.498,1.826-12.543,4.492c0.004,0.004,0.006,0.008,0.01,0.013
					c-0.061,0.039-0.125,0.092-0.189,0.146c-0.096,0.087-0.19,0.183-0.284,0.274c-1.241,1.34-2.768,4.898-2.507,8.891
					c0.032,0.281,0.071,0.562,0.115,0.841c0.734,4.65,3.126,8.931,12.287,12.295c17.802,5.617,22.368,6.002,36.874,5.896
					l0.683-1.037c0.045,0.003,0.104,0.006,0.148,0.009l18.339-22.74C254.258,335.126,235.193,320.223,226.961,324.775z"/>
				<path fill="#E29479" d="M204.509,328.521c-0.335,0.548-0.565,1.138-0.634,1.784c3.694-0.702,7.812-0.892,12.585,0.055
					C218.985,330.859,216.556,327.059,204.509,328.521z"/>
				<path fill="#E29479" d="M226.884,324.823c-0.366,0.208-0.717,0.441-1.038,0.731c2.035,0.853,4.112,2.068,6.188,3.897
					C233.283,330.55,233.243,327.882,226.884,324.823z"/>
				<path fill="#E29479" d="M193.34,345.268c-0.09,0.075-0.182,0.167-0.276,0.269c0.094-0.091,0.188-0.188,0.284-0.274
					C193.345,345.264,193.343,345.266,193.34,345.268z"/>
				<path fill="#E29479" d="M193.527,345.103c3.045-2.666,6.716-3.396,12.543-4.492c2.886-0.543-3.164-1.538-7.807-0.334
					c-2.082,0.541-4.073,1.313-5.852,2.511C192.576,343.567,192.92,344.344,193.527,345.103z"/>
			</g>
			<path fill="#E29479" d="M212.749,366.998c-4.924-1.023-20.652-4.489-22.076-11.729c0.734,4.65,3.126,8.931,12.287,12.295
				c17.802,5.617,22.368,6.002,36.874,5.896l3.342-5.08C239.294,368.078,217.111,367.905,212.749,366.998z"/>
		</g>
		<g>
			<path fill="#D3E5E4" d="M410.627,330.835c-14.82,9.411-53.576,62.785-95.93,64.402c-17.942,0.686-64.499-18.681-74.783-25.487
				c-3.442,4.222-4.111,5.63-3.506,7.01c1.788,4.084,56.879,27.984,76.774,27.224c42.354-1.618,81.109-54.992,95.929-64.402
				c3.501-2.223,3.715-5.453,2.005-9.088C410.959,330.609,410.802,330.725,410.627,330.835z"/>
			<path fill="#F5FCFC" d="M314.698,395.238c42.354-1.618,81.109-54.992,95.93-64.402c0.174-0.11,0.332-0.226,0.49-0.341
				c-5.53-11.755-31.207-27.76-31.207-27.76c-14.183,10.105-34.25,39.538-51.394,49.11c-12.122,6.769-42.117-0.696-68.688-11.27
				c-4.695-1.868-0.896,6.785-11.765,19.545c-3.667,4.305-6.304,7.371-8.148,9.632C250.199,376.557,296.756,395.923,314.698,395.238
				z"/>
		</g>
	</g>
	<g id="요리_도구">
		<g>
			<path fill="#844B12" d="M225.209,390.459l-4.112-1.585c1.089,0.61,1.599,1.935,1.137,3.133l-15.596,40.454l-0.918,2.38
				l-0.458,1.188c-3.293,8.543-12.888,12.799-21.433,9.505l-1.188-0.458l-2.38-0.917l-12.547-4.837
				c0.105,0.06,0.21,0.12,0.326,0.165l16.659,6.422l2.38,0.917l1.188,0.458c8.545,3.294,18.139-0.962,21.433-9.505l0.458-1.188
				l0.918-2.38l15.596-40.454C227.179,392.442,226.524,390.966,225.209,390.459z"/>
			
				<rect x="162.94" y="312.413" transform="matrix(-0.3597 0.9331 -0.9331 -0.3597 617.5522 205.8242)" fill="#844B12" width="150.433" height="4.77"/>
			<path fill="#844B12" d="M221.098,388.874c-0.105-0.059-0.21-0.12-0.326-0.165l-7.447-2.871l-0.013,0.034L221.098,388.874z"/>
			<path fill="#A56021" d="M182.641,445.076l1.188,0.458c8.545,3.294,18.139-0.962,21.433-9.505l0.458-1.188l0.918-2.38
				l15.596-40.454c0.462-1.199-0.048-2.523-1.137-3.133l-7.786-3.001l0.013-0.034l-4.451-1.716l54.114-140.363l-5.065-1.953
				l-54.127,140.398l-11.9-4.588c-1.313-0.506-2.791,0.147-3.298,1.462l-7.339,19.038l-9.173,23.793l-5.505,14.28
				c-0.462,1.199,0.048,2.522,1.134,3.132l12.547,4.837L182.641,445.076z"/>
		</g>
		<g>
			<path fill="#8E899B" d="M245.972,396.619h-33.44c2.667,0,4.827,2.163,4.827,4.827v7.238c0,2.667-2.161,4.827-4.827,4.827h-0.119
				c-1.72,35.355-22.234,65.773-51.761,81.49v6.582c0,2.667-2.163,4.827-4.831,4.827h33.441c2.667,0,4.83-2.161,4.83-4.827V495
				c29.527-15.716,50.041-46.135,51.761-81.49h0.119c2.667,0,4.827-2.16,4.827-4.827v-7.238
				C250.799,398.781,248.639,396.619,245.972,396.619z"/>
			<path fill="#A5A0AF" d="M160.652,501.583V495c29.527-15.716,50.041-46.135,51.761-81.49h0.119c2.667,0,4.827-2.16,4.827-4.827
				v-7.238c0-2.665-2.161-4.827-4.827-4.827H50.512c-2.667,0-4.827,2.163-4.827,4.827v7.238c0,2.667,2.16,4.827,4.827,4.827h0.118
				c1.721,35.357,22.234,65.773,51.762,81.49v6.582c0,2.667,2.163,4.827,4.827,4.827h48.602
				C158.489,506.41,160.652,504.249,160.652,501.583z"/>
		</g>
		<g>
			<path fill="#D8A96A" d="M300.13,281.611c14.045-13.598,20.933-29.361,17.213-33.901c-5.956-0.952-18.741,6.406-31.046,18.318
				c-14.045,13.6-22.197,28.031-18.479,32.571C273.774,299.549,287.825,293.524,300.13,281.611z"/>
			<path fill="#A5641C" d="M319.655,248.794c-0.571-0.59-1.363-0.933-2.313-1.084c3.72,4.54-4.164,19.757-18.209,33.355
				c-12.305,11.913-25.359,18.484-31.315,17.534c0.059,0.072,0.11,0.148,0.175,0.214c4.158,4.294,20.983-1.238,35.25-15.05
				S323.813,253.088,319.655,248.794z"/>
		</g>
		<path fill="#8E462F" d="M291.53,276.562l0.286,0.04l0.285-2.031c0.03-0.217,0.231-0.37,0.45-0.339l2.993,0.42l0.075-0.534
			c0.031-0.218-0.121-0.419-0.339-0.45l-3.279-0.46c-0.218-0.031-0.419,0.122-0.451,0.339l-0.36,2.564
			C291.161,276.329,291.313,276.531,291.53,276.562z"/>
		<path fill="#8E462F" d="M281.933,275.075l0.287,0.04l0.285-2.031c0.03-0.218,0.231-0.37,0.45-0.339l2.993,0.42l0.076-0.534
			c0.03-0.217-0.122-0.419-0.339-0.45l-3.28-0.46c-0.218-0.031-0.419,0.122-0.45,0.339l-0.36,2.565
			C281.563,274.842,281.714,275.044,281.933,275.075z"/>
		<path fill="#8E462F" d="M290.698,269.838l0.111,0.016l0.469-3.345c0.044-0.314,0.335-0.534,0.65-0.49l4.625,0.649l0.051-0.358
			c0.044-0.315-0.175-0.606-0.491-0.65l-4.736-0.665c-0.314-0.044-0.604,0.176-0.649,0.49l-0.52,3.704
			C290.164,269.502,290.382,269.794,290.698,269.838z"/>
		<path fill="#8E462F" d="M304.146,267.888l0.286,0.041l0.285-2.031c0.03-0.217,0.231-0.37,0.45-0.339l2.993,0.42l0.074-0.534
			c0.031-0.218-0.121-0.419-0.339-0.45l-3.279-0.46c-0.218-0.031-0.419,0.122-0.45,0.339l-0.36,2.565
			C303.776,267.656,303.928,267.858,304.146,267.888z"/>
		<path fill="#8E462F" d="M284.496,282.395l0.178,0.024l0.398-2.837c0.039-0.278,0.295-0.471,0.573-0.432l3.994,0.561l0.06-0.426
			c0.039-0.277-0.154-0.534-0.432-0.573l-4.173-0.585c-0.277-0.039-0.534,0.155-0.573,0.432l-0.458,3.263
			C284.025,282.098,284.218,282.355,284.496,282.395z"/>
		<path fill="#8E462F" d="M297.908,268.512l-0.611,4.355c-0.052,0.37,0.206,0.713,0.576,0.765l0.011,0.001l0.575-4.098
			c0.052-0.37,0.395-0.628,0.764-0.576l5.56,0.78l0.036-0.258c0.053-0.37-0.207-0.713-0.576-0.765l-5.57-0.782
			C298.302,267.883,297.96,268.142,297.908,268.512z"/>
		<path fill="#5E220D" d="M292.102,274.57l-0.285,2.031l2.994,0.42c0.218,0.03,0.419-0.122,0.45-0.339l0.285-2.031l-2.993-0.42
			C292.333,274.201,292.132,274.353,292.102,274.57z"/>
		<path fill="#5E220D" d="M282.504,273.084l-0.285,2.031l2.993,0.42c0.218,0.031,0.419-0.122,0.45-0.339l0.284-2.031l-2.993-0.42
			C282.736,272.714,282.535,272.866,282.504,273.084z"/>
		<path fill="#5E220D" d="M291.277,266.509l-0.469,3.345l4.625,0.649c0.315,0.044,0.606-0.176,0.65-0.489l0.469-3.346l-4.625-0.649
			C291.612,265.975,291.322,266.195,291.277,266.509z"/>
		<path fill="#5E220D" d="M304.717,265.897l-0.285,2.031l2.993,0.42c0.218,0.031,0.419-0.122,0.45-0.339l0.285-2.031l-2.993-0.42
			C304.949,265.528,304.748,265.68,304.717,265.897z"/>
		<path fill="#5E220D" d="M285.072,279.582l-0.398,2.837l3.995,0.561c0.277,0.039,0.533-0.155,0.572-0.432l0.398-2.837l-3.994-0.561
			C285.368,279.111,285.111,279.304,285.072,279.582z"/>
		<path fill="#5E220D" d="M298.458,269.536l-0.575,4.098l5.559,0.781c0.37,0.052,0.712-0.207,0.764-0.577l0.575-4.098l-5.56-0.78
			C298.853,268.908,298.51,269.167,298.458,269.536z"/>
		<path fill="#D8A96A" d="M290.898,273.096c1.225-1.597,1.71-1.578,2.574-2.247s1.03,0.122,1.843-1.92s2.926-1.239,2.515-0.557
			s-4.06,5.135-6.578,5.474S290.598,273.488,290.898,273.096z"/>
		<path fill="#D8A96A" d="M279.897,278.916c1.225-1.597,1.71-1.578,2.574-2.247s1.03,0.122,1.843-1.92s2.926-1.239,2.515-0.557
			s-4.06,5.135-6.578,5.474S279.596,279.308,279.897,278.916z"/>
		<path fill="#D8A96A" d="M291.147,279.103c1.225-1.597,1.71-1.578,2.574-2.247s1.03,0.122,1.843-1.92s2.926-1.239,2.515-0.557
			s-4.06,5.135-6.578,5.474S290.846,279.495,291.147,279.103z"/>
		<path fill="#D8A96A" d="M298.829,277.217c1.225-1.597,1.71-1.578,2.574-2.247s1.03,0.122,1.843-1.92s2.926-1.239,2.515-0.557
			s-4.06,5.135-6.578,5.474S298.527,277.609,298.829,277.217z"/>
		<path fill="#D8A96A" d="M296.818,277.626c1.225-1.597,1.71-1.578,2.574-2.247c0.863-0.669-1.446,0.296-0.633-1.745
			s5.402-1.414,4.991-0.731s-4.06,5.135-6.578,5.474S296.518,278.018,296.818,277.626z"/>
		<path fill="#D8A96A" d="M306.11,268.328c1.225-1.597,1.71-1.578,2.574-2.247c0.863-0.669,1.03,0.122,1.843-1.92
			s2.926-1.239,2.515-0.557s-4.06,5.135-6.578,5.474S305.81,268.72,306.11,268.328z"/>
		<path fill="#D8A96A" d="M283.493,284.733c1.225-1.597,1.71-1.578,2.574-2.247s1.03,0.122,1.843-1.92s2.926-1.239,2.515-0.557
			s-4.06,5.135-6.578,5.474S283.192,285.125,283.493,284.733z"/>
		<path fill="#8E462F" d="M288.327,283.866l0.286,0.04l0.285-2.031c0.03-0.217,0.231-0.37,0.45-0.339l2.993,0.42l0.075-0.534
			c0.031-0.218-0.121-0.419-0.339-0.45l-3.279-0.46c-0.218-0.031-0.419,0.122-0.451,0.339l-0.36,2.564
			C287.958,283.634,288.109,283.835,288.327,283.866z"/>
		<path fill="#5E220D" d="M288.898,281.875l-0.285,2.031l2.994,0.42c0.218,0.03,0.419-0.122,0.45-0.339l0.285-2.031l-2.993-0.42
			C289.13,281.505,288.929,281.658,288.898,281.875z"/>
		<path fill="#D8A96A" d="M288.613,285.232c1.225-1.597,1.71-1.578,2.574-2.247s1.03,0.122,1.842-1.92
			c0.813-2.042,2.927-1.239,2.516-0.557s-4.06,5.135-6.578,5.474S288.313,285.624,288.613,285.232z"/>
		<g>
			<path fill="#EFEBD3" d="M145.884,385.482c-0.561,0-1.109,0.042-1.648,0.108c2.448,1.699,4.006,4.238,4.006,7.08
				c0,5.114-5.037,9.26-11.25,9.26c-1.83,0-3.552-0.367-5.079-1.005c-3.991,8.176-14.088,13.985-25.921,13.985
				c-3.063,0-6.006-0.395-8.76-1.113c0.322,0.994,0.51,2.034,0.51,3.113c0,6.432-6.119,11.667-13.8,11.971
				c2.331,1.324,5.15,2.102,8.191,2.102c8.008,0,14.5-5.373,14.5-12c0-1.079-0.188-2.119-0.51-3.113
				c2.754,0.718,5.698,1.113,8.76,1.113c11.833,0,21.93-5.809,25.921-13.985c1.527,0.638,3.249,1.005,5.079,1.005
				c6.213,0,11.25-4.146,11.25-9.26S152.097,385.482,145.884,385.482z"/>
			<g>
				<path fill="#FCFAEB" d="M84.189,427.867c-3.484-2.074-5.556-5.377-5.556-8.885c0-2.046,0.71-4.054,2.054-5.807l1.212-1.581
					l-1.992-0.028c-9.249-0.128-16.774-7.883-16.774-17.286c0-9.391,7.235-16.977,16.472-17.27c0.094-0.003,0.186-0.009,0.277-0.016
					c0.085-0.006,0.171-0.013,0.258-0.013c2.192,0,4.35,0.437,6.413,1.298c2.254,0.94,4.237,2.314,5.895,4.085l0.7,0.748
					l0.731-0.719c5.119-5.034,12.774-7.921,21.004-7.921c0.972,0,2.003,0.051,3.148,0.157c5.656,2.221,10.126,5.925,12.596,10.439
					l0.448,0.819l0.848-0.391c1.543-0.712,3.296-1.088,5.068-1.088c0.382,0,0.758,0.02,1.13,0.053
					c2.051,0.182,3.967,0.855,5.543,1.949c2.273,1.577,3.577,3.858,3.577,6.258c0,4.555-4.598,8.26-10.25,8.26
					c-1.641,0-3.22-0.312-4.693-0.928l-0.871-0.364l-0.414,0.848c-3.919,8.029-13.975,13.423-25.022,13.423
					c-2.896,0-5.759-0.363-8.508-1.081l-1.767-0.46l0.563,1.737c0.306,0.944,0.461,1.888,0.461,2.804
					C96.742,422.699,91.252,427.468,84.189,427.867z"/>
				<path fill="#EFEBD3" d="M114.884,375.473c0.901,0,1.857,0.046,2.914,0.14c5.376,2.141,9.614,5.662,11.952,9.937l0.896,1.638
					l1.696-0.782c1.413-0.651,3.021-0.996,4.649-0.996c0.332,0,0.672,0.016,1.042,0.049c1.877,0.167,3.627,0.78,5.061,1.774
					c2,1.388,3.146,3.37,3.146,5.437c0,4.003-4.149,7.26-9.25,7.26c-1.508,0-2.957-0.286-4.308-0.851l-1.741-0.728l-0.828,1.695
					c-3.755,7.693-13.45,12.862-24.124,12.862c-2.811,0-5.589-0.353-8.256-1.048l-3.533-0.921l1.126,3.473
					c0.274,0.845,0.413,1.685,0.413,2.496c0,5.173-4.919,9.453-11.302,9.939c-3.021-1.898-4.807-4.803-4.807-7.867
					c0-1.824,0.639-3.622,1.848-5.198l2.424-3.162l-3.983-0.055c-8.706-0.121-15.788-7.426-15.788-16.286
					c0-8.848,6.81-15.995,15.507-16.271c0.105-0.003,0.209-0.011,0.313-0.018c0.062-0.004,0.124-0.01,0.188-0.01
					c2.06,0,4.087,0.411,6.028,1.221c2.123,0.886,3.99,2.179,5.549,3.845l1.401,1.497l1.461-1.438
					C99.514,378.256,106.914,375.473,114.884,375.473 M114.884,373.473c-8.791,0-16.621,3.208-21.705,8.208
					c-1.741-1.859-3.867-3.334-6.239-4.324c-2.098-0.876-4.388-1.375-6.798-1.375c-0.191,0-0.377,0.023-0.567,0.029
					c-9.681,0.307-17.44,8.358-17.44,18.27c0,10.021,7.931,18.15,17.76,18.286c-1.424,1.857-2.26,4.053-2.26,6.415
					c0,4.111,2.501,7.736,6.309,9.898c7.681-0.304,13.8-5.539,13.8-11.971c0-1.079-0.188-2.119-0.51-3.113
					c2.754,0.718,5.698,1.113,8.76,1.113c11.833,0,21.93-5.809,25.921-13.985c1.527,0.638,3.249,1.005,5.079,1.005
					c6.213,0,11.25-4.146,11.25-9.26c0-2.842-1.559-5.381-4.006-7.08c-1.666-1.156-3.742-1.921-6.025-2.124
					c-0.401-0.036-0.807-0.057-1.219-0.057c-1.994,0-3.863,0.431-5.487,1.18c-2.608-4.768-7.332-8.652-13.24-10.942
					C117.155,373.542,116.03,373.473,114.884,373.473L114.884,373.473z"/>
			</g>
		</g>
		<g>
			<path fill="#EFEBD3" d="M98.105,486.074c-0.451-8.558-6.521-15.342-13.964-15.342c-0.065,0-0.129,0.01-0.194,0.011
				c0.727-2.153,1.143-4.459,1.143-6.873c0-10.702-7.776-19.499-17.732-20.534c5.325,3.694,8.841,10.02,8.841,17.211
				c0,2.414-0.416,4.72-1.143,6.873c0.065-0.001,0.128-0.011,0.194-0.011c7.443,0,13.513,6.784,13.964,15.342
				c7.98,2.738,13.528,8.778,13.528,15.796c0,9.589-10.353,17.362-23.123,17.362c-4.963,0-9.556-1.178-13.323-3.176
				c-3.76,4.082-9.325,6.676-15.55,6.676c-2.853,0-5.568-0.545-8.037-1.527c-3.75,4.423-12.282,7.515-22.215,7.515
				c-3.319,0-6.482-0.346-9.364-0.971c4.446,2.63,10.973,4.293,18.255,4.293c9.933,0,18.465-3.091,22.215-7.515
				c2.469,0.981,5.184,1.527,8.037,1.527c6.225,0,11.79-2.595,15.55-6.676c3.767,1.999,8.36,3.176,13.323,3.176
				c12.771,0,23.123-7.773,23.123-17.362C111.634,494.852,106.085,488.812,98.105,486.074z"/>
			<g>
				<path fill="#FCFAEB" d="M20.494,524.397c-3.113,0-6.137-0.308-8.993-0.914c-3.463-2.086-5.368-4.679-5.368-7.313
					c0-6.261,10.648-11.55,23.252-11.55c0.402,0,0.801,0.006,1.198,0.016l2.075,0.053l-1.252-1.655
					c-2.141-2.832-3.273-6.046-3.273-9.296c0-8.971,8.55-16.798,20.331-18.612l1.412-0.217l-0.688-1.252
					c-1.638-2.981-2.503-6.365-2.503-9.785c0-10.829,8.39-19.638,18.703-19.638c0.527,0,1.068,0.025,1.61,0.074
					c5.14,3.67,8.201,9.721,8.201,16.242c0,2.206-0.367,4.411-1.09,6.553l-0.453,1.341l1.45-0.021c0,0,0.128-0.009,0.129-0.009
					c6.863,0,12.555,6.322,12.98,14.393l0.036,0.674l0.638,0.219c7.808,2.679,12.853,8.508,12.853,14.85
					c0,9.022-9.924,16.362-22.123,16.362c-4.637,0-9.082-1.058-12.854-3.06l-0.682-0.362l-0.522,0.567
					c-3.72,4.038-9.119,6.354-14.814,6.354c-2.658,0-5.237-0.49-7.667-1.456l-0.668-0.266l-0.464,0.548
					C38.259,521.586,29.838,524.397,20.494,524.397z"/>
				<path fill="#EFEBD3" d="M65.388,445.232c0.41,0,0.828,0.016,1.25,0.047c4.745,3.497,7.562,9.165,7.562,15.269
					c0,2.097-0.349,4.194-1.038,6.233l-0.906,2.683l2.831-0.042c0.067-0.001,0.134-0.005,0.21-0.011
					c6.292,0.03,11.523,5.925,11.92,13.447l0.071,1.349l1.277,0.438c7.397,2.538,12.177,7.996,12.177,13.904
					c0,8.471-9.476,15.362-21.123,15.362c-4.474,0-8.757-1.018-12.386-2.943l-1.363-0.723l-1.045,1.135
					c-3.531,3.833-8.663,6.031-14.079,6.031c-2.53,0-4.986-0.466-7.298-1.385l-1.335-0.531l-0.929,1.096
					c-3.452,4.072-11.767,6.808-20.689,6.808c-2.982,0-5.881-0.289-8.62-0.857c-3.06-1.88-4.741-4.135-4.741-6.37
					c0-5.095,8.941-10.55,22.252-10.55c0.393,0,0.784,0.006,1.173,0.016l4.15,0.105l-2.504-3.311
					c-2.009-2.656-3.071-5.662-3.071-8.692c0-8.474,8.194-15.886,19.483-17.624l2.824-0.435l-1.376-2.505
					c-1.557-2.834-2.38-6.051-2.38-9.303C47.686,453.593,55.627,445.232,65.388,445.232 M65.388,443.232
					c-10.881,0-19.703,9.24-19.703,20.638c0,3.742,0.965,7.24,2.627,10.266c-12.085,1.861-21.179,9.929-21.179,19.601
					c0,3.603,1.268,6.979,3.476,9.899c-0.405-0.01-0.813-0.016-1.224-0.016c-13.394,0-24.252,5.619-24.252,12.55
					c0,3.163,2.266,6.05,5.997,8.257c2.881,0.625,6.044,0.971,9.364,0.971c9.933,0,18.465-3.091,22.215-7.515
					c2.469,0.981,5.184,1.527,8.037,1.527c6.225,0,11.79-2.595,15.55-6.676c3.767,1.999,8.36,3.176,13.323,3.176
					c12.771,0,23.123-7.773,23.123-17.362c0-7.018-5.548-13.058-13.528-15.796c-0.451-8.558-6.521-15.342-13.964-15.342
					c-0.065,0-0.129,0.01-0.194,0.011c0.727-2.153,1.143-4.459,1.143-6.873c0-7.192-3.516-13.517-8.841-17.211
					C66.71,443.269,66.053,443.232,65.388,443.232L65.388,443.232z"/>
			</g>
		</g>
		<path fill="#C9996D" d="M0,519.848c0,7.409,6.062,13.471,13.47,13.471v45.125c0,7.409,6.062,13.471,13.471,13.471h6.734v124.375
			h26.94V591.914h161.913v124.375h26.941V591.914h6.736c7.408,0,13.47-6.062,13.47-13.471v-45.125c7.409,0,13.47-6.062,13.47-13.471
			c0-7.408-6.062-13.47-13.47-13.47h-13.47H26.939H13.47C6.061,506.378,0,512.439,0,519.848z M40.41,564.3v-31.655h202.324V564.3
			H40.41L40.41,564.3z"/>
	</g>
	<g id="요리토끼수염_오">
		<g>
			
				<linearGradient id="SVGID_5_" gradientUnits="userSpaceOnUse" x1="-708.4702" y1="233.0513" x2="-645.6543" y2="233.0513" gradientTransform="matrix(-1 0 0 1 -458.3994 0)">
				<stop  offset="0" style="stop-color:#666666"/>
				<stop  offset="0.1916" style="stop-color:#6A6867;stop-opacity:0.8084"/>
				<stop  offset="0.3642" style="stop-color:#756E6B;stop-opacity:0.6358"/>
				<stop  offset="0.5294" style="stop-color:#877871;stop-opacity:0.4706"/>
				<stop  offset="0.6902" style="stop-color:#A1867A;stop-opacity:0.3098"/>
				<stop  offset="0.8461" style="stop-color:#C29786;stop-opacity:0.1539"/>
				<stop  offset="1" style="stop-color:#EAAD94;stop-opacity:0"/>
			</linearGradient>
			<path fill="none" stroke="url(#SVGID_5_)" stroke-width="0.25" stroke-miterlimit="10" d="M250.037,236.066
				c-19.093-5.35-47.931-7.102-62.768-5.397"/>
			
				<linearGradient id="SVGID_6_" gradientUnits="userSpaceOnUse" x1="-708.5774" y1="235.105" x2="-651.4863" y2="235.105" gradientTransform="matrix(-1 0 0 1 -458.3994 0)">
				<stop  offset="0" style="stop-color:#666666"/>
				<stop  offset="0.1916" style="stop-color:#6A6867;stop-opacity:0.8084"/>
				<stop  offset="0.3642" style="stop-color:#756E6B;stop-opacity:0.6358"/>
				<stop  offset="0.5294" style="stop-color:#877871;stop-opacity:0.4706"/>
				<stop  offset="0.6902" style="stop-color:#A1867A;stop-opacity:0.3098"/>
				<stop  offset="0.8461" style="stop-color:#C29786;stop-opacity:0.1539"/>
				<stop  offset="1" style="stop-color:#EAAD94;stop-opacity:0"/>
			</linearGradient>
			<path fill="none" stroke="url(#SVGID_6_)" stroke-width="0.25" stroke-miterlimit="10" d="M250.14,238.983
				c-18.871-6.084-42.151-8.617-57.043-7.489"/>
			
				<linearGradient id="SVGID_7_" gradientUnits="userSpaceOnUse" x1="-710.8809" y1="237.9868" x2="-649.438" y2="237.9868" gradientTransform="matrix(-1 0 0 1 -458.3994 0)">
				<stop  offset="0" style="stop-color:#666666"/>
				<stop  offset="0.1916" style="stop-color:#6A6867;stop-opacity:0.8084"/>
				<stop  offset="0.3642" style="stop-color:#756E6B;stop-opacity:0.6358"/>
				<stop  offset="0.5294" style="stop-color:#877871;stop-opacity:0.4706"/>
				<stop  offset="0.6902" style="stop-color:#A1867A;stop-opacity:0.3098"/>
				<stop  offset="0.8461" style="stop-color:#C29786;stop-opacity:0.1539"/>
				<stop  offset="1" style="stop-color:#EAAD94;stop-opacity:0"/>
			</linearGradient>
			<path fill="none" stroke="url(#SVGID_7_)" stroke-width="0.25" stroke-miterlimit="10" d="M252.462,239.891
				c-19.598-3.009-46.871-5.628-61.395-2.147"/>
			
				<linearGradient id="SVGID_8_" gradientUnits="userSpaceOnUse" x1="-709.9626" y1="246.3257" x2="-647.4673" y2="246.3257" gradientTransform="matrix(-1 0 0 1 -458.3994 0)">
				<stop  offset="0" style="stop-color:#666666"/>
				<stop  offset="0.1916" style="stop-color:#6A6867;stop-opacity:0.8084"/>
				<stop  offset="0.3642" style="stop-color:#756E6B;stop-opacity:0.6358"/>
				<stop  offset="0.5294" style="stop-color:#877871;stop-opacity:0.4706"/>
				<stop  offset="0.6902" style="stop-color:#A1867A;stop-opacity:0.3098"/>
				<stop  offset="0.8461" style="stop-color:#C29786;stop-opacity:0.1539"/>
				<stop  offset="1" style="stop-color:#EAAD94;stop-opacity:0"/>
			</linearGradient>
			<path fill="none" stroke="url(#SVGID_8_)" stroke-width="0.25" stroke-miterlimit="10" d="M251.551,242.653
				c-19.73-1.962-48.129,3.515-62.447,7.762"/>
			
				<linearGradient id="SVGID_9_" gradientUnits="userSpaceOnUse" x1="-708.7495" y1="241.2476" x2="-641.8354" y2="241.2476" gradientTransform="matrix(-1 0 0 1 -458.3994 0)">
				<stop  offset="0" style="stop-color:#666666"/>
				<stop  offset="0.1916" style="stop-color:#6A6867;stop-opacity:0.8084"/>
				<stop  offset="0.3642" style="stop-color:#756E6B;stop-opacity:0.6358"/>
				<stop  offset="0.5294" style="stop-color:#877871;stop-opacity:0.4706"/>
				<stop  offset="0.6902" style="stop-color:#A1867A;stop-opacity:0.3098"/>
				<stop  offset="0.8461" style="stop-color:#C29786;stop-opacity:0.1539"/>
				<stop  offset="1" style="stop-color:#EAAD94;stop-opacity:0"/>
			</linearGradient>
			<path fill="none" stroke="url(#SVGID_9_)" stroke-width="0.25" stroke-miterlimit="10" d="M250.337,237.221
				c-19.723-2.029-52.534,4.253-66.866,8.451"/>
		</g>
	</g>
	<g id="요리토끼_머리">
		<path fill="#F2D0B6" d="M452.467,17.315c30.833-20-3.167,106.333-32.833,122.333c-12.571,6.78-1.405,19.858-12.529,29.788
			c-11.124,9.93-9.49,13.535-18.758,17.356c-9.269,3.821-39.943-53.319-15.241-71.807c12.969-9.706,24.706-38.655,41.059-61.005
			C428.959,33.762,448.875,19.645,452.467,17.315z"/>
		<path fill="#F2D0B6" d="M284.884,8.482c-4.25-12.5,1.5,45.25,13.94,66.944c7.104,12.39,1.254,24.007,9.31,36.556
			c8.055,12.548-0.154,24.142,7.75,30.309c7.905,6.166,56.093,14.874,37.25-9.559c-9.893-12.827-18.236-38.084-28-64
			C316.301,45.287,286.262,12.535,284.884,8.482z"/>
		<path fill="#EAAD94" d="M310.134,135.482c-16.738,15.036-43,32.5-50.5,54s-6,21.167-11,28s-8.833,28.333-3.167,33.833
			s5.167,7.167,9,7.5c-0.333,1.333-0.167,0.5,0.667,2.833s9.454,7.489,19.833,7.25c10.92-0.251,18.333,1.417,24.833-1.583
			s16.344-12.945,15.01-9.778c-1.779,4.225-0.39,13.706-8.619,22.733c-3.034,3.328,7.775,0.045,8.941,2.712s32.334,3,41.667-4.833
			s25.167-25.334,31.333-30.5s33-25.667,24.667-43.167s-12.333-22.666-9.833-25.833s-12.083-20.042-6.833-30.542
			s0.625-25.375,5.5-32s0.875-15,6.875-21.875s3.875-23.25,9.125-29.375s-4.692-5.403,18.058-25.903s9.933-18.222,23.558-22.847
			c3.577-1.214-7.365-3.875-13.99,3.375c-2.877,3.148-35.125,31.75-45.125,42s-16,15.75-19.75,21.5s-24.75,40.25-27.25,44.25
			c1-5.75,3-21.75-2.5-31.75s-18-35.25-25.25-43.25s-27.75-29.625-32.5-37.938s-9.5-18.063-12.75-12.813s2,20.75,5.75,28.25
			s12.5,25.5,16,35s13,32.75,18,40S324.884,122.232,310.134,135.482z"/>
		
			<linearGradient id="SVGID_10_" gradientUnits="userSpaceOnUse" x1="-759.6404" y1="235.2676" x2="-731.8209" y2="272.2598" gradientTransform="matrix(-1 0 0 1 -458.2324 0)">
			<stop  offset="0" style="stop-color:#EAAD94"/>
			<stop  offset="0.2534" style="stop-color:#ECB49D"/>
			<stop  offset="0.6736" style="stop-color:#F3C8B7"/>
			<stop  offset="1" style="stop-color:#F9DACF"/>
		</linearGradient>
		<path fill="url(#SVGID_10_)" d="M308.509,238.857c5.591,2.334,7.5,16.813,4.5,19.375c-2.872,2.453-11.25,14-44.292,9.65
			c-8.799-1.158-12.299-6.91-13.012-8.983c-1.375-3.995,16.748-13.167,29.188-26.917
			C293.734,231.221,302.917,236.523,308.509,238.857z"/>
		<linearGradient id="SVGID_11_" gradientUnits="userSpaceOnUse" x1="254.0669" y1="254.5718" x2="275.0565" y2="206.6257">
			<stop  offset="0" style="stop-color:#D36E4A"/>
			<stop  offset="0.1532" style="stop-color:#DD896A"/>
			<stop  offset="0.3044" style="stop-color:#E49D81"/>
			<stop  offset="0.4456" style="stop-color:#E8A98F"/>
			<stop  offset="0.5665" style="stop-color:#EAAD94"/>
		</linearGradient>
		<path fill="url(#SVGID_11_)" d="M283.2,210.099c-1.079-5.962-28.305-6.328-29.518-2.574
			c-3.298,10.208-11.031,13.208-11.009,34.548c0.01,9.75,7.339,14.768,9.211,15.91c3.606,2.201,22.375-12.5,32.959-23.342
			C287.484,226.169,284.278,216.061,283.2,210.099z"/>
		<path fill="#070301" d="M322.673,192.312c-6.588,5.76-4.14,13.8-4.74,17.22c2.7-0.54,8.099-0.262,12.42-0.419
			c3.3-0.121,5.58-3.9,7.2-6.601c1.62-2.7,1.26-8.28,0.9-12.064C336.113,190.623,329.262,186.551,322.673,192.312z"/>
		<circle fill="#4094D3" cx="326.943" cy="197.949" r="9.914"/>
		<circle fill="#1C4D6B" cx="326.943" cy="197.949" r="7.931"/>
		<path fill="#4F3527" d="M342.384,186.976c-3.25,0.244-12.766-5.411-21.917,2.589s-5.75,19.167-6.583,23.917
			c3.75-0.75,11.249-0.364,17.25-0.583c4.583-0.167,7.75-5.417,10-9.167S342.884,192.232,342.384,186.976z M337.553,202.511
			c-1.62,2.7-3.9,6.48-7.2,6.601c-4.321,0.157-9.72-0.121-12.42,0.419c0.6-3.42-1.849-11.46,4.74-17.22
			c6.589-5.76,13.44-1.688,15.78-1.864C338.813,194.231,339.173,199.812,337.553,202.511z"/>
		<circle fill="#E6F4FC" cx="330.718" cy="191.648" r="1.521"/>
		<path fill="#F281A4" d="M254.342,258.899c-2.25-0.125-5.125-0.75-2.25-2.625s4.5-2.75,6.375-2c-0.375,2.75-2.375,2.625-1.5,5.25
			s5.375,7.083,12.5,7.708s22.395-0.244,30.583-2.5c10.753-2.963,13.703-8.734,15.022-10.689c1.728-2.561,3.966-4.013,0.75,1.891
			c-3.522,6.464-13.129,11.942-19.983,12.922c-11.955,1.709-24.641,1.301-27.997,1.043
			C262.967,269.524,252.387,263.694,254.342,258.899z"/>
		<path fill="#EF6579" d="M254.343,258.899c-2.25-0.125-5.125-0.75-2.25-2.625s4.5-2.75,6.375-2
			C258.093,257.024,255.654,258.836,254.343,258.899z"/>
		<path fill="#F281A4" d="M315.128,255.482c-0.307,0.467-1.322,5.157-1.75,7.694s-2.716,11.938-5.925,15.29
			c-4.792,5.004-0.936,4.753,1.421,2.599c4.42-4.04,6.087-11.938,6.254-15.51S316.878,252.815,315.128,255.482z"/>
	</g>
	<g id="요리토끼수염_왼">
		<linearGradient id="SVGID_12_" gradientUnits="userSpaceOnUse" x1="267.9351" y1="234.2954" x2="330.7505" y2="234.2954">
			<stop  offset="0" style="stop-color:#666666"/>
			<stop  offset="0.1916" style="stop-color:#6A6867;stop-opacity:0.8084"/>
			<stop  offset="0.3642" style="stop-color:#756E6B;stop-opacity:0.6358"/>
			<stop  offset="0.5294" style="stop-color:#877871;stop-opacity:0.4706"/>
			<stop  offset="0.6902" style="stop-color:#A1867A;stop-opacity:0.3098"/>
			<stop  offset="0.8461" style="stop-color:#C29786;stop-opacity:0.1539"/>
			<stop  offset="1" style="stop-color:#EAAD94;stop-opacity:0"/>
		</linearGradient>
		<path fill="none" stroke="url(#SVGID_12_)" stroke-width="0.25" stroke-miterlimit="10" d="M267.969,237.311
			c19.093-5.35,47.931-7.102,62.768-5.397"/>
		<linearGradient id="SVGID_13_" gradientUnits="userSpaceOnUse" x1="267.8276" y1="236.3491" x2="324.9189" y2="236.3491">
			<stop  offset="0" style="stop-color:#666666"/>
			<stop  offset="0.1916" style="stop-color:#6A6867;stop-opacity:0.8084"/>
			<stop  offset="0.3642" style="stop-color:#756E6B;stop-opacity:0.6358"/>
			<stop  offset="0.5294" style="stop-color:#877871;stop-opacity:0.4706"/>
			<stop  offset="0.6902" style="stop-color:#A1867A;stop-opacity:0.3098"/>
			<stop  offset="0.8461" style="stop-color:#C29786;stop-opacity:0.1539"/>
			<stop  offset="1" style="stop-color:#EAAD94;stop-opacity:0"/>
		</linearGradient>
		<path fill="none" stroke="url(#SVGID_13_)" stroke-width="0.25" stroke-miterlimit="10" d="M267.866,240.228
			c18.871-6.084,42.151-8.617,57.043-7.489"/>
		<linearGradient id="SVGID_14_" gradientUnits="userSpaceOnUse" x1="265.5244" y1="239.2319" x2="326.9673" y2="239.2319">
			<stop  offset="0" style="stop-color:#666666"/>
			<stop  offset="0.1916" style="stop-color:#6A6867;stop-opacity:0.8084"/>
			<stop  offset="0.3642" style="stop-color:#756E6B;stop-opacity:0.6358"/>
			<stop  offset="0.5294" style="stop-color:#877871;stop-opacity:0.4706"/>
			<stop  offset="0.6902" style="stop-color:#A1867A;stop-opacity:0.3098"/>
			<stop  offset="0.8461" style="stop-color:#C29786;stop-opacity:0.1539"/>
			<stop  offset="1" style="stop-color:#EAAD94;stop-opacity:0"/>
		</linearGradient>
		<path fill="none" stroke="url(#SVGID_14_)" stroke-width="0.25" stroke-miterlimit="10" d="M265.543,241.136
			c19.598-3.009,46.871-5.628,61.395-2.147"/>
		<linearGradient id="SVGID_15_" gradientUnits="userSpaceOnUse" x1="266.4429" y1="247.5703" x2="328.938" y2="247.5703">
			<stop  offset="0" style="stop-color:#666666"/>
			<stop  offset="0.1916" style="stop-color:#6A6867;stop-opacity:0.8084"/>
			<stop  offset="0.3642" style="stop-color:#756E6B;stop-opacity:0.6358"/>
			<stop  offset="0.5294" style="stop-color:#877871;stop-opacity:0.4706"/>
			<stop  offset="0.6902" style="stop-color:#A1867A;stop-opacity:0.3098"/>
			<stop  offset="0.8461" style="stop-color:#C29786;stop-opacity:0.1539"/>
			<stop  offset="1" style="stop-color:#EAAD94;stop-opacity:0"/>
		</linearGradient>
		<path fill="none" stroke="url(#SVGID_15_)" stroke-width="0.25" stroke-miterlimit="10" d="M266.455,243.897
			c19.73-1.962,48.129,3.515,62.447,7.762"/>
		<linearGradient id="SVGID_16_" gradientUnits="userSpaceOnUse" x1="267.6558" y1="242.4927" x2="334.5698" y2="242.4927">
			<stop  offset="0" style="stop-color:#666666"/>
			<stop  offset="0.1916" style="stop-color:#6A6867;stop-opacity:0.8084"/>
			<stop  offset="0.3642" style="stop-color:#756E6B;stop-opacity:0.6358"/>
			<stop  offset="0.5294" style="stop-color:#877871;stop-opacity:0.4706"/>
			<stop  offset="0.6902" style="stop-color:#A1867A;stop-opacity:0.3098"/>
			<stop  offset="0.8461" style="stop-color:#C29786;stop-opacity:0.1539"/>
			<stop  offset="1" style="stop-color:#EAAD94;stop-opacity:0"/>
		</linearGradient>
		<path fill="none" stroke="url(#SVGID_16_)" stroke-width="0.25" stroke-miterlimit="10" d="M267.668,238.466
			c19.723-2.029,52.534,4.253,66.866,8.451"/>
	</g>
	<g id="요리토끼_몸통">
		<path fill="#F5FCFC" d="M422.134,211.481c-7.969,7.5-14.062,18.395-20,25.5c-10.558,12.633-17.197,20.66-21.89,26.194
			c-1.149,4.262-2.757,9.242-5.519,15.667c-1.229,44.061,3.575,98.46,3.575,147.822c0,32.236,0.054,76.049,5.463,97.75
			c18.813,9.597,47.874,13.25,91.87,13.25c24.679,0,74.451-2.321,91.358-5.341c8.642-25.915,2.142-85.675-4.358-128.322
			C548.992,314.496,483.136,232.773,422.134,211.481z"/>
		<path fill="#D3E5E4" d="M383.764,524.415c-5.409-21.701-5.463-65.513-5.463-97.75c0-49.362-4.804-103.761-3.575-147.822
			c2.762-6.425,4.369-11.406,5.519-15.667c-12.396,14.616-11.187,11.812-32.519,30.317c-1.229,44.061,3.575,98.46,3.575,147.822
			c0,32.236,0.054,76.049,5.463,97.75c18.813,9.597,47.874,13.25,91.87,13.25c38.698,0,100.086-6.515,118.358-16.646
			c0.88-2.097,0.976-4.25,0.976-6.646c-16.907,3.021-67.655,8.642-92.333,8.642C431.637,537.666,402.576,534.012,383.764,524.415z"
			/>
		<g>
			<path fill="#D3E5E4" d="M349.039,291.235c-1.597-1.496-2.885-4.322-3.821-6.983c-1.256,0.983-2.362,1.813-3.283,2.459
				c0,0,2.032,9.938,5.589,13.271c32.224-7.333,78.259-72.731,82.984-85.5c-0.522-0.338-1.235-0.917-2.129-1.635
				C415.917,234.061,377.204,284.826,349.039,291.235z"/>
			<path fill="#F5FCFC" d="M428.38,212.847c-2.744-2.205-7.212-5.729-13.246-7.698c-3.114,19.36-52.079,65.145-69.916,79.104
				c0.936,2.661,2.224,5.487,3.821,6.983C377.204,284.826,415.917,234.061,428.38,212.847z"/>
		</g>
	</g>
	<g id="요리토끼_왼팔">
		<path fill="#D3E5E4" d="M425.472,352.604c3.674-3.06,2.842-6.887-0.307-10.835c-8.411-10.547-33.38-21.963-33.38-21.963
			c-10.8,10.015-28.11,32.204-42.736,45.885c0.822,19.741,1.716,39.852,2.042,59.429
			C386.662,410.378,413.361,362.689,425.472,352.604z"/>
		<g>
			<path fill="#BCAF75" d="M370.63,377.431c0.707,1.247,1.116,2.686,1.116,4.221c0,4.738-3.841,8.579-8.578,8.579
				c-2.537,0-4.81-1.107-6.38-2.858c1.474,2.6,4.262,4.358,7.464,4.358c4.737,0,8.578-3.841,8.578-8.579
				C372.829,380.951,371.993,378.95,370.63,377.431z"/>
			<path fill="#E0D5A6" d="M363.167,390.231c4.737,0,8.578-3.841,8.578-8.579c0-1.536-0.409-2.974-1.116-4.221
				c-1.57-1.75-3.843-2.857-6.379-2.857c-4.738,0-8.579,3.841-8.579,8.579c0,1.536,0.409,2.974,1.115,4.221
				C358.358,389.124,360.63,390.231,363.167,390.231z"/>
		</g>
		<g>
			<path fill="#BCAF75" d="M370.63,437.615c0.707,1.247,1.116,2.686,1.116,4.221c0,4.738-3.841,8.579-8.578,8.579
				c-2.537,0-4.81-1.107-6.38-2.858c1.474,2.6,4.262,4.358,7.464,4.358c4.737,0,8.578-3.841,8.578-8.579
				C372.829,441.135,371.993,439.134,370.63,437.615z"/>
			<path fill="#E0D5A6" d="M363.167,450.415c4.737,0,8.578-3.841,8.578-8.579c0-1.536-0.409-2.974-1.116-4.221
				c-1.57-1.75-3.843-2.857-6.379-2.857c-4.738,0-8.579,3.841-8.579,8.579c0,1.536,0.409,2.974,1.115,4.221
				C358.358,449.308,360.63,450.415,363.167,450.415z"/>
		</g>
		<g>
			<path fill="#BCAF75" d="M370.63,497.799c0.707,1.247,1.116,2.686,1.116,4.221c0,4.738-3.841,8.579-8.578,8.579
				c-2.537,0-4.81-1.107-6.38-2.858c1.474,2.6,4.262,4.358,7.464,4.358c4.737,0,8.578-3.841,8.578-8.579
				C372.829,501.319,371.993,499.318,370.63,497.799z"/>
			<path fill="#E0D5A6" d="M363.167,510.599c4.737,0,8.578-3.841,8.578-8.579c0-1.536-0.409-2.974-1.116-4.221
				c-1.57-1.75-3.843-2.857-6.379-2.857c-4.738,0-8.579,3.841-8.579,8.579c0,1.536,0.409,2.974,1.115,4.221
				C358.358,509.492,360.63,510.599,363.167,510.599z"/>
		</g>
		<g>
			<path fill="#EAAD94" d="M240.308,298.89c4.21,7.908,7.508,7.724,6.175,6.487c-2.686-2.49-4.306-5.091-5.419-7.645
				c0.004-0.004,0.006-0.009,0.01-0.014c-3.03-6.681-2.431-17.143,1.482-20.793c-0.797,5.894,0.168,9.984,1.42,12.573
				c2.067,4.277,2.519,3.706,1.905,1.75c-2.665-8.484-1.829-12.052-0.689-15.823c1.942-5.003,6.876-12.475,11.929-11.664
				c-2.127,4.061-1.804,8.014-0.7,11.834c1.332,4.608,5.271,9.304,4.268,6.546c-2.737-7.517-4.053-11.316-0.98-17.515
				c1.027-1.309,4.764-3.219,9.065-3.077c0.282,0.023,0.563,0.053,0.844,0.088c7.283,1.19,10.941,13.826,13.563,20.908
				c4.448,12.019,4.775,24.637,5.201,28.505l-22.138,19.062C251.532,325.839,236.023,307.264,240.308,298.89z"/>
			<path fill="#E29479" d="M282.051,283.326c-1.181-4.888-5.151-20.497-12.434-21.687c4.671,0.584,9.027,2.837,12.685,11.884
				c6.186,17.612,6.719,22.163,7.08,36.665l-4.97,3.504C283.985,309.823,283.098,287.658,282.051,283.326z"/>
			<path fill="#E29479" d="M240.308,298.89c0.209-0.408,0.45-0.798,0.755-1.157c1.114,2.554,2.734,5.155,5.419,7.645
				C247.816,306.613,244.519,306.797,240.308,298.89z"/>
			<path fill="#E29479" d="M245.881,291.249c0.614,1.956,0.163,2.527-1.905-1.75c-1.251-2.589-2.217-6.679-1.42-12.573
				c0.737-0.687,1.579-1.161,2.55-1.292c0.025-0.066,0.059-0.139,0.085-0.208C244.052,279.197,243.216,282.765,245.881,291.249z"/>
			<path fill="#E29479" d="M260.688,282.142c1.004,2.758-2.936-1.938-4.268-6.546c-1.104-3.82-1.427-7.773,0.7-11.834
				c0.814,0.131,1.633,0.458,2.441,1.066c0.039-0.063,0.092-0.133,0.146-0.201C256.635,270.826,257.951,274.625,260.688,282.142z"/>
		</g>
		<g>
			<path fill="#D3E5E4" d="M422.66,344.668c-16.882,4.816-69.197,44.99-110.267,34.516c-16.897-4.309-49.784-46.097-58.063-59.379
				c-2.227,2.247-3.554,4.078-3.438,5.003c0.555,4.423,40.693,58.204,59.986,63.124c41.07,10.474,93.384-29.7,110.267-34.516
				c4.598-1.312,5.385-5.148,4.103-10.034C424.572,343.932,423.716,344.367,422.66,344.668z"/>
			<path fill="#F5FCFC" d="M312.393,379.185c41.07,10.474,113.41-35.742,114.086-36.292c-3.425-13.048-21.642-33.59-21.642-33.59
				c-16.468,5.663-49.381,23.702-68.537,28.013c-13.545,3.049-23.091-17.734-45.567-35.417c-6.528-5.135-27.984,9.408-36.404,17.906
				C262.609,333.088,295.496,374.876,312.393,379.185z"/>
		</g>
		<g>
			<path fill="#BCAF75" d="M370.072,309.077c0.707,1.247,1.116,2.686,1.116,4.221c0,4.738-3.841,8.579-8.578,8.579
				c-2.537,0-4.81-1.107-6.38-2.858c1.474,2.6,4.262,4.358,7.464,4.358c4.737,0,8.578-3.841,8.578-8.579
				C372.271,312.597,371.436,310.596,370.072,309.077z"/>
			<path fill="#E0D5A6" d="M362.61,321.877c4.737,0,8.578-3.841,8.578-8.579c0-1.536-0.409-2.974-1.116-4.221
				c-1.57-1.75-3.843-2.857-6.379-2.857c-4.738,0-8.579,3.841-8.579,8.579c0,1.536,0.409,2.974,1.115,4.221
				C357.8,320.77,360.073,321.877,362.61,321.877z"/>
		</g>
	</g>
</g>
<g id="오븐">
</g>
<g id="오븐_토끼">
	<g id="오븐토끼_오른팔">
	</g>
	<g id="오븐토끼_머리">
		<path display="none" fill="#5A413B" d="M478.134,1584.649c-0.667,6.167-11.333,13.333-1.5,27.5
			c4.667,8.5,10.833,8.833,13.167,13.333c-0.333-5.5,4.333-4.166,5.667-19.666C496.125,1598.178,482.801,1588.982,478.134,1584.649z
			"/>
	</g>
	<g id="오븐토끼_왼다리">
	</g>
	<g id="오븐토끼_꼬리">
	</g>
	<g id="오븐토끼_몸통">
	</g>
	<g id="오븐토끼_오른팔_오른다리">
	</g>
</g>
<g id="달토끼_왼팔_copy_2">
	<g id="달토끼_꼬리">
	</g>
	<g id="달토끼_다리">
	</g>
	<g id="달토끼_오른팔">
		<g display="none">
			<g display="inline">
				<path fill="none" d="M-582.3,300.663c-0.004-0.005-0.006-0.009-0.01-0.013c-0.059,0.053-0.12,0.105-0.179,0.159
					C-582.425,300.755-582.361,300.702-582.3,300.663z"/>
				<path fill="#EAAD94" d="M-548.876,280.323c-0.026,0.015-0.051,0.032-0.077,0.047c6.359,3.059,6.398,5.728,5.15,4.628
					c-2.075-1.829-4.153-3.044-6.188-3.897c-0.006,0.005-0.012,0.009-0.018,0.014c-0.004,0.004-0.009,0.006-0.014,0.011
					c-6.775-2.814-17.212-1.878-20.734,2.15c-0.22,0.251-0.405,0.518-0.572,0.792c12.047-1.462,14.476,2.339,11.951,1.839
					c-4.773-0.947-8.891-0.757-12.585-0.055c0,0.005-0.002,0.01-0.003,0.015c-0.066,0.027-0.133,0.081-0.205,0.091
					c-6.675,1.026-12.248,7.274-11.274,12.299c0.005,0.026,0.015,0.051,0.02,0.077c1.778-1.198,3.77-1.97,5.852-2.511
					c4.643-1.203,10.692-0.209,7.807,0.334c-5.827,1.095-9.498,1.826-12.543,4.492c0.004,0.004,0.006,0.008,0.01,0.013
					c-0.061,0.039-0.125,0.092-0.189,0.146c-0.096,0.087-0.19,0.183-0.284,0.274c-1.241,1.34-2.768,4.898-2.507,8.891
					c0.032,0.281,0.071,0.562,0.115,0.841c0.734,4.65,3.126,8.931,12.287,12.295c17.802,5.617,22.368,6.002,36.874,5.896
					l0.683-1.037c0.045,0.003,0.104,0.006,0.148,0.009l18.339-22.74C-521.579,290.673-540.644,275.77-548.876,280.323z"/>
				<path fill="#E29479" d="M-571.328,284.068c-0.335,0.548-0.565,1.138-0.634,1.784c3.694-0.702,7.812-0.892,12.585,0.055
					C-556.852,286.407-559.281,282.606-571.328,284.068z"/>
				<path fill="#E29479" d="M-548.953,280.37c-0.366,0.208-0.717,0.441-1.038,0.731c2.035,0.853,4.112,2.068,6.188,3.897
					C-542.555,286.098-542.594,283.429-548.953,280.37z"/>
				<path fill="#E29479" d="M-582.497,300.815c-0.09,0.075-0.182,0.167-0.276,0.269c0.094-0.091,0.188-0.188,0.284-0.274
					C-582.492,300.811-582.494,300.813-582.497,300.815z"/>
				<path fill="#E29479" d="M-582.31,300.65c3.045-2.666,6.716-3.396,12.543-4.492c2.886-0.543-3.164-1.538-7.807-0.334
					c-2.082,0.541-4.073,1.313-5.852,2.511C-583.261,299.114-582.917,299.891-582.31,300.65z"/>
			</g>
			<path display="inline" fill="#E29479" d="M-563.088,322.545c-4.924-1.023-20.652-4.489-22.076-11.729
				c0.734,4.65,3.126,8.931,12.287,12.295c17.802,5.617,22.368,6.002,36.874,5.896l3.342-5.08
				C-536.543,323.625-558.726,323.452-563.088,322.545z"/>
		</g>
	</g>
	<g id="절구공이">
	</g>
	<g id="달토끼수염_오">
	</g>
	<g id="달토끼_머리">
		<path display="none" fill="#F281A4" d="M-460.708,211.029c-0.307,0.467-1.322,5.157-1.75,7.694s-2.716,11.938-5.925,15.29
			c-4.792,5.004-0.936,4.753,1.421,2.599c4.42-4.04,6.087-11.938,6.254-15.51S-458.958,208.363-460.708,211.029z"/>
	</g>
	<g id="달토끼수염_왼">
	</g>
	<g id="달토끼_몸통">
	</g>
	<g id="달토끼_왼팔">
	</g>
	<g id="달토끼_꼬리_copy">
	</g>
	<g id="달토끼_다리_copy">
	</g>
	<g id="달토끼_오른팔_copy">
		<g display="none">
			<g display="inline">
				<path fill="none" d="M-839.87,370.588c0.005-0.003,0.008-0.007,0.013-0.01c0.041,0.068,0.084,0.136,0.125,0.205
					C-839.778,370.713-839.823,370.644-839.87,370.588z"/>
				<path fill="#EAAD94" d="M-865.842,341.324c0.021,0.022,0.039,0.046,0.059,0.068c-6.977,1.056-7.798,3.595-6.282,2.911
					c2.521-1.138,4.864-1.69,7.059-1.907c0.004,0.006,0.009,0.012,0.013,0.019c0.003,0.005,0.007,0.008,0.01,0.014
					c7.303-0.699,17.004,3.263,19.187,8.148c0.136,0.305,0.235,0.614,0.314,0.925c-11.085-4.938-14.524-2.019-11.963-1.754
					c4.841,0.498,8.721,1.889,12.045,3.646c-0.001,0.005-0.001,0.01-0.001,0.015c0.055,0.046,0.103,0.116,0.169,0.148
					c6.079,2.942,9.569,10.552,7.162,15.069c-0.012,0.023-0.029,0.044-0.041,0.068c-1.348-1.668-3.025-2.991-4.855-4.12
					c-4.084-2.514-10.159-3.342-7.56-1.974c5.248,2.759,8.542,4.536,10.669,7.979c-0.005,0.003-0.008,0.006-0.013,0.01
					c0.047,0.055,0.093,0.125,0.138,0.195c0.066,0.111,0.128,0.231,0.191,0.346c0.792,1.645,1.206,5.495-0.216,9.234
					c-0.113,0.26-0.233,0.516-0.357,0.771c-2.068,4.229-5.613,7.618-15.357,8.142c-18.666,0.138-23.144-0.835-36.979-5.199
					l-0.347-1.192c-0.044-0.01-0.102-0.025-0.144-0.035l-10.848-27.125C-894.975,343.197-872.372,334.554-865.842,341.324z"/>
				<path fill="#E29479" d="M-845.481,351.502c0.159,0.623,0.206,1.254,0.082,1.892c-3.324-1.756-7.204-3.147-12.045-3.646
					C-860.005,349.483-856.567,346.564-845.481,351.502z"/>
				<path fill="#E29479" d="M-865.782,341.392c0.289,0.307,0.556,0.633,0.777,1.004c-2.195,0.217-4.538,0.769-7.059,1.907
					C-873.581,344.987-872.759,342.448-865.782,341.392z"/>
				<path fill="#E29479" d="M-839.727,370.792c0.064,0.098,0.125,0.213,0.185,0.338c-0.063-0.115-0.125-0.235-0.191-0.346
					C-839.73,370.786-839.729,370.789-839.727,370.792z"/>
				<path fill="#E29479" d="M-839.857,370.579c-2.127-3.443-5.421-5.22-10.669-7.979c-2.599-1.368,3.476-0.54,7.56,1.974
					c1.831,1.128,3.508,2.452,4.855,4.12C-838.497,369.39-839.054,370.032-839.857,370.579z"/>
			</g>
			<path display="inline" fill="#E29479" d="M-864.664,385.859c5.008,0.469,21.06,1.778,24.548-4.725
				c-2.068,4.229-5.613,7.618-15.357,8.142c-18.666,0.138-23.144-0.835-36.979-5.199l-1.702-5.838
				C-890.355,379.091-869.1,385.444-864.664,385.859z"/>
		</g>
	</g>
	<g id="절구공이_copy">
	</g>
	<g id="달토끼수염_오_copy">
	</g>
	<g id="달토끼_머리_copy">
		<path display="none" fill="#B9EDE9" d="M-944.488,217.143c-8.347,10.702-50.711,10.732-62.961,2.099
			c5.363,5.439,10.883,10.927,15.086,14.455c9.333,7.833,34.493,4.217,41.33,3.12c5.76-0.925,25.077-7.147,26.944-11.613
			C-932.634,224.162-936.664,221.566-944.488,217.143z"/>
		<path display="none" fill="#F281A4" d="M-950.69,211.029c0.307,0.467,1.322,5.157,1.75,7.694
			c0.428,2.538,2.716,11.938,5.925,15.29c4.792,5.004,0.936,4.753-1.421,2.599c-4.42-4.04-6.087-11.938-6.254-15.51
			S-952.44,208.363-950.69,211.029z"/>
	</g>
	<g id="달토끼수염_왼_copy">
	</g>
	<g id="달토끼_몸통_copy">
	</g>
	<g id="저고리_고름">
	</g>
	<g id="달토끼_왼팔_copy">
	</g>
	<g id="Layer_39">
	</g>
</g>
<g id="Layer_39_copy">
</g>
<g id="떡방아_토끼">
	<g id="달토끼_꼬리_copy_3">
	</g>
	<g id="달토끼_다리_copy_3">
	</g>
	<g id="달토끼_오른팔_copy_3">
		<g display="none">
			<g display="inline">
				<path fill="none" d="M-582.3,1102.57c-0.004-0.006-0.006-0.01-0.01-0.014c-0.059,0.053-0.12,0.105-0.179,0.159
					C-582.425,1102.662-582.361,1102.609-582.3,1102.57z"/>
				<path fill="#EAAD94" d="M-548.876,1082.229c-0.026,0.015-0.051,0.032-0.077,0.048c6.359,3.059,6.398,5.727,5.15,4.627
					c-2.075-1.828-4.153-3.044-6.188-3.896c-0.006,0.005-0.012,0.009-0.018,0.014c-0.004,0.004-0.009,0.006-0.014,0.012
					c-6.775-2.814-17.212-1.879-20.734,2.15c-0.22,0.251-0.405,0.518-0.572,0.791c12.047-1.462,14.476,2.339,11.951,1.84
					c-4.773-0.947-8.891-0.758-12.585-0.056c0,0.005-0.002,0.011-0.003,0.015c-0.066,0.027-0.133,0.081-0.205,0.092
					c-6.675,1.025-12.248,7.274-11.274,12.299c0.005,0.026,0.015,0.051,0.02,0.077c1.778-1.198,3.77-1.97,5.852-2.511
					c4.643-1.203,10.692-0.209,7.807,0.334c-5.827,1.096-9.498,1.826-12.543,4.492c0.004,0.004,0.006,0.008,0.01,0.014
					c-0.061,0.039-0.125,0.092-0.189,0.146c-0.096,0.087-0.19,0.183-0.284,0.274c-1.241,1.34-2.768,4.898-2.507,8.891
					c0.032,0.281,0.071,0.562,0.115,0.842c0.734,4.649,3.126,8.93,12.287,12.295c17.802,5.616,22.368,6.002,36.874,5.896
					l0.683-1.037c0.045,0.003,0.104,0.006,0.148,0.009l18.339-22.739C-521.579,1092.58-540.644,1077.676-548.876,1082.229z"/>
				<path fill="#E29479" d="M-571.328,1085.974c-0.335,0.549-0.565,1.139-0.634,1.784c3.694-0.702,7.812-0.892,12.585,0.056
					C-556.852,1088.313-559.281,1084.512-571.328,1085.974z"/>
				<path fill="#E29479" d="M-548.953,1082.277c-0.366,0.207-0.717,0.441-1.038,0.73c2.035,0.853,4.112,2.068,6.188,3.896
					C-542.555,1088.003-542.594,1085.335-548.953,1082.277z"/>
				<path fill="#E29479" d="M-582.497,1102.721c-0.09,0.075-0.182,0.167-0.276,0.269c0.094-0.092,0.188-0.188,0.284-0.274
					C-582.492,1102.717-582.494,1102.719-582.497,1102.721z"/>
				<path fill="#E29479" d="M-582.31,1102.556c3.045-2.666,6.716-3.396,12.543-4.492c2.886-0.543-3.164-1.537-7.807-0.334
					c-2.082,0.541-4.073,1.313-5.852,2.511C-583.261,1101.021-582.917,1101.797-582.31,1102.556z"/>
			</g>
			<path display="inline" fill="#E29479" d="M-563.088,1124.451c-4.924-1.022-20.652-4.488-22.076-11.729
				c0.734,4.649,3.126,8.93,12.287,12.295c17.802,5.616,22.368,6.002,36.874,5.896l3.342-5.08
				C-536.543,1125.532-558.726,1125.359-563.088,1124.451z"/>
		</g>
	</g>
	<g id="절구공이_copy_3">
	</g>
	<g id="달토끼수염_오_copy_3">
	</g>
	<g id="달토끼_머리_copy_3">
		<path display="none" fill="#F281A4" d="M-460.708,1012.935c-0.307,0.468-1.322,5.157-1.75,7.695
			c-0.428,2.537-2.716,11.938-5.925,15.289c-4.792,5.004-0.936,4.753,1.421,2.6c4.42-4.04,6.087-11.938,6.254-15.511
			S-458.958,1010.269-460.708,1012.935z"/>
	</g>
	<g id="달토끼수염_왼_copy_3">
	</g>
	<g id="달토끼_몸통_copy_3">
	</g>
	<g id="저고리">
	</g>
	<g id="달토끼_왼팔_copy_3">
	</g>
	<g id="달토끼_꼬리_copy_2">
	</g>
	<g id="달토끼_다리_copy_2">
	</g>
	<g id="절구공이_copy_2">
	</g>
	<g id="달토끼수염_오_copy_2">
	</g>
	<g id="달토끼_오른팔_copy_4">
		<g display="none">
			<g display="inline">
				<path fill="none" d="M-829.099,1102.57c0.004-0.006,0.006-0.01,0.01-0.014c0.059,0.053,0.12,0.105,0.179,0.159
					C-828.974,1102.662-829.038,1102.609-829.099,1102.57z"/>
				<path fill="#EAAD94" d="M-862.523,1082.229c0.026,0.015,0.051,0.032,0.077,0.048c-6.359,3.059-6.398,5.727-5.15,4.627
					c2.075-1.828,4.153-3.044,6.188-3.896c0.006,0.005,0.012,0.009,0.018,0.014c0.004,0.004,0.009,0.006,0.014,0.012
					c6.775-2.814,17.212-1.879,20.734,2.15c0.22,0.251,0.405,0.518,0.572,0.791c-12.047-1.462-14.476,2.339-11.951,1.84
					c4.773-0.947,8.891-0.758,12.585-0.056c0,0.005,0.002,0.011,0.003,0.015c0.066,0.027,0.133,0.081,0.205,0.092
					c6.675,1.025,12.248,7.274,11.274,12.299c-0.005,0.026-0.015,0.051-0.02,0.077c-1.778-1.198-3.77-1.97-5.852-2.511
					c-4.643-1.203-10.692-0.209-7.807,0.334c5.827,1.096,9.498,1.826,12.543,4.492c-0.004,0.004-0.006,0.008-0.01,0.014
					c0.061,0.039,0.125,0.092,0.189,0.146c0.096,0.087,0.19,0.183,0.284,0.274c1.24,1.34,2.768,4.898,2.507,8.891
					c-0.032,0.281-0.071,0.562-0.115,0.842c-0.734,4.649-3.126,8.93-12.287,12.295c-17.802,5.616-22.368,6.002-36.874,5.896
					l-0.683-1.037c-0.045,0.003-0.104,0.006-0.148,0.009l-18.339-22.739C-889.82,1092.58-870.755,1077.676-862.523,1082.229z"/>
				<path fill="#E29479" d="M-840.071,1085.974c0.335,0.549,0.565,1.139,0.634,1.784c-3.694-0.702-7.812-0.892-12.585,0.056
					C-854.547,1088.313-852.118,1084.512-840.071,1085.974z"/>
				<path fill="#E29479" d="M-862.446,1082.277c0.366,0.207,0.717,0.441,1.038,0.73c-2.035,0.853-4.112,2.068-6.188,3.896
					C-868.844,1088.003-868.805,1085.335-862.446,1082.277z"/>
				<path fill="#E29479" d="M-828.902,1102.721c0.09,0.075,0.182,0.167,0.276,0.269c-0.094-0.092-0.188-0.188-0.284-0.274
					C-828.907,1102.717-828.905,1102.719-828.902,1102.721z"/>
				<path fill="#E29479" d="M-829.089,1102.556c-3.045-2.666-6.716-3.396-12.543-4.492c-2.886-0.543,3.164-1.537,7.807-0.334
					c2.082,0.541,4.073,1.313,5.852,2.511C-828.138,1101.021-828.482,1101.797-829.089,1102.556z"/>
			</g>
			<path display="inline" fill="#E29479" d="M-848.311,1124.451c4.924-1.022,20.652-4.488,22.076-11.729
				c-0.734,4.649-3.126,8.93-12.287,12.295c-17.802,5.616-22.368,6.002-36.874,5.896l-3.342-5.08
				C-874.856,1125.532-852.673,1125.359-848.311,1124.451z"/>
		</g>
	</g>
	<g id="절구공이_copy_4">
	</g>
	<g id="달토끼수염_왼_copy_2">
	</g>
	<g id="달토끼_몸통_copy_2">
	</g>
	<g id="달토끼_머리_copy_2">
		<path display="none" fill="#B9EDE9" d="M-944.488,1019.048c-8.347,10.703-50.711,10.732-62.961,2.1
			c5.363,5.439,10.883,10.927,15.086,14.455c9.333,7.833,34.493,4.217,41.33,3.119c5.76-0.925,25.077-7.146,26.944-11.613
			C-932.634,1026.068-936.664,1023.472-944.488,1019.048z"/>
		<path display="none" fill="#F281A4" d="M-950.69,1012.935c0.307,0.468,1.322,5.157,1.75,7.695
			c0.428,2.537,2.716,11.938,5.925,15.289c4.792,5.004,0.936,4.753-1.421,2.6c-4.42-4.04-6.087-11.938-6.254-15.511
			S-952.44,1010.269-950.69,1012.935z"/>
	</g>
	<g id="저고리_고름_copy">
	</g>
	<g id="달토끼_왼팔_copy_4">
	</g>
</g>
<g id="정면_토끼">
	<g id="메인토끼_팔">
	</g>
	<g id="Layer_84_copy">
	</g>
	<g id="Layer_84" display="none">
		<path display="inline" fill="#B49779" d="M-31.357,2342.043c-3.5-11.5,2.5-30,10-29c3.5-5.5,12.455-10,15.478-6.5
			c4.522-1,13.043-0.865,12.674,4.636c2.338-0.095,12.348,6.722,3.848,17.793s-11.133,13.265-20.066,19.418"/>
		<path display="inline" fill="#D8B89A" d="M-22.403,2313.042c-3.23,5.868-1.768,7.858-1.539,6.518
			c0.461-2.699,1.428-4.776,2.572-6.518c0.004,0.001,0.009,0,0.013,0.001c2.945-4.628,9.741-8.528,13.626-7.569
			c-4.017,1.909-6.183,4.186-7.293,6.027c-1.833,3.043-1.292,3.092-0.318,1.908c4.225-5.136,6.801-6.07,9.627-6.898
			c3.926-0.828,10.623-0.792,12.179,2.704c-3.412,0.327-5.755,2.145-7.697,4.397c-2.341,2.717-3.672,7.104-2.355,5.348
			c3.589-4.786,5.43-7.163,10.568-7.772c1.239,0.108,3.962,1.668,5.632,4.419c0.101,0.187,0.196,0.375,0.289,0.565
			c2.231,5.047-4.187,12.502-7.55,17.037c-5.708,7.697-13.477,13.059-15.725,14.906l-20.984-6.072
			C-34.692,2331.084-29.399,2313.782-22.403,2313.042z"/>
		<path display="inline" fill="#B49779" d="M4.402,2332.822c2.578-2.737,10.73-11.603,8.499-16.649
			c1.543,3.164,1.913,6.812-2.258,12.8c-8.5,11.071-11.133,13.265-20.066,19.418l-4.225-1.681
			C-11.4,2344.862,2.118,2335.248,4.402,2332.822z"/>
		<path display="inline" fill="#B49779" d="M-22.403,2313.042c0.341-0.036,0.685-0.045,1.033,0c-1.144,1.741-2.11,3.818-2.572,6.518
			C-24.171,2320.901-25.634,2318.911-22.403,2313.042z"/>
		<path display="inline" fill="#B49779" d="M-15.342,2313.41c-0.974,1.184-1.515,1.135,0.318-1.908
			c1.11-1.842,3.276-4.118,7.293-6.027c0.731,0.181,1.372,0.515,1.851,1.069c0.052-0.012,0.112-0.021,0.165-0.032
			C-8.541,2307.339-11.117,2308.274-15.342,2313.41z"/>
		<path display="inline" fill="#B49779" d="M-3.587,2318.96c-1.317,1.756,0.014-2.631,2.355-5.348
			c1.941-2.253,4.285-4.07,7.697-4.397c0.251,0.563,0.381,1.209,0.33,1.964c0.056-0.002,0.121,0.003,0.186,0.009
			C1.843,2311.797,0.002,2314.174-3.587,2318.96z"/>
		<g display="inline">
			<path fill="#D9F0F9" d="M-70.556,2397.387c-17.684,0-36.909-7.477-50.946-12.935c-7.02-2.73-12.565-4.887-16.185-5.444
				c-1.506-0.232-2.046-0.905-2.321-1.391c-0.617-1.09-1.214-3.996,1.73-11.213c3.039-7.451,8.266-15.62,9.983-18.223
				c5.28,1.297,12.188,4.405,19.478,7.686c10.394,4.677,21.142,9.514,29.64,10.336c0.395,0.038,0.799,0.057,1.213,0.057
				c14.102,0,36.987-22.06,43.666-28.821c0.616-0.624,1.782-0.755,2.652-0.755c5.091,0,14.311,4.264,20.787,8.476
				c3.793,2.467,5.247,3.979,5.624,4.543c-2.186,4.801-35.146,39.593-48.201,44.727c-4.993,1.963-10.752,2.958-17.116,2.958
				C-70.555,2397.387-70.556,2397.387-70.556,2397.387z"/>
			<path fill="#C5E9EF" d="M-31.647,2338.184c4.798,0,13.678,4.142,19.969,8.232c2.445,1.591,3.858,2.757,4.586,3.455
				c-2.078,3.073-9.388,11.431-19.185,21.014c-12.044,11.781-22.403,20.061-27.71,22.147c-4.818,1.895-10.393,2.854-16.569,2.854
				c-17.402,0-36.476-7.417-50.403-12.833c-7.105-2.763-12.717-4.945-16.499-5.528c-0.962-0.148-1.153-0.485-1.244-0.647
				c-0.217-0.382-1.146-2.653,1.813-9.907c2.697-6.613,7.172-13.838,9.259-17.063c5.01,1.394,11.439,4.286,18.197,7.328
				c10.505,4.727,21.367,9.614,30.111,10.461c0.44,0.042,0.896,0.063,1.358,0.063c14.281,0,36.04-20.467,44.732-29.267
				C-33.126,2338.386-32.659,2338.184-31.647,2338.184 M-31.647,2335.184c-1.599,0-2.891,0.363-3.719,1.201
				c-14.522,14.702-32.106,28.375-42.598,28.375c-0.365,0-0.722-0.017-1.069-0.05c-14.614-1.414-37.19-15.553-49.936-18.22
				c0,0-6.939,10.131-10.698,19.348c-2.922,7.165-3.922,13.777,1.751,14.652c10.543,1.625,40.628,18.396,67.359,18.396
				c6.161,0,12.142-0.89,17.667-3.063c13.856-5.448,49.217-42.821,49.217-46.155c0-1.054-2.619-3.327-6.371-5.768
				C-16.379,2339.782-25.955,2335.184-31.647,2335.184L-31.647,2335.184z"/>
		</g>
		<g display="inline">
			<path fill="#C5E9EF" d="M-10.042,2343.902c-10.771,12.271-32.761,33.742-43.006,37.771
				c-29.495,11.598-72.053-13.334-85.026-15.334c-0.615-0.095-1.128-0.277-1.592-0.5c-2.922,7.165-3.922,13.777,1.751,14.652
				c12.974,2,55.532,26.932,85.026,15.334c13.856-5.448,49.217-42.821,49.217-46.155C-3.671,2348.616-6.29,2346.342-10.042,2343.902
				z"/>
		</g>
	</g>
	<g id="메인토끼_다리">
		<path display="none" fill="none" d="M-361.811,2593.944c0-17.396-12.983-31.308-28-35c-15.25-3.75-28.392,17.608-28,35
			c0.375,16.625,7.69,25.62,17.417,31.417l-0.5,2.333c-14.25,2.583-23.417,7.819-23.417,19.417c0,3.011,8.625,3.958,11.75,3.708
			c4.375,1.875,11.625,1.375,15.375,0.125c6.238,0.348,9,0,11.25-0.875c0.808-0.314,5.958-3.375,6.653-7.668
			c0.305-2.207-1.278-4.457-0.403-6.832s1.259-8.814,1.259-8.814C-368.7,2620.958-361.811,2606.728-361.811,2593.944z"/>
	</g>
	<g id="메인토끼_몸통">
	</g>
	<g id="메인토끼_머리">
	</g>
	<g id="메인토끼수염">
	</g>
</g>
</svg>
