<?xml version="1.0" encoding="utf-8"?>
<!-- Generator: Adobe Illustrator 16.0.0, SVG Export Plug-In . SVG Version: 6.00 Build 0)  -->
<!DOCTYPE svg PUBLIC "-//W3C//DTD SVG 1.1//EN" "http://www.w3.org/Graphics/SVG/1.1/DTD/svg11.dtd">
<svg version="1.1" id="정면_토끼_copy" xmlns="http://www.w3.org/2000/svg" xmlns:xlink="http://www.w3.org/1999/xlink" x="0px"
	 y="0px" width="330px" height="574.282px" viewBox="0 0 330 574.282" enable-background="new 0 0 330 574.282"
	 xml:space="preserve">
<pattern  x="-84.5" y="537.641" width="97.334" height="97.334" patternUnits="userSpaceOnUse" id="SVGID_2_" viewBox="0 -97.334 97.334 97.334" overflow="visible">
	<g>
		<polygon fill="none" points="0,0 97.334,0 97.334,-97.334 0,-97.334 		"/>
		<g>
			<polygon fill="none" points="0,-97.334 97.334,-97.334 97.334,0 0,0 			"/>
			<polygon opacity="0.2" fill="#00A551" enable-background="new    " points="97.334,-97.334 0,-97.334 0,-60.334 97.334,-60.334 
							"/>
			<polygon opacity="0.2" fill="#00A551" enable-background="new    " points="97.334,-37 0,-37 0,0 97.334,0 			"/>
			<polygon opacity="0.2" fill="#00A551" enable-background="new    " points="60.334,-97.334 60.334,0 97.334,0 97.334,-97.334 			
				"/>
			<polygon opacity="0.2" fill="#00A551" enable-background="new    " points="0,-97.334 0,0 37,0 37,-97.334 			"/>
			<polygon opacity="0.2" fill="#FFF100" enable-background="new    " points="30.167,-97.334 30.167,-0.001 67.167,-0.001 
				67.167,-97.334 			"/>
			<polygon opacity="0.2" fill="#FFF100" enable-background="new    " points="0.001,-30.167 97.334,-30.167 97.334,-67.167 
				0.001,-67.167 			"/>
		</g>
	</g>
</pattern>
<g id="메인토끼_팔_copy">
	<path fill="#B49779" d="M45.269,219.769c3.493-11.5-2.495-30-9.979-29c-3.493-5.5-12.43-10-15.445-6.5
		c-4.513-1-13.016-0.865-12.648,4.636c-2.333-0.095-12.321,6.722-3.84,17.793c8.482,11.071,11.11,13.265,20.025,19.418"/>
	<path fill="#D8B89A" d="M36.334,190.768c3.224,5.868,1.765,7.858,1.536,6.518c-0.46-2.699-1.426-4.776-2.566-6.518
		c-0.004,0.001-0.009,0-0.013,0.001c-2.939-4.628-9.722-8.528-13.599-7.569c4.009,1.909,6.17,4.186,7.278,6.027
		c1.83,3.043,1.289,3.092,0.317,1.908c-4.217-5.136-6.787-6.07-9.607-6.898c-3.918-0.828-10.6-0.792-12.153,2.704
		c3.405,0.327,5.743,2.145,7.682,4.397c2.336,2.717,3.665,7.104,2.351,5.348c-3.582-4.786-5.419-7.163-10.546-7.772
		c-1.237,0.108-3.954,1.668-5.62,4.419c-0.101,0.187-0.195,0.375-0.289,0.565c-2.226,5.047,4.179,12.502,7.534,17.037
		c5.696,7.697,13.448,13.059,15.692,14.906l20.939-6.072C48.598,208.81,43.315,191.507,36.334,190.768z"/>
	<path fill="#B49779" d="M9.584,210.547c-2.573-2.737-10.708-11.603-8.481-16.649c-1.54,3.164-1.909,6.812,2.253,12.8
		c8.482,11.071,11.11,13.265,20.025,19.418l4.216-1.681C25.354,222.587,11.864,212.973,9.584,210.547z"/>
	<path fill="#B49779" d="M36.334,190.768c-0.34-0.036-0.684-0.045-1.031,0c1.141,1.741,2.106,3.818,2.566,6.518
		C38.099,198.626,39.558,196.636,36.334,190.768z"/>
	<path fill="#B49779" d="M29.287,191.135c0.972,1.184,1.512,1.135-0.317-1.908c-1.108-1.842-3.27-4.118-7.278-6.027
		c-0.729,0.181-1.368,0.515-1.847,1.069c-0.052-0.012-0.112-0.021-0.165-0.032C22.5,185.064,25.071,185.999,29.287,191.135z"/>
	<path fill="#B49779" d="M17.558,196.686c1.314,1.756-0.014-2.631-2.351-5.348c-1.938-2.253-4.276-4.07-7.682-4.397
		c-0.25,0.563-0.38,1.209-0.33,1.964c-0.056-0.002-0.12,0.003-0.185,0.009C12.139,189.522,13.976,191.899,17.558,196.686z"/>
	<g>
		<path fill="#A8DEEF" d="M84.792,275.112c-6.354,0-12.1-0.995-17.081-2.958c-13.033-5.135-45.924-39.93-48.101-44.727
			c0.367-0.551,1.771-2.021,5.414-4.415c6.505-4.275,15.786-8.603,20.938-8.603c0.867,0,2.029,0.13,2.643,0.753
			c6.665,6.762,29.504,28.822,43.576,28.822c0,0,0,0,0.001,0c0.413,0,0.818-0.019,1.211-0.057
			c8.481-0.822,19.207-5.659,29.579-10.336c7.272-3.279,14.166-6.388,19.435-7.685c1.705,2.592,6.872,10.688,9.908,18.098
			c2.994,7.305,2.399,10.239,1.778,11.339c-0.274,0.485-0.812,1.157-2.313,1.389c-3.612,0.559-9.146,2.715-16.15,5.444
			c-14.006,5.459-33.189,12.935-50.834,12.935C84.794,275.112,84.794,275.112,84.792,275.112z"/>
		<path fill="#A8DEEF" d="M45.965,215.91c1.044,0,1.491,0.221,1.575,0.307c8.675,8.8,30.391,29.269,44.646,29.269
			c0.461,0,0.917-0.021,1.356-0.063c8.728-0.847,19.566-5.734,30.051-10.462c6.741-3.04,13.153-5.932,18.151-7.326
			c2.069,3.206,6.486,10.352,9.187,16.941c3.012,7.35,2.078,9.646,1.86,10.031c-0.091,0.161-0.281,0.497-1.236,0.645
			c-3.775,0.583-9.376,2.766-16.468,5.529c-13.896,5.416-32.928,12.833-50.293,12.833c-6.163,0-11.725-0.961-16.531-2.854
			c-5.295-2.087-15.631-10.365-27.65-22.147c-9.778-9.585-17.074-17.944-19.146-21.015c0.706-0.68,2.06-1.803,4.385-3.331
			C32.015,220.215,41.159,215.909,45.965,215.91 M45.965,212.91c-5.74-0.001-15.441,4.694-21.762,8.849
			c-3.637,2.39-6.155,4.601-6.155,5.636c0,3.334,35.287,40.707,49.114,46.155c5.512,2.172,11.483,3.063,17.63,3.063
			c26.677,0,56.695-16.771,67.219-18.397c5.695-0.88,4.65-7.565,1.694-14.778c-3.763-9.184-10.623-19.222-10.623-19.222
			c-12.721,2.667-35.248,16.806-49.832,18.22c-0.347,0.033-0.703,0.05-1.066,0.05c-10.469,0-28.016-13.672-42.509-28.375
			C48.851,213.272,47.56,212.91,45.965,212.91L45.965,212.91z"/>
	</g>
	<g opacity="0.1">
		<path d="M151.852,244.063c-12.946,2-55.416,26.932-84.849,15.334c-10.188-4.014-32.01-25.347-42.801-37.639
			c-3.637,2.39-6.155,4.601-6.155,5.636c0,3.334,35.287,40.707,49.114,46.155c29.433,11.598,71.901-13.334,84.849-15.334
			c5.695-0.88,4.65-7.565,1.694-14.778C153.188,243.73,152.582,243.95,151.852,244.063z"/>
	</g>
</g>
<g id="Layer_84_copy_2_1_">
	<path fill="#B49779" d="M290.753,332.489c-11.422,3.672-23.189,19.141-18.107,24.735c-2.522,6.008-1.126,15.933,3.462,16.423
		c1.75,4.29,6.702,11.217,11.005,7.779c1.25,1.977,12.529,6.324,16.783-6.967c4.252-13.293,4.555-16.705,4.527-27.556"/>
	<path fill="#D8B89A" d="M272.051,356.364c2.979-5.996,5.442-5.928,4.472-4.976c-1.951,1.917-3.105,3.896-3.884,5.825
		c0.003,0.004,0.004,0.007,0.008,0.011c-2.124,5.056-1.461,12.862,1.533,15.51c-0.717-4.388-0.079-7.464,0.801-9.425
		c1.455-3.241,1.803-2.824,1.384-1.35c-1.812,6.397-1.113,9.047-0.188,11.842c1.551,3.699,5.386,9.184,9.138,8.474
		c-1.67-2.993-1.511-5.952-0.766-8.831c0.897-3.473,3.741-7.064,3.049-4.98c-1.887,5.676-2.791,8.543-0.372,13.113
		c0.793,0.957,3.621,2.305,6.826,2.111c0.21-0.023,0.418-0.053,0.629-0.085c5.406-1.038,7.875-10.56,9.685-15.907
		c3.07-9.074,3.055-18.514,3.292-21.412l-16.904-13.795C279.868,335.988,268.682,350.193,272.051,356.364z"/>
	<path fill="#B49779" d="M303.508,367.138c-0.781,3.676-3.421,15.428-8.827,16.466c3.471-0.531,6.673-2.305,9.216-9.145
		c4.252-13.291,4.555-16.705,4.527-27.555l-3.78-2.514C304.404,347.292,304.199,363.879,303.508,367.138z"/>
	<path fill="#B49779" d="M272.051,356.364c0.165,0.303,0.352,0.588,0.588,0.85c0.778-1.93,1.933-3.907,3.884-5.824
		C277.493,350.437,275.03,350.368,272.051,356.364z"/>
	<path fill="#B49779" d="M276.364,361.961c0.419-1.477,0.071-1.894-1.384,1.349c-0.88,1.961-1.518,5.037-0.801,9.425
		c0.563,0.501,1.203,0.837,1.929,0.913c0.021,0.052,0.046,0.104,0.068,0.153C275.25,371.006,274.553,368.358,276.364,361.961z"/>
	<path fill="#B49779" d="M287.598,368.463c0.692-2.084-2.15,1.509-3.049,4.98c-0.745,2.879-0.904,5.838,0.766,8.831
		c0.605-0.114,1.208-0.377,1.799-0.849c0.03,0.049,0.071,0.098,0.112,0.148C284.807,377.006,285.711,374.139,287.598,368.463z"/>
	<g>
		<path fill="#A8DEEF" d="M311.851,349.598c-0.937,0-3.237-0.533-6.894-2.03c-9.854-4.044-20.35-11.147-19.649-14.874
			c1.836-9.793,7.127-42.574-1.904-53.269c-5.504-6.519-15.577-12.6-25.32-18.48c-6.833-4.125-13.311-8.035-17.373-11.638
			c1.159-2.893,4.893-11.846,9.275-18.582c4.424-6.803,7.194-7.818,8.452-7.818c0.774,0,1.5,0.368,2.217,1.127
			c2.515,2.658,7.436,5.988,13.664,10.205c16.598,11.235,41.677,28.214,46.857,50.271c3.207,13.653-6.599,60.534-9.298,65.089
			C311.869,349.598,311.86,349.598,311.851,349.598z"/>
		<path fill="#A8DEEF" d="M258.439,224.406c0.125,0,0.504,0.001,1.126,0.657c2.627,2.778,7.607,6.149,13.913,10.417
			c16.403,11.104,41.192,27.885,46.238,49.371c1.304,5.553,0.397,18.782-2.422,35.394c-2.293,13.506-4.995,24.271-6.335,27.733
			c-1.029-0.209-2.807-0.726-5.431-1.799c-4.77-1.957-9.77-4.692-13.376-7.316c-4.65-3.385-5.456-5.438-5.369-5.894
			c2.393-12.762,6.967-43.619-2.232-54.513c-5.663-6.707-15.845-12.854-25.691-18.797c-6.336-3.825-12.362-7.463-16.353-10.788
			c1.459-3.551,4.844-11.346,8.738-17.33C255.659,224.751,258.012,224.406,258.439,224.406 M258.438,221.406
			c-3.171,0-6.612,3.738-9.709,8.5c-5.425,8.338-9.792,19.81-9.792,19.81c9.431,8.96,33.856,19.467,43.321,30.677
			c6.691,7.924,5.517,31.008,1.576,52.023c-0.99,5.277,11.613,12.869,20.556,16.539c3.242,1.328,6.003,2.143,7.461,2.143
			c0.401,0,0.704-0.063,0.89-0.191c2.735-1.896,13.3-52.246,9.896-66.74c-7.246-30.851-51.881-51.638-60.892-61.164
			C260.697,221.896,259.585,221.406,258.438,221.406L258.438,221.406z"/>
	</g>
	<g opacity="0.1">
		<path d="M304.39,348.956c3.946-15.845,11.786-51.754,9.233-62.46c-5.966-25.038-25.918-36.001-48.647-54.288
			c-5.733-4.795-7.174-13.371-3.23-9.205c9.011,9.526,53.646,30.313,60.892,61.164c3.404,14.495-7.161,64.844-9.896,66.741
			C311.876,351.506,308.524,350.648,304.39,348.956z"/>
	</g>
</g>
<g id="Layer_84_copy_2" display="none">
	<path display="inline" fill="#B49779" d="M-2617.655,219.769c-3.5-11.5,2.5-30,10-29c3.5-5.5,12.455-10,15.478-6.5
		c4.522-1,13.043-0.865,12.675,4.636c2.338-0.095,12.348,6.722,3.848,17.793c-8.5,11.071-11.133,13.265-20.066,19.418"/>
	<path display="inline" fill="#D8B89A" d="M-2608.701,190.768c-3.23,5.868-1.769,7.858-1.539,6.518
		c0.461-2.699,1.428-4.776,2.572-6.518c0.004,0.001,0.009,0,0.013,0.001c2.945-4.628,9.741-8.528,13.626-7.569
		c-4.018,1.909-6.184,4.186-7.293,6.027c-1.833,3.043-1.292,3.092-0.318,1.908c4.226-5.136,6.801-6.07,9.627-6.898
		c3.926-0.828,10.623-0.792,12.179,2.704c-3.412,0.327-5.755,2.145-7.696,4.397c-2.342,2.717-3.673,7.104-2.355,5.348
		c3.589-4.786,5.43-7.163,10.568-7.772c1.239,0.108,3.962,1.668,5.632,4.419c0.102,0.187,0.196,0.375,0.289,0.565
		c2.231,5.047-4.187,12.502-7.55,17.037c-5.708,7.697-13.478,13.059-15.726,14.906l-20.983-6.072
		C-2620.99,208.81-2615.697,191.507-2608.701,190.768z"/>
	<path display="inline" fill="#B49779" d="M-2581.896,210.547c2.578-2.737,10.73-11.603,8.499-16.649
		c1.543,3.164,1.913,6.812-2.258,12.8c-8.5,11.071-11.133,13.265-20.066,19.418l-4.225-1.681
		C-2597.698,222.587-2584.18,212.973-2581.896,210.547z"/>
	<path display="inline" fill="#B49779" d="M-2608.701,190.768c0.341-0.036,0.685-0.045,1.033,0c-1.145,1.741-2.11,3.818-2.572,6.518
		C-2610.469,198.626-2611.932,196.636-2608.701,190.768z"/>
	<path display="inline" fill="#B49779" d="M-2601.64,191.135c-0.974,1.184-1.515,1.135,0.318-1.908
		c1.11-1.842,3.276-4.118,7.293-6.027c0.731,0.181,1.372,0.515,1.852,1.069c0.052-0.012,0.111-0.021,0.165-0.032
		C-2594.84,185.064-2597.415,185.999-2601.64,191.135z"/>
	<path display="inline" fill="#B49779" d="M-2589.885,196.686c-1.316,1.756,0.015-2.631,2.355-5.348
		c1.94-2.253,4.285-4.07,7.697-4.397c0.251,0.563,0.381,1.209,0.33,1.964c0.056-0.002,0.121,0.003,0.186,0.009
		C-2584.455,189.522-2586.296,191.899-2589.885,196.686z"/>
	<g display="inline">
		<path fill="#D9F0F9" d="M-2656.854,275.112c-17.684,0-36.909-7.477-50.946-12.935c-7.02-2.73-12.564-4.887-16.185-5.444
			c-1.506-0.232-2.046-0.905-2.321-1.391c-0.617-1.09-1.214-3.996,1.73-11.213c3.039-7.451,8.266-15.62,9.982-18.223
			c5.28,1.297,12.188,4.405,19.479,7.686c10.394,4.677,21.142,9.514,29.64,10.336c0.395,0.038,0.799,0.057,1.213,0.057
			c14.102,0,36.987-22.06,43.666-28.821c0.616-0.624,1.782-0.755,2.652-0.755c5.091,0,14.311,4.264,20.787,8.476
			c3.793,2.467,5.247,3.979,5.624,4.543c-2.187,4.801-35.146,39.593-48.201,44.727c-4.993,1.963-10.752,2.958-17.116,2.958
			C-2656.853,275.112-2656.854,275.112-2656.854,275.112z"/>
		<path fill="#C5E9EF" d="M-2617.945,215.909c4.798,0,13.678,4.142,19.969,8.232c2.445,1.591,3.858,2.757,4.586,3.455
			c-2.078,3.073-9.388,11.431-19.185,21.014c-12.044,11.781-22.403,20.061-27.71,22.147c-4.818,1.895-10.394,2.854-16.569,2.854
			c-17.402,0-36.477-7.417-50.403-12.833c-7.104-2.763-12.717-4.945-16.499-5.528c-0.962-0.148-1.153-0.485-1.244-0.647
			c-0.217-0.382-1.146-2.653,1.813-9.907c2.697-6.613,7.172-13.838,9.259-17.063c5.01,1.394,11.439,4.286,18.197,7.328
			c10.505,4.727,21.367,9.614,30.111,10.461c0.439,0.042,0.896,0.063,1.357,0.063c14.281,0,36.04-20.467,44.732-29.267
			C-2619.425,216.111-2618.957,215.909-2617.945,215.909 M-2617.945,212.909c-1.6,0-2.892,0.363-3.719,1.201
			c-14.522,14.702-32.106,28.375-42.599,28.375c-0.364,0-0.722-0.017-1.068-0.05c-14.614-1.414-37.19-15.553-49.937-18.22
			c0,0-6.938,10.131-10.698,19.348c-2.922,7.165-3.922,13.777,1.751,14.652c10.543,1.625,40.628,18.396,67.359,18.396
			c6.161,0,12.142-0.89,17.667-3.063c13.855-5.448,49.217-42.821,49.217-46.155c0-1.054-2.619-3.327-6.371-5.768
			C-2602.677,217.507-2612.253,212.909-2617.945,212.909L-2617.945,212.909z"/>
	</g>
	<g display="inline">
		<path fill="#C5E9EF" d="M-2596.341,221.627c-10.771,12.271-32.761,33.742-43.006,37.771
			c-29.495,11.598-72.053-13.334-85.025-15.334c-0.615-0.095-1.128-0.277-1.593-0.5c-2.922,7.165-3.922,13.777,1.751,14.652
			c12.975,2,55.532,26.932,85.026,15.334c13.856-5.448,49.217-42.821,49.217-46.155
			C-2589.969,226.341-2592.588,224.067-2596.341,221.627z"/>
	</g>
</g>
<g id="메인토끼_다리_copy">
	<path fill="#D8B89A" d="M229.182,480.344c0-28.121,20.943-50.605,45.167-56.576c24.599-6.061,45.799,28.465,45.166,56.576
		c-0.604,26.875-12.405,41.414-28.095,50.785l0.806,3.771C315.213,539.075,330,547.54,330,566.288
		c0,4.865-13.913,6.396-18.955,5.992c-7.057,3.029-18.751,2.223-24.8,0.203c-10.063,0.561-14.519,0-18.147-1.416
		c-1.303-0.508-9.611-5.455-10.731-12.395c-0.493-3.566,2.062-7.205,0.65-11.043c-1.412-3.84-2.031-14.25-2.031-14.25
		C240.296,524.01,229.182,501.01,229.182,480.344z"/>
	<path fill="#B49779" d="M178.026,480.344c0-28.121-20.942-50.605-45.166-56.576c-24.6-6.061-45.799,28.465-45.167,56.576
		c0.605,26.875,12.405,41.414,28.096,50.785l-0.808,3.771c-22.985,4.174-37.773,12.639-37.773,31.387
		c0,4.865,13.914,6.396,18.955,5.992c7.057,3.031,18.751,2.223,24.801,0.203c10.063,0.561,14.517,0,18.146-1.416
		c1.304-0.508,9.611-5.455,10.732-12.395c0.493-3.566-2.063-7.205-0.65-11.043c1.412-3.84,2.031-14.25,2.031-14.25
		C166.913,524.01,178.026,501.01,178.026,480.344z"/>
	<path fill="#D8B89A" d="M132.86,423.768c-24.6-6.061-45.799,28.465-45.167,56.576c0.605,26.875,12.405,41.414,28.096,50.785
		l-0.808,3.771c-22.985,4.174-37.773,12.639-37.773,31.387c0,3.994,9.373,5.74,15.521,6.014c-0.98-4.66-0.62-8.184,0.268-10.365
		c2.457-6.045,4.149-6.084,3.144-1.873c-1.475,6.174-0.907,9.504,0.088,12.242c5.595,2.375,14.053,2.359,20.331,1.25
		c-0.805-2.512-0.751-5.068-0.319-7.609c0.744-4.391,5.704-9.898,5.068-7.248c-1.459,6.076-2.257,9.619-0.405,13.805
		c0.02-0.006,0.042-0.012,0.063-0.02c10.063,0.563,14.517,0,18.146-1.414c1.304-0.508,9.611-5.455,10.732-12.396
		c0.493-3.564-2.063-7.203-0.65-11.043s2.031-14.248,2.031-14.248c15.689-9.371,26.803-32.371,26.803-53.037
		C178.026,452.223,157.083,429.737,132.86,423.768z"/>
	<path fill="#937B6A" d="M96.14,560.063c1.006-4.211-0.687-4.172-3.144,1.873c-0.888,2.184-1.248,5.705-0.268,10.365
		c1.341,0.061,2.531,0.053,3.435-0.02c0.021,0.008,0.044,0.016,0.063,0.023C95.232,569.565,94.665,566.235,96.14,560.063z"/>
	<path fill="#937B6A" d="M121.307,558.696c0.636-2.648-4.324,2.859-5.068,7.25c-0.432,2.539-0.484,5.098,0.319,7.607
		c1.621-0.287,3.103-0.643,4.343-1.053C119.05,568.317,119.848,564.772,121.307,558.696z"/>
	<path fill="#937B6A" d="M311.069,560.063c-1.006-4.211,0.688-4.172,3.145,1.873c0.887,2.184,1.249,5.705,0.268,10.365
		c-1.341,0.061-2.532,0.053-3.435-0.02c-0.021,0.008-0.043,0.016-0.064,0.023C311.976,569.565,312.544,566.235,311.069,560.063z"/>
	<path fill="#937B6A" d="M285.901,558.696c-0.636-2.648,4.325,2.859,5.068,7.25c0.432,2.539,0.485,5.098-0.319,7.607
		c-1.621-0.287-3.102-0.643-4.343-1.053C288.158,568.317,287.36,564.772,285.901,558.696z"/>
	<path display="none" fill="none" d="M30.991,471.668c0-17.395-12.983-31.307-28-35c-15.25-3.75-28.393,17.609-28,35
		c0.375,16.625,7.689,25.621,17.417,31.418l-0.5,2.332c-14.25,2.584-23.417,7.82-23.417,19.418c0,3.01,8.625,3.957,11.75,3.707
		c4.375,1.875,11.625,1.375,15.375,0.125c6.237,0.348,9,0,11.25-0.875c0.808-0.313,5.958-3.375,6.652-7.668
		c0.306-2.207-1.277-4.457-0.402-6.832s1.259-8.813,1.259-8.813C24.101,498.682,30.991,484.454,30.991,471.668z"/>
</g>
<g id="메인토끼_몸통_copy">
	
		<radialGradient id="SVGID_1_" cx="257.2307" cy="77.186" r="155.1862" gradientTransform="matrix(0.9979 0 0 -1 -47.4333 404.292)" gradientUnits="userSpaceOnUse">
		<stop  offset="0" style="stop-color:#F2DAC7"/>
		<stop  offset="1" style="stop-color:#D8B89A"/>
	</radialGradient>
	<path fill="url(#SVGID_1_)" d="M203.604,191.779c-66.687,0.492-86.069,173.714-86.069,241.321c0,67.574,33.033,83.771,86.069,84
		c53.036-0.229,86.07-16.426,86.07-84C289.674,365.493,270.291,192.271,203.604,191.779z"/>
	<g>
		<path fill="#D9F0F9" d="M205.104,243.444c0.875,0.004,1.732,0.007,2.573,0.007c21.277,0,31.995-1.755,51.78-11.999
			c24.375,44.225,30.862,139.123,32.548,192.886l-0.546,0.168c-15.399,4.75-32.838,10.129-86.355,10.229V243.444z"/>
		<path fill="#D9F0F9" d="M258.836,233.457c9.731,18.318,17.476,46.908,23.034,85.053c5.503,37.771,7.717,77.396,8.6,104.73
			c-15.024,4.635-32.375,9.797-83.866,9.99V244.95c0.361,0.001,0.718,0.001,1.073,0.001
			C228.755,244.951,239.606,243.248,258.836,233.457 M260.053,229.449c-20.844,10.96-31.571,12.502-52.375,12.502
			c-1.316,0-2.671-0.006-4.073-0.017v194.303c56.813,0,73.545-5.768,89.937-10.803C291.533,359.439,283.505,270.473,260.053,229.449
			L260.053,229.449z"/>
	</g>
	<g>
		<path fill="#D9F0F9" d="M202.104,434.735c-53.517-0.1-70.955-5.479-86.354-10.229l-0.547-0.17
			c1.685-53.762,8.174-148.661,32.548-192.885c19.785,10.244,30.503,11.999,51.779,11.999c0.842,0,1.698-0.003,2.573-0.007
			L202.104,434.735L202.104,434.735z"/>
		<path fill="#D9F0F9" d="M148.372,233.457c19.229,9.791,30.082,11.494,51.158,11.494c0.355,0,0.713,0,1.073-0.001v188.281
			c-51.491-0.193-68.842-5.357-83.866-9.99c0.884-27.336,3.098-66.96,8.601-104.73C130.896,280.365,138.64,251.775,148.372,233.457
			 M147.155,229.449c-23.451,41.023-31.479,129.99-33.486,195.985c16.392,5.035,33.124,10.803,89.937,10.803V241.935
			c-1.401,0.011-2.757,0.017-4.072,0.017C178.727,241.951,168,240.409,147.155,229.449L147.155,229.449z"/>
	</g>
	<pattern  id="SVGID_3_" xlink:href="#SVGID_2_" patternTransform="matrix(0.2395 0 0 -0.24 -11630.2734 -4028.5703)">
	</pattern>
	<path fill="url(#SVGID_3_)" stroke="#C7EA8B" stroke-width="3" stroke-miterlimit="10" d="M202.704,416.768
		c21.289,0,59.229-3.229,69.938-5.666c3.077-9.333-0.416-71.779,0-77.113c1.081-0.666,13.222-1,17.879-2.334
		c2.218-1.343,0.333-6.553,0-12.887c-2.994,0-14.969,1.334-18.96,0c-0.333-4.334-5.988-33-7.65-42.155
		c-1.663-9.155-2.969-9.178-5.63-9.512c0-0.878,0.567-49.318-0.107-50.793c-2.227-4.856-6.592-9.146-8.388-9.304
		c-1.797-0.157-2.288,59.821-4.573,59.802c-12.341-0.106-30.625,1.489-42.018,1.489c-11.391,0-29.675-1.596-42.017-1.489
		c-2.284,0.02-2.777-59.959-4.572-59.802c-1.796,0.157-6.163,4.447-8.388,9.304c-0.675,1.475-0.108,49.915-0.108,50.793
		c-2.66,0.334-3.966,0.356-5.629,9.512c-1.663,9.155-7.316,37.821-7.649,42.155c-3.992,1.334-15.966,0-18.96,0
		c-0.333,6.334-2.218,11.544,0,12.887c4.656,1.334,16.798,1.668,17.879,2.334c0.416,5.334-3.077,67.78,0,77.113
		c10.707,2.438,48.648,5.666,69.937,5.666"/>
	<path fill="#FFFFFF" d="M156.607,207.004c7.829,11.931,38.946,32.431,46.589,34.931c-4.83,6.5-13.316,15-16.059,21
		c-6.734-4.5-45.635-30.598-48.139-40.049C145.055,212.547,156.607,207.004,156.607,207.004z"/>
	<path fill="#FFFFFF" d="M249.785,207.004c-7.83,11.931-38.946,32.431-46.59,34.931c4.831,6.5,13.317,15,16.061,21
		c6.733-4.5,45.635-30.598,48.138-40.049C261.336,212.547,249.785,207.004,249.785,207.004z"/>
	<path fill="#C7EA8B" d="M203.465,401.959c-64.963,1.066-46.96-50.58-46.095-59.353c0.864-8.771-2.39-12.888,5.458-8.544
		c2.855,1.58,7.169,2.753,12.357,3.592c8.059,1.303,18.24,1.795,28.417,1.742c10.176,0.053,20.358-0.439,28.416-1.742
		c5.189-0.839,9.501-2.012,12.358-3.592c7.848-4.344,4.594-0.229,5.459,8.544c0.865,8.771,18.868,60.419-46.095,59.353"/>
</g>
<g id="메인토끼_머리_copy_5">
	<path fill="#D8D2CE" d="M261.92,0.372c1.92-1.629,3.555,2.125,1.746,10.688c-2.033,9.623-1.438,24.623-0.271,37.542
		c2.045,22.626-4.095,35.531-8.223,39.104c-5.489,4.75,0.802,9.637-3.243,16.051s-2.745,7.949-6.736,11.115
		c-3.99,3.166-30.586-41.227-21.105-53.727C233.568,48.645,258.426,3.335,261.92,0.372z"/>
	<path fill="#B49779" d="M214.831,81.685c0.998-7.25,19.209-41.75,21.455-45c2.244-3.25,20.707-29.75,24.198-35
		c3.492-5.25-2.263,10.14-7.925,17.405c-6.911,8.869-8.429,22.186-11.423,28.186s-2.495,11-6.237,14.25
		c-3.741,3.25,2.769,17.757-3.741,24.75c-6.511,6.993,9.118,14.909,6.375,16.159C234.789,103.685,214.831,81.685,214.831,81.685z"/>
	<path fill="#D8D2CE" d="M145.289,0.372c-1.919-1.629-3.556,2.125-1.746,10.688c2.033,9.623,1.438,24.623,0.27,37.542
		c-2.046,22.626,4.095,35.531,8.224,39.104c5.487,4.75-0.804,9.637,3.242,16.051s2.744,7.949,6.736,11.115
		s30.586-41.227,21.106-53.727C173.64,48.646,148.782,3.335,145.289,0.372z"/>
	<path fill="#B49779" d="M192.378,81.685c-0.998-7.25-19.21-41.75-21.455-45c-2.246-3.25-20.707-29.75-24.2-35
		s2.263,10.14,7.925,17.405c6.912,8.869,8.43,22.186,11.423,28.186c2.994,6,2.495,11,6.237,14.25s-2.768,17.757,3.742,24.75
		c6.51,6.993-9.119,14.909-6.375,16.159S192.378,81.685,192.378,81.685z"/>
	<path fill="#D8B89A" d="M281.824,180.287c-12.079-29.235-12.988-26.865-19.873-32.944c-6.887-6.079-12.986-16.647-14.155-17.981
		c-0.269-1.607,1.354-3.803-0.798-7.976c-2.153-4.172,5.571-11.217-2.78-20.91c-8.351-9.692-25.774-28.303-33.5-21.257
		c-7.216,6.581-7.516,5.916-7.523,5.8l0,0l0,0l0,0l0,0c-0.008,0.116-0.307,0.781-7.522-5.8c-7.726-7.046-25.149,11.564-33.5,21.257
		c-8.353,9.693-0.626,16.738-2.78,20.91c-2.152,4.173-0.53,6.368-0.798,7.976c-1.169,1.334-7.268,11.902-14.154,17.981
		c-6.885,6.079-7.794,3.709-19.873,32.944c-12.067,29.206,46.983,49.099,78.583,50.317v0.004c0.015-0.001,0.03-0.002,0.044-0.002
		c0.016,0,0.03,0.001,0.044,0.002v-0.004C234.841,229.386,293.892,209.493,281.824,180.287z"/>
	<path fill="#7A4B3F" d="M240.09,148.872c0.659-4.045,0.25-24.5,6.175-20.938c7.045,4.235,4.366,19.5,0,21.167
		C245.491,149.397,240.018,149.321,240.09,148.872z"/>
	<path fill="#544032" d="M241.026,127.351c1.622-2.916,3.146-2.541,4.504-2.916c1.358-0.375,5.726,1.063,7.597,0.75
		s1.933,0.375-0.313,0.75c-2.246,0.375-5.862,0.313-3.992,0.813c1.871,0.5,6.611,1,3.057,1.313c-3.556,0.313-6.54-0.531-8.42,1
		c-2.558,2.083-2.73,16.5-3.019,19.75s-1.161,3.188-1.161,1.5C239.28,150.06,239.404,130.267,241.026,127.351z"/>
	<path fill="#3F2319" d="M241.026,127.351c1.622-2.916,3.139-2.803,4.504-3.15c0.902-0.229,2.138,0.26,0,1.422
		c-4.654,2.53-4.213,15.771-5.113,23.432c-0.381,3.24-1.137,2.944-1.137,1.256C239.28,150.06,239.404,130.267,241.026,127.351z"/>
	<ellipse fill="#8E6029" cx="246.029" cy="138.399" rx="3.604" ry="8.148"/>
	<ellipse fill="#160A04" cx="246.029" cy="138.399" rx="2.634" ry="6.965"/>
	<circle fill="#F4E2D9" cx="246.897" cy="131.83" r="1.367"/>
	<path fill="#7A4B3F" d="M167.118,148.872c-0.659-4.045-0.25-24.5-6.176-20.938c-7.044,4.235-4.365,19.5,0,21.167
		C161.718,149.397,167.191,149.321,167.118,148.872z"/>
	<path fill="#544032" d="M166.183,127.351c-1.622-2.916-3.146-2.541-4.504-2.916s-5.724,1.063-7.595,0.75s-1.935,0.375,0.312,0.75
		s5.863,0.313,3.992,0.813s-6.611,1-3.056,1.313c3.555,0.313,6.54-0.531,8.42,1c2.557,2.083,2.73,16.5,3.018,19.75
		c0.288,3.25,1.161,3.188,1.161,1.5C167.929,150.06,167.804,130.267,166.183,127.351z"/>
	<path fill="#3F2319" d="M166.183,127.351c-1.622-2.916-3.139-2.803-4.504-3.15c-0.902-0.229-2.137,0.26,0,1.422
		c4.655,2.53,4.213,15.771,5.114,23.432c0.381,3.24,1.136,2.944,1.136,1.256C167.929,150.06,167.804,130.267,166.183,127.351z"/>
	<ellipse fill="#8E6029" cx="161.179" cy="138.399" rx="3.604" ry="8.148"/>
	<ellipse fill="#160A04" cx="161.18" cy="138.399" rx="2.633" ry="6.965"/>
	<circle fill="#F4E2D9" cx="160.311" cy="131.83" r="1.367"/>
	
		<linearGradient id="SVGID_4_" gradientUnits="userSpaceOnUse" x1="222.3801" y1="211.4766" x2="241.6135" y2="185.9016" gradientTransform="matrix(1 0 0 -1 -47.6001 404.292)">
		<stop  offset="0" style="stop-color:#D8B89A"/>
		<stop  offset="0.2496" style="stop-color:#DDBFA3"/>
		<stop  offset="0.6636" style="stop-color:#ECD2BD"/>
		<stop  offset="0.8043" style="stop-color:#F2DAC7"/>
	</linearGradient>
	<path fill="url(#SVGID_4_)" d="M171.097,194.602c-5.58,2.334-10.902,12.208-7.908,14.771c2.866,2.453,13.099,9.938,26.195,9.938
		c8.857,0,12.308-5.375,12.64-7.542c0.333-2.167,0.167-12.333,1.571-12.333h0.021c1.403,0-9.191-7.655-13.059-7.655
		C181.733,191.019,176.677,192.268,171.097,194.602z"/>
	
		<linearGradient id="SVGID_5_" gradientUnits="userSpaceOnUse" x1="-6079.8555" y1="211.4761" x2="-6060.6226" y2="185.9017" gradientTransform="matrix(-1 0 0 -1 -5847.4277 404.292)">
		<stop  offset="0" style="stop-color:#D8B89A"/>
		<stop  offset="0.2496" style="stop-color:#DDBFA3"/>
		<stop  offset="0.6636" style="stop-color:#ECD2BD"/>
		<stop  offset="0.8043" style="stop-color:#F2DAC7"/>
	</linearGradient>
	<path fill="url(#SVGID_5_)" d="M236.111,194.602c5.58,2.334,10.902,12.208,7.908,14.771c-2.866,2.453-13.097,9.938-26.194,9.938
		c-8.856,0-12.309-5.375-12.641-7.542c-0.333-2.167-0.167-12.333-1.57-12.333h-0.02c-1.404,0,9.19-7.655,13.058-7.655
		C225.475,191.019,230.532,192.268,236.111,194.602z"/>
	<path fill="#EF8993" d="M203.614,218.247c3.867,0,9.474,2.385,14.709,2.188c18.464-0.695,28.69-13.625,25.696-11.063
		c-2.866,2.453-13.097,9.938-26.194,9.938c-8.856,0-12.309-5.375-12.641-7.542c-0.333-2.167-0.167-12.333-1.57-12.333h-0.02
		c-1.404,0-1.238,10.166-1.571,12.333c-0.332,2.167-3.783,7.542-12.64,7.542c-13.097,0-23.329-7.484-26.195-9.938
		c-2.994-2.563,7.233,10.367,25.696,11.063c5.236,0.197,10.842-2.188,14.709-2.188"/>
	<path fill="#EF6579" d="M163.289,209.862c0.716,0.612,1.766,0.994,1.59,0.851c-2.919-2.378-2.73-4.278-1.975-6.71
		c-0.757-0.193-3.311-0.299-3.5,0.182C159.469,204.746,162.042,208.795,163.289,209.862z"/>
	<path fill="#EF6579" d="M243.919,209.862c-0.716,0.612-1.767,0.994-1.59,0.851c2.919-2.378,2.729-4.278,1.974-6.71
		c0.757-0.193,3.311-0.299,3.5,0.182C247.74,204.746,245.167,208.795,243.919,209.862z"/>
	
		<linearGradient id="SVGID_6_" gradientUnits="userSpaceOnUse" x1="251.5383" y1="252.0996" x2="251.5383" y2="202.8498" gradientTransform="matrix(1 0 0 -1 -47.6001 404.292)">
		<stop  offset="0" style="stop-color:#D8B89A"/>
		<stop  offset="1" style="stop-color:#B49779"/>
	</linearGradient>
	<path fill="url(#SVGID_6_)" d="M203.604,151.451c-30.437,0-17.962,32.983-16.216,37.983c1.747,5,5.738,12,16.216,12
		c10.479,0,14.471-7,16.216-12C221.567,184.435,235.912,151.451,203.604,151.451z"/>
	<path fill="#F9A7AB" d="M203.196,198.56c-9.979,0-17.554-14.125-15.808-9.125c1.747,5,5.738,12,16.216,12
		c10.479,0,14.471-7,16.216-12C221.567,184.435,213.175,198.56,203.196,198.56z"/>
</g>
<g id="메인토끼수염_copy">
	
		<linearGradient id="SVGID_7_" gradientUnits="userSpaceOnUse" x1="267.6184" y1="229.2056" x2="330.304" y2="229.2056" gradientTransform="matrix(1 0 0 -1 -47.6001 404.292)">
		<stop  offset="0" style="stop-color:#666666"/>
		<stop  offset="0.2438" style="stop-color:#6A6867;stop-opacity:0.7562"/>
		<stop  offset="0.4632" style="stop-color:#756F6A;stop-opacity:0.5368"/>
		<stop  offset="0.6733" style="stop-color:#877B6E;stop-opacity:0.3267"/>
		<stop  offset="0.8764" style="stop-color:#A08B74;stop-opacity:0.1236"/>
		<stop  offset="1" style="stop-color:#B49779;stop-opacity:0"/>
	</linearGradient>
	<path fill="none" stroke="url(#SVGID_7_)" stroke-width="0.25" stroke-miterlimit="10" d="M220.052,178.102
		c19.053-5.35,47.831-7.102,62.637-5.397"/>
	
		<linearGradient id="SVGID_8_" gradientUnits="userSpaceOnUse" x1="267.5129" y1="227.1509" x2="324.4846" y2="227.1509" gradientTransform="matrix(1 0 0 -1 -47.6001 404.292)">
		<stop  offset="0" style="stop-color:#666666"/>
		<stop  offset="0.2438" style="stop-color:#6A6867;stop-opacity:0.7562"/>
		<stop  offset="0.4632" style="stop-color:#756F6A;stop-opacity:0.5368"/>
		<stop  offset="0.6733" style="stop-color:#877B6E;stop-opacity:0.3267"/>
		<stop  offset="0.8764" style="stop-color:#A08B74;stop-opacity:0.1236"/>
		<stop  offset="1" style="stop-color:#B49779;stop-opacity:0"/>
	</linearGradient>
	<path fill="none" stroke="url(#SVGID_8_)" stroke-width="0.25" stroke-miterlimit="10" d="M219.95,181.019
		c18.832-6.084,42.063-8.617,56.924-7.489"/>
	
		<linearGradient id="SVGID_9_" gradientUnits="userSpaceOnUse" x1="265.2141" y1="224.269" x2="326.5276" y2="224.269" gradientTransform="matrix(1 0 0 -1 -47.6001 404.292)">
		<stop  offset="0" style="stop-color:#666666"/>
		<stop  offset="0.2438" style="stop-color:#6A6867;stop-opacity:0.7562"/>
		<stop  offset="0.4632" style="stop-color:#756F6A;stop-opacity:0.5368"/>
		<stop  offset="0.6733" style="stop-color:#877B6E;stop-opacity:0.3267"/>
		<stop  offset="0.8764" style="stop-color:#A08B74;stop-opacity:0.1236"/>
		<stop  offset="1" style="stop-color:#B49779;stop-opacity:0"/>
	</linearGradient>
	<path fill="none" stroke="url(#SVGID_9_)" stroke-width="0.25" stroke-miterlimit="10" d="M217.632,181.927
		c19.557-3.009,46.772-5.628,61.266-2.147"/>
	
		<linearGradient id="SVGID_10_" gradientUnits="userSpaceOnUse" x1="266.1301" y1="215.9312" x2="328.4944" y2="215.9312" gradientTransform="matrix(1 0 0 -1 -47.6001 404.292)">
		<stop  offset="0" style="stop-color:#666666"/>
		<stop  offset="0.2438" style="stop-color:#6A6867;stop-opacity:0.7562"/>
		<stop  offset="0.4632" style="stop-color:#756F6A;stop-opacity:0.5368"/>
		<stop  offset="0.6733" style="stop-color:#877B6E;stop-opacity:0.3267"/>
		<stop  offset="0.8764" style="stop-color:#A08B74;stop-opacity:0.1236"/>
		<stop  offset="1" style="stop-color:#B49779;stop-opacity:0"/>
	</linearGradient>
	<path fill="none" stroke="url(#SVGID_10_)" stroke-width="0.25" stroke-miterlimit="10" d="M218.542,184.688
		c19.688-1.962,48.028,3.515,62.316,7.762"/>
	
		<linearGradient id="SVGID_11_" gradientUnits="userSpaceOnUse" x1="267.3391" y1="221.0083" x2="334.1135" y2="221.0083" gradientTransform="matrix(1 0 0 -1 -47.6001 404.292)">
		<stop  offset="0" style="stop-color:#666666"/>
		<stop  offset="0.2438" style="stop-color:#6A6867;stop-opacity:0.7562"/>
		<stop  offset="0.4632" style="stop-color:#756F6A;stop-opacity:0.5368"/>
		<stop  offset="0.6733" style="stop-color:#877B6E;stop-opacity:0.3267"/>
		<stop  offset="0.8764" style="stop-color:#A08B74;stop-opacity:0.1236"/>
		<stop  offset="1" style="stop-color:#B49779;stop-opacity:0"/>
	</linearGradient>
	<path fill="none" stroke="url(#SVGID_11_)" stroke-width="0.25" stroke-miterlimit="10" d="M219.752,179.257
		c19.682-2.029,52.424,4.253,66.727,8.451"/>
	
		<linearGradient id="SVGID_12_" gradientUnits="userSpaceOnUse" x1="-6034.6191" y1="229.2056" x2="-5971.9331" y2="229.2056" gradientTransform="matrix(-1 0 0 -1 -5847.5957 404.292)">
		<stop  offset="0" style="stop-color:#666666"/>
		<stop  offset="0.2438" style="stop-color:#6A6867;stop-opacity:0.7562"/>
		<stop  offset="0.4632" style="stop-color:#756F6A;stop-opacity:0.5368"/>
		<stop  offset="0.6733" style="stop-color:#877B6E;stop-opacity:0.3267"/>
		<stop  offset="0.8764" style="stop-color:#A08B74;stop-opacity:0.1236"/>
		<stop  offset="1" style="stop-color:#B49779;stop-opacity:0"/>
	</linearGradient>
	<path fill="none" stroke="url(#SVGID_12_)" stroke-width="0.25" stroke-miterlimit="10" d="M186.99,178.102
		c-19.054-5.35-47.831-7.102-62.638-5.397"/>
	
		<linearGradient id="SVGID_13_" gradientUnits="userSpaceOnUse" x1="-6034.7256" y1="227.1509" x2="-5977.7539" y2="227.1509" gradientTransform="matrix(-1 0 0 -1 -5847.5957 404.292)">
		<stop  offset="0" style="stop-color:#666666"/>
		<stop  offset="0.2438" style="stop-color:#6A6867;stop-opacity:0.7562"/>
		<stop  offset="0.4632" style="stop-color:#756F6A;stop-opacity:0.5368"/>
		<stop  offset="0.6733" style="stop-color:#877B6E;stop-opacity:0.3267"/>
		<stop  offset="0.8764" style="stop-color:#A08B74;stop-opacity:0.1236"/>
		<stop  offset="1" style="stop-color:#B49779;stop-opacity:0"/>
	</linearGradient>
	<path fill="none" stroke="url(#SVGID_13_)" stroke-width="0.25" stroke-miterlimit="10" d="M187.092,181.019
		c-18.832-6.084-42.063-8.617-56.924-7.489"/>
	
		<linearGradient id="SVGID_14_" gradientUnits="userSpaceOnUse" x1="-6037.0244" y1="224.269" x2="-5975.7095" y2="224.269" gradientTransform="matrix(-1 0 0 -1 -5847.5957 404.292)">
		<stop  offset="0" style="stop-color:#666666"/>
		<stop  offset="0.2438" style="stop-color:#6A6867;stop-opacity:0.7562"/>
		<stop  offset="0.4632" style="stop-color:#756F6A;stop-opacity:0.5368"/>
		<stop  offset="0.6733" style="stop-color:#877B6E;stop-opacity:0.3267"/>
		<stop  offset="0.8764" style="stop-color:#A08B74;stop-opacity:0.1236"/>
		<stop  offset="1" style="stop-color:#B49779;stop-opacity:0"/>
	</linearGradient>
	<path fill="none" stroke="url(#SVGID_14_)" stroke-width="0.25" stroke-miterlimit="10" d="M189.41,181.927
		c-19.558-3.009-46.773-5.628-61.267-2.147"/>
	
		<linearGradient id="SVGID_15_" gradientUnits="userSpaceOnUse" x1="-6036.1084" y1="215.9312" x2="-5973.7432" y2="215.9312" gradientTransform="matrix(-1 0 0 -1 -5847.5957 404.292)">
		<stop  offset="0" style="stop-color:#666666"/>
		<stop  offset="0.2438" style="stop-color:#6A6867;stop-opacity:0.7562"/>
		<stop  offset="0.4632" style="stop-color:#756F6A;stop-opacity:0.5368"/>
		<stop  offset="0.6733" style="stop-color:#877B6E;stop-opacity:0.3267"/>
		<stop  offset="0.8764" style="stop-color:#A08B74;stop-opacity:0.1236"/>
		<stop  offset="1" style="stop-color:#B49779;stop-opacity:0"/>
	</linearGradient>
	<path fill="none" stroke="url(#SVGID_15_)" stroke-width="0.25" stroke-miterlimit="10" d="M188.5,184.688
		c-19.689-1.962-48.029,3.515-62.317,7.762"/>
	
		<linearGradient id="SVGID_16_" gradientUnits="userSpaceOnUse" x1="-6034.8984" y1="221.0083" x2="-5968.123" y2="221.0083" gradientTransform="matrix(-1 0 0 -1 -5847.5957 404.292)">
		<stop  offset="0" style="stop-color:#666666"/>
		<stop  offset="0.2438" style="stop-color:#6A6867;stop-opacity:0.7562"/>
		<stop  offset="0.4632" style="stop-color:#756F6A;stop-opacity:0.5368"/>
		<stop  offset="0.6733" style="stop-color:#877B6E;stop-opacity:0.3267"/>
		<stop  offset="0.8764" style="stop-color:#A08B74;stop-opacity:0.1236"/>
		<stop  offset="1" style="stop-color:#B49779;stop-opacity:0"/>
	</linearGradient>
	<path fill="none" stroke="url(#SVGID_16_)" stroke-width="0.25" stroke-miterlimit="10" d="M187.29,179.257
		c-19.683-2.029-52.424,4.253-66.728,8.451"/>
</g>
</svg>
