<?xml version="1.0" encoding="utf-8"?>
<!-- Generator: Adobe Illustrator 16.0.0, SVG Export Plug-In . SVG Version: 6.00 Build 0)  -->
<!DOCTYPE svg PUBLIC "-//W3C//DTD SVG 1.1//EN" "http://www.w3.org/Graphics/SVG/1.1/DTD/svg11.dtd">
<svg version="1.1" id="Layer_1" xmlns="http://www.w3.org/2000/svg" xmlns:xlink="http://www.w3.org/1999/xlink" x="0px" y="0px"
	 width="1007.883px" height="716.289px" viewBox="91.725 64.47 1007.883 716.289"
	 enable-background="new 91.725 64.47 1007.883 716.289" xml:space="preserve">
<g>
	<path fill="#231F20" d="M1033.271,579.503c-0.903,2.879-1.15,5.539-0.536,7.842c4.481,16.789,9.32,17.33,9.32,17.33
		c10.314,6.191,30.842,11.545,46.939,4.234c-0.107,0.439-0.216,0.873-0.328,1.328c-9.863,40.215-49.437,28.539-67.441,22.822
		c0,0-4.838-0.541-9.32-17.33C1009.436,606.482,1020.815,591.468,1033.271,579.503z"/>
	<path fill="#231F20" d="M1042.055,604.675c0,0-4.839-0.541-9.32-17.33c-0.613-2.303-0.367-4.963,0.536-7.842
		c10.155-9.756,21.025-17.486,25.69-18.414c10.389-2.068,26.567,9.301,34.082,12.648c-1.984,0-6.481,1.846-10.354,9.242
		c4.212-4.012,12.181-3.594,16.919-1.695c-3.037,1.479-4.864,4.352-10.613,27.625C1072.896,616.22,1052.37,610.867,1042.055,604.675
		z"/>
</g>
<path fill="#231F20" d="M875.843,270.352c-37.654,0-39.177,53.02-29.592,106.974c3.101,17.454-14.395,35.157-13.591,54.451
	c14.626-13.683,31.938-35.872,42.736-45.886c0,0,24.97,11.416,33.381,21.963c3.148,3.949,3.98,7.775,0.308,10.836
	c-12.111,10.085-38.811,57.772-74.384,72.517c0.082,4.896,0.129,9.764,0.129,14.582c0,106.086,28.283,153.791,91.482,153.371
	c75.438-0.502,132.688,30.748,114.438-192.086C1032.091,361.342,939.044,270.352,875.843,270.352z"/>
<path fill="#231F20" d="M853.955,424.769c-1.34,1.709-2.821,3.363-4.495,4.93c-0.806-19.294-0.108-34.919-3.209-52.373
	c-5.882-33.104-7.576-65.851,0.686-86.221C856.434,310.67,863.672,393.085,853.955,424.769z"/>
<g>
	<path fill="#231F20" d="M822.337,777.63c3.899,0.018,8.269,0.012,12.875-0.016c-5.285-0.039-9.507-0.127-11.959-0.264
		C822.964,777.449,822.644,777.537,822.337,777.63z"/>
	<path fill="#231F20" d="M764.447,769.042c0-25.145,80.988-36.496,111.883-42.094l1.084-5.059
		c-21.088-12.568-36.946-32.066-37.76-68.109c-0.716-31.709,19.322-69.494,45.377-75.877c-0.002,0-0.006,0-0.009-0.002
		c-33.061-8.129-61.553,38.176-60.701,75.879c0.813,36.043,16.672,55.541,37.759,68.109l-1.084,5.059
		c-30.894,5.598-111.883,16.949-111.883,42.094c0,6.527,18.699,8.58,25.476,8.037c6.551,2.809,16.071,3.158,24.017,2.213
		c-3.162-0.418-6.146-1.125-8.683-2.213C783.146,777.623,764.447,775.57,764.447,769.042z"/>
	<path fill="#231F20" d="M885.031,577.904c-26.055,6.383-46.093,44.168-45.377,75.877c0.813,36.043,16.672,55.541,37.76,68.109
		l-1.084,5.059c-30.895,5.598-111.883,16.949-111.883,42.094c0,6.527,18.699,8.58,25.476,8.037c2.534,1.088,5.521,1.795,8.683,2.213
		c8.246,1.092,17.7,0.143,23.731-1.662c0.308-0.094,0.627-0.182,0.916-0.279c2.452,0.139,6.674,0.225,11.959,0.266
		c24.222-0.145,54.97-0.898,58.213-2.16c1.752-0.684,12.917-7.318,14.424-16.625c0.662-4.783-2.771-9.662-0.875-14.813
		c1.896-5.146,2.729-19.107,2.729-19.107c21.086-12.566,36.022-43.414,36.022-71.131
		C945.725,616.07,917.585,585.914,885.031,577.904z"/>
</g>
<g>
	<path fill="#231F20" d="M897.271,770.044c0-25.143,19.874-36.494,50.767-42.094l1.084-5.059
		c-21.086-12.568-36.945-32.066-37.759-68.109c-0.725-32.107,19.834-70.445,46.369-76.1c-32.633-6.963-60.544,38.777-59.701,76.1
		c0.813,36.043,16.672,55.541,37.758,68.109l-1.084,5.059c-30.893,5.6-50.767,16.951-50.767,42.094
		c0,5.359,12.597,7.701,20.858,8.068c-0.162-0.768-0.296-1.51-0.404-2.23C900.317,774.582,897.271,772.679,897.271,770.044z"/>
	<path fill="#231F20" d="M909.382,761.697c1.353-5.646-0.922-5.596-4.226,2.512c-1.046,2.568-1.546,6.521-0.764,11.674
		c1.479,0.473,3.096,0.863,4.753,1.184C908.047,773.576,907.583,769.207,909.382,761.697z"/>
	<path fill="#231F20" d="M958.732,578.906c-0.334-0.082-0.667-0.15-1-0.223c-26.535,5.652-47.094,43.99-46.369,76.1
		c0.813,36.043,16.673,55.541,37.759,68.109l-1.084,5.059c-30.893,5.6-50.767,16.951-50.767,42.094c0,2.635,3.046,4.537,7.121,5.838
		c-0.782-5.15-0.282-9.104,0.764-11.674c3.303-8.107,5.577-8.158,4.226-2.512c-1.799,7.51-1.336,11.879-0.235,15.367
		c0.112,0.357,0.229,0.711,0.354,1.053c6.246,2.646,15.146,3.074,22.819,2.293c1.563-0.16,3.077-0.365,4.505-0.617
		c-1.082-3.369-1.01-6.799-0.43-10.205c0.999-5.889,7.666-13.273,6.812-9.723c-1.961,8.148-3.033,12.902-0.546,18.514
		c0.026-0.008,0.059-0.016,0.084-0.023c2.636,0.146,4.978,0.234,7.088,0.27c3.079,0.053,5.646-0.014,7.857-0.188
		c4.051-0.316,6.903-0.99,9.443-1.979c1.752-0.682,12.918-7.316,14.424-16.623c0.663-4.783-2.771-9.662-0.874-14.811
		c1.896-5.15,2.729-19.111,2.729-19.111c21.086-12.566,36.022-43.412,36.022-71.129
		C1019.435,617.068,991.288,586.91,958.732,578.906z"/>
</g>
<path fill="#231F20" d="M909.382,761.697c1.353-5.646-0.922-5.596-4.226,2.512c-1.19,2.928-1.677,7.652-0.358,13.904
	c1.803,0.08,3.401,0.066,4.615-0.029c0.027,0.012,0.06,0.021,0.088,0.033C908.162,774.443,907.398,769.976,909.382,761.697z"/>
<path fill="#231F20" d="M775.455,763.787c2.5-2.486,1.75-3.334-2.209,0.041c-2.403,2.051-4.768,7.074-3.448,13.326
	c1.802,0.08,3.401,0.068,4.614-0.029c0.027,0.012,0.06,0.021,0.087,0.033C773.162,773.484,771.371,767.847,775.455,763.787z"/>
<path fill="#231F20" d="M943.206,759.865c0.854-3.553-5.813,3.834-6.812,9.723c-0.58,3.406-0.652,6.836,0.43,10.205
	c2.179-0.385,4.168-0.861,5.836-1.414C940.173,772.767,941.245,768.013,943.206,759.865z"/>
<g>
	<path fill="#231F20" d="M736.735,371.705c6.341,6.328,5.206,9.43,4.41,7.795c-1.602-3.294-3.617-5.601-5.737-7.409
		c-0.005,0.003-0.01,0.003-0.016,0.006c-5.512-4.843-15.694-7.313-20.324-4.63c5.87,0.951,9.502,3.065,11.615,5.016
		c3.491,3.223,2.813,3.488,1.121,2.332c-7.343-5.018-11-5.256-14.939-5.262c-5.352,0.402-13.936,2.95-14.629,8.02
		c4.504-0.854,8.192,0.605,11.526,2.773c4.021,2.614,7.367,7.75,5.021,5.986c-6.396-4.805-9.646-7.168-16.473-6.033
		c-1.551,0.604-4.466,3.622-5.581,7.779c-0.061,0.275-0.112,0.553-0.16,0.834c-0.979,7.313,10.046,14.488,16.059,19.057
		c10.205,7.752,22.184,11.734,25.761,13.268l24.678-15.636C759.257,390.281,745.994,370.041,736.735,371.705z"/>
	<path fill="#231F20" d="M709.703,407.116c-4.334-2.552-18.112-10.892-17.133-18.204c-0.8,4.638,0.089,9.461,7.682,15.592
		c15.052,11.041,19.25,12.875,33.021,17.439l4.798-3.736C734.491,416.673,713.544,409.378,709.703,407.116z"/>
	<path fill="#231F20" d="M736.735,371.705c-0.451,0.081-0.895,0.198-1.327,0.386c2.12,1.809,4.138,4.115,5.737,7.409
		C741.941,381.135,743.076,378.033,736.735,371.705z"/>
	<path fill="#231F20" d="M727.805,374.814c1.69,1.156,2.37,0.891-1.121-2.332c-2.113-1.95-5.745-4.064-11.615-5.016
		c-0.873,0.506-1.57,1.174-1.979,2.064c-0.071,0.004-0.151,0.016-0.226,0.021C716.805,369.559,720.463,369.797,727.805,374.814z"/>
	<path fill="#231F20" d="M714.784,386.332c2.348,1.764-1-3.372-5.021-5.986c-3.334-2.168-7.022-3.627-11.526-2.773
		c-0.111,0.818-0.037,1.697,0.312,2.646c-0.072,0.018-0.154,0.049-0.235,0.08C705.137,379.164,708.389,381.527,714.784,386.332z"/>
</g>
<path fill="#231F20" d="M874.611,390.574c-16.468,5.664-44.809,37.38-63.963,41.691c-13.546,3.049-21.665-14.854-44.141-32.535
	c-6.527-5.136-27.984,9.407-36.404,17.906c-2.227,2.246-3.553,4.076-3.438,5.002c0.557,4.424,4.388,103.004,58.245,114.627
	c63.333,13.666,106.333-60,122.495-95.203C909.365,437.796,874.611,390.574,874.611,390.574z"/>
<g>
	<path fill="#231F20" d="M787.31,519.058c-42.794-9.232-54.003-73.363-57.082-101.544c-0.04,0.041-0.084,0.082-0.124,0.123
		c-2.227,2.246-3.553,4.077-3.438,5.001c0.556,4.426,4.387,103.006,58.244,114.627c63.333,13.666,106.333-60,122.495-95.201
		c0.405-0.883-0.763-3.605-2.864-7.363C885.38,472.138,844.689,531.439,787.31,519.058z"/>
</g>
<path fill="#231F20" d="M872.728,97.247c-12.663-6.573-25.68-6.603-29.073-0.066L775.32,228.847c0,0-15.729,61.06-48.852,124.878
	c-33.121,63.817-73.999,111.825-73.999,111.825l-68.335,131.668c-3.394,6.535,4.124,17.162,16.788,23.736
	c12.665,6.57,25.681,6.602,29.073,0.064l68.335-131.666c0,0,18.488-66.379,48.852-124.879
	c30.359-58.499,73.999-111.825,73.999-111.825l68.336-131.666C892.909,114.446,885.393,103.819,872.728,97.247z"/>
<ellipse transform="matrix(0.4607 -0.8876 0.8876 0.4607 370.5148 828.0111)" fill="#231F20" cx="866.6" cy="109.121" rx="13.335" ry="25.837"/>
<rect x="616.4" y="469.074" transform="matrix(0.8876 0.4607 -0.4607 0.8876 322.4719 -234.7855)" fill="#231F20" width="51.673" height="148.349"/>
<path fill="#231F20" d="M775.32,228.847l45.86,23.803c0,0-43.639,53.326-73.999,111.825
	c-30.362,58.499-48.852,124.878-48.852,124.878l-45.86-23.803c0,0,40.878-48.008,73.999-111.825
	C759.593,289.906,775.32,228.847,775.32,228.847z"/>
<rect x="806.57" y="100.701" transform="matrix(0.8876 0.4607 -0.4607 0.8876 174.1517 -363.8105)" fill="#231F20" width="51.673" height="148.349"/>
<path fill="#231F20" d="M881.8,103.346c-0.133,0.667-0.353,1.306-0.664,1.909L812.8,236.922c0,0-43.64,53.326-74,111.825
	c-30.361,58.499-48.851,124.877-48.851,124.877l-68.336,131.668c-3.393,6.535-16.408,6.506-29.073-0.066
	c-3.443-1.785-6.503-3.875-9.069-6.1c-1.296,6.557,5.957,15.861,17.451,21.828c12.665,6.57,25.681,6.602,29.073,0.064
	l68.335-131.666c0,0,18.488-66.379,48.852-124.879c30.36-58.499,73.999-111.825,73.999-111.825l68.336-131.666
	C891.986,116.224,888.671,109.298,881.8,103.346z"/>
<ellipse transform="matrix(0.4606 -0.8876 0.8876 0.4606 -212.634 868.2966)" fill="#231F20" cx="608.103" cy="609.1" rx="13.334" ry="25.834"/>
<g>
	<path fill="#231F20" d="M733.566,300.537c-19.093-5.35-47.932-7.102-62.768-5.396"/>
	<path fill="#231F20" d="M733.67,303.455c-18.871-6.084-42.151-8.617-57.044-7.49"/>
	<path fill="#231F20" d="M735.992,304.363c-19.599-3.01-46.871-5.629-61.395-2.148"/>
	<path fill="#231F20" d="M735.08,307.125c-19.729-1.963-48.129,3.514-62.446,7.762"/>
	<path fill="#231F20" d="M733.867,301.693c-19.724-2.029-52.534,4.252-66.866,8.451"/>
</g>
<path fill="#231F20" d="M935.996,81.787c30.834-20-3.166,106.334-32.833,122.334c-12.57,6.779-1.404,19.857-12.528,29.787
	c-11.124,9.93-9.49,13.535-18.759,17.357c-9.269,3.82-39.942-53.32-15.24-71.807c12.969-9.707,24.707-38.655,41.06-61.005
	C912.488,98.234,932.404,84.117,935.996,81.787z"/>
<path fill="#231F20" d="M768.413,72.954c-4.25-12.5,1.5,45.25,13.939,66.945c7.104,12.39,1.255,24.007,9.311,36.555
	c8.056,12.549-0.153,24.143,7.75,30.309c7.905,6.166,56.094,14.875,37.25-9.559c-9.893-12.826-18.235-38.084-28-64
	C799.83,109.758,769.792,77.007,768.413,72.954z"/>
<path fill="#231F20" d="M793.663,199.953c-16.737,15.037-43,32.5-50.5,54s-6,21.167-11,28c-5,6.834-8.833,28.334-3.167,33.834
	c5.667,5.5,5.167,7.166,9,7.5c-0.333,1.334-0.166,0.5,0.667,2.834c0.833,2.332,9.491,6.338,19.833,7.25
	c6.839,0.603,10.093,0.539,13.414-0.047c-0.422,4.482,20.976,11.435,27.091,12.416c6.837,1.098,31.996,4.714,41.33-3.119
	c9.332-7.834,25.166-25.334,31.332-30.501c6.168-5.167,33-25.667,24.668-43.167c-8.334-17.5-12.334-22.666-9.834-25.832
	c2.5-3.168-12.084-20.043-6.834-30.543s0.625-25.375,5.5-32s0.875-15,6.875-21.875s3.875-23.25,9.125-29.375
	s-4.691-5.403,18.059-25.903s9.933-18.222,23.558-22.847c3.577-1.214-7.364-3.875-13.989,3.375c-2.878,3.148-35.125,31.75-45.125,42
	s-16,15.75-19.75,21.5s-24.75,40.25-27.25,44.25c1-5.75,3-21.75-2.5-31.75s-18-35.25-25.25-43.25s-27.75-29.625-32.5-37.938
	s-9.5-18.063-12.75-12.813s2,20.75,5.75,28.25s12.5,25.5,16,35s13,32.75,18,40S808.413,186.703,793.663,199.953z"/>
<path fill="#231F20" d="M792.038,303.328c5.592,2.334,7.5,16.813,4.5,19.375c-2.871,2.453-11.25,14-44.292,9.65
	c-8.799-1.158-12.299-6.91-13.012-8.982c-1.375-3.996,16.748-13.168,29.188-26.918C777.264,295.693,786.447,300.994,792.038,303.328
	z"/>
<path fill="#231F20" d="M766.729,274.57c-1.078-5.962-28.305-6.328-29.518-2.574c-3.299,10.207-11.03,13.207-11.01,34.548
	c0.011,9.751,7.34,14.768,9.211,15.909c3.606,2.201,22.375-12.5,32.959-23.342C771.014,290.641,767.808,280.533,766.729,274.57z"/>
<path fill="#231F20" d="M806.203,256.783c-6.589,5.76-4.141,13.8-4.739,17.22c2.698-0.54,8.099-0.263,12.42-0.419
	c3.3-0.121,5.58-3.9,7.198-6.602c1.621-2.699,1.262-8.279,0.9-12.063C819.643,255.095,812.792,251.023,806.203,256.783z"/>
<circle fill="#231F20" cx="810.473" cy="262.421" r="9.914"/>
<circle fill="#231F20" cx="810.473" cy="262.421" r="7.931"/>
<path fill="#231F20" d="M825.913,251.447c-3.25,0.244-12.766-5.41-21.917,2.59c-9.149,8-5.75,19.166-6.583,23.916
	c3.75-0.75,11.249-0.363,17.25-0.582c4.583-0.168,7.75-5.418,10-9.168S826.413,256.703,825.913,251.447z M821.082,266.982
	c-1.618,2.701-3.898,6.48-7.198,6.602c-4.321,0.156-9.722-0.121-12.42,0.419c0.6-3.42-1.85-11.46,4.739-17.22
	c6.589-5.76,13.439-1.688,15.779-1.864C822.344,258.703,822.703,264.283,821.082,266.982z"/>
<circle fill="#231F20" cx="814.247" cy="256.12" r="1.521"/>
<path fill="#231F20" d="M737.871,323.371c-2.25-0.125-5.125-0.75-2.25-2.625s4.5-2.75,6.375-2c-0.375,2.75-2.375,2.625-1.5,5.25
	s5.418,6.713,12.5,7.707c12.13,1.703,22.42,0.453,30.584-2.5c10.488-3.793,13.702-8.733,15.021-10.688
	c1.729-2.562,2.74-3.981-0.478,1.922c-3.521,6.464-12.389,11.019-18.757,12.892c-11.586,3.407-17.94,2.953-27.997,1.043
	C746.568,333.458,735.917,328.166,737.871,323.371z"/>
<path fill="#231F20" d="M738.872,323.371c-2.25-0.125-5.125-0.75-2.25-2.625s4.5-2.75,6.375-2
	C742.622,321.496,740.184,323.308,738.872,323.371z"/>
<path fill="#231F20" d="M796.219,321.563c0.927-1.031,3.574-3.941,2.815-6.373c0.759-0.193,3.317-0.299,3.507,0.182
	C802.478,315.932,797.499,321.782,796.219,321.563z"/>
<path fill="#231F20" d="M751.498,301.782c19.094-5.35,47.933-7.102,62.769-5.397"/>
<path fill="#231F20" d="M751.396,304.699c18.871-6.084,42.151-8.617,57.043-7.489"/>
<path fill="#231F20" d="M749.072,305.607c19.6-3.009,46.871-5.628,61.396-2.147"/>
<path fill="#231F20" d="M749.984,308.369c19.73-1.962,48.129,3.515,62.447,7.762"/>
<path fill="#231F20" d="M751.197,302.938c19.725-2.029,52.534,4.253,66.866,8.451"/>
<path fill="#231F20" d="M905.663,275.953c-2.162,11.953-22.306,39.615-28.243,46.722c-10.559,12.634-7.887,35.653-34.585,51.397
	c-1.229,44.062-8.005,82.354-8.005,131.715c0,32.236,0.055,76.049,5.464,97.75c18.813,9.596,47.872,13.25,91.869,13.25
	c38.698,0,91.318-2.75,109.59-12.881c0.881-2.098,9.51-95.854,2.593-138.881C1029.973,375.633,966.665,297.245,905.663,275.953z"/>
<path fill="#231F20" d="M949.421,605.734c-43.996,0-73.059-3.652-91.87-13.25c-5.409-21.701-5.463-65.514-5.463-97.75
	c0-49.361,6.773-87.652,8.003-131.714c26.7-15.745,24.027-38.765,34.586-51.397c4.02-4.811,14.541-19.035,21.596-31.435
	c-3.567-1.594-7.11-3.015-10.608-4.235c-2.163,11.953-22.306,39.615-28.243,46.722c-10.559,12.634-7.887,35.653-34.586,51.397
	c-1.229,44.062-8.004,82.353-8.004,131.714c0,32.236,0.055,76.049,5.463,97.75c18.813,9.596,47.873,13.25,91.87,13.25
	c38.698,0,91.318-2.75,109.591-12.881c0.31-1.563,0.664-3.188,0.664-4.969C1024.308,603.74,978.798,605.734,949.421,605.734z"/>
<path fill="#231F20" d="M898.663,269.621c-0.912,9.035-32.537,68.16-57.292,92.167c-0.402,11.942-0.562,15.439-0.571,15.673
	c32.225-7.334,68.514-85.738,73.238-98.508C913.516,278.615,899.43,269.564,898.663,269.621z"/>
<path fill="#231F20" d="M911.042,276.873c-0.652,0.568-39.185,87.076-70.214,99.938c-0.01,0.202-0.019,0.417-0.028,0.65
	c32.225-7.334,68.514-85.738,73.238-98.508C913.516,278.615,911.99,277.517,911.042,276.873z"/>
<path fill="#231F20" d="M866.29,372.125c-7.895,6.547-16.447,22.999-25.495,37.627c-2.428,30.466-8.161,55.73-8.161,91.404
	c0,10.826-0.27,6.34-0.057,18.5c63.354-10.207,79.916-72.48,82.585-110.953C915.486,404.021,866.29,372.125,866.29,372.125z"/>
<path fill="#231F20" d="M844.187,439.806c-1.356-3.365,9.767-4.961,12.298-4.365c2.531,0.592,3.617,11.441,3.617,15.061
	c0,3.615-7.957,4.746-10.127,5.266S845.271,442.494,844.187,439.806z"/>
<path fill="#231F20" d="M853.611,440.199c4.342-4.348,17.726-17.006,24.597-16.281c6.87,0.723,0.452,17.854,5.651,21.586
	s-16.557,6.883-25.572,6.211S853.611,440.199,853.611,440.199z"/>
<path fill="#231F20" d="M847.441,439.806c-6.146,4.184-18.083,56.988-12.297,91.711c5.426,2.17,9.404,1.811,12.297,6.148
	c2.896,4.34-7.231-77.762,2.896-85.357S847.441,439.806,847.441,439.806z"/>
<path fill="#231F20" d="M845.818,439.298c-16.641,10.154-24.149,96.684-18.363,131.404c5.427,2.17,9.404,1.807,12.298,6.146
	c2.894,4.342-1.168-117.455,8.959-125.051C858.841,444.205,845.818,439.298,845.818,439.298z"/>
<path fill="#231F20" d="M909.001,417.076c3.676-3.061,2.843-6.887-0.308-10.836c-8.41-10.547-33.38-21.963-33.38-21.963
	c-10.8,10.014-28.11,32.203-42.736,45.885c0.822,19.74,1.717,39.852,2.042,59.43C870.191,474.849,896.891,427.162,909.001,417.076z"
	/>
<g>
	<path fill="#231F20" d="M758.023,342.224c4.928,7.482,3.188,10.29,2.74,8.526c-0.9-3.549-2.409-6.217-4.118-8.417
		c-0.005,0.002-0.011,0.001-0.017,0.003c-4.416-5.859-13.888-10.342-18.966-8.652c5.558,2.121,8.685,4.928,10.359,7.266
		c2.766,3.862,2.047,3.984,0.624,2.51c-6.173-6.4-9.706-7.375-13.563-8.18c-5.32-0.689-14.243,0.066-15.949,4.891
		c4.582,0.076,7.897,2.252,10.725,5.05c3.408,3.375,5.646,9.082,3.704,6.88c-5.29-6.001-7.995-8.975-14.909-9.245
		c-1.641,0.275-5.104,2.642-7.04,6.486c-0.114,0.259-0.223,0.52-0.327,0.784c-2.44,6.963,6.902,16.225,11.865,21.916
		c8.423,9.658,19.344,15.985,22.537,18.211l27.334-10.311C776.312,364.979,767.428,342.471,758.023,342.224z"/>
	<path fill="#231F20" d="M724.378,371.423c-3.728-3.377-15.531-14.335-13.091-21.298c-1.723,4.38-1.83,9.283,4.363,16.825
		c12.502,13.862,16.242,16.508,28.801,23.768l5.456-2.687C746.716,385.805,727.678,374.416,724.378,371.423z"/>
	<path fill="#231F20" d="M758.023,342.224c-0.459-0.012-0.916,0.013-1.378,0.109c1.709,2.2,3.218,4.868,4.118,8.417
		C761.212,352.514,762.951,349.706,758.023,342.224z"/>
	<path fill="#231F20" d="M748.647,343.459c1.423,1.475,2.142,1.353-0.624-2.51c-1.676-2.338-4.803-5.145-10.359-7.266
		c-0.957,0.318-1.774,0.83-2.354,1.621c-0.07-0.01-0.15-0.016-0.225-0.025C738.941,336.084,742.475,337.059,748.647,343.459z"/>
	<path fill="#231F20" d="M733.563,352.1c1.94,2.202-0.296-3.505-3.704-6.88c-2.826-2.798-6.143-4.974-10.725-5.05
		c-0.275,0.777-0.381,1.652-0.233,2.652c-0.073,0.004-0.161,0.018-0.247,0.032C725.568,343.125,728.273,346.099,733.563,352.1z"/>
</g>
<path fill="#231F20" d="M882.367,357.215c-16.469,5.664-44.809,37.38-63.964,41.691c-13.545,3.049-21.665-14.854-44.14-32.535
	c-6.528-5.136-27.984,9.407-36.404,17.906c-2.227,2.246-3.554,4.077-3.438,5.002c0.555,4.424,4.386,103.006,58.243,114.627
	c63.334,13.666,106.334-60,122.496-95.203C917.12,404.438,882.367,357.215,882.367,357.215z"/>
<g>
	<path fill="#231F20" d="M795.064,485.699c-42.794-9.234-54.003-73.365-57.081-101.545c-0.04,0.041-0.085,0.082-0.124,0.123
		c-2.227,2.246-3.554,4.077-3.438,5.002c0.555,4.424,4.386,103.006,58.243,114.627c63.334,13.666,106.334-60,122.496-95.203
		c0.404-0.882-0.764-3.604-2.865-7.363C893.135,438.779,852.444,498.08,795.064,485.699z"/>
</g>
<g>
	<path fill="#231F20" d="M158.063,579.503c0.903,2.879,1.15,5.539,0.537,7.842c-4.481,16.789-9.32,17.33-9.32,17.33
		c-10.315,6.191-30.842,11.545-46.94,4.234c0.108,0.439,0.217,0.873,0.328,1.328c9.864,40.215,49.437,28.539,67.442,22.822
		c0,0,4.839-0.541,9.32-17.33C181.898,606.482,170.518,591.468,158.063,579.503z"/>
	<path fill="#231F20" d="M149.279,604.675c0,0,4.839-0.541,9.32-17.33c0.613-2.303,0.366-4.963-0.537-7.842
		c-10.155-9.756-21.025-17.486-25.69-18.414c-10.389-2.068-26.567,9.301-34.082,12.648c1.983,0,6.48,1.846,10.354,9.242
		c-4.212-4.012-12.181-3.594-16.919-1.695c3.037,1.479,4.864,4.352,10.612,27.625C118.437,616.22,138.963,610.867,149.279,604.675z"
		/>
</g>
<g>
	<path fill="#231F20" d="M337.379,424.769c1.341,1.709,2.822,3.363,4.497,4.93c0.804-19.294,0.107-34.919,3.207-52.373
		c5.881-33.104,7.577-65.851-0.685-86.221C334.9,310.67,327.663,393.085,337.379,424.769z"/>
	<path fill="#231F20" d="M315.937,385.891c9.564,8.867,11.068,25.65,21.441,38.878c-9.716-31.684-2.479-114.099,7.021-133.664
		c-5.204-12.83-14.354-20.753-28.906-20.753c-63.202,0-156.249,90.99-164.908,196.722c-18.25,222.834,39,191.584,114.438,192.086
		c63.2,0.42,91.483-47.285,91.483-153.371c0-4.818,0.047-9.686,0.128-14.582c-35.573-14.742-62.271-62.432-74.383-72.517
		c-3.674-3.061-2.842-6.887,0.308-10.836C290.967,397.307,315.937,385.891,315.937,385.891z"/>
</g>
<g>
	<path fill="#231F20" d="M368.997,777.63c-3.899,0.018-8.269,0.012-12.875-0.016c5.286-0.039,9.507-0.127,11.959-0.264
		C368.37,777.449,368.69,777.537,368.997,777.63z"/>
	<path fill="#231F20" d="M426.886,769.042c0-25.145-80.988-36.496-111.882-42.094l-1.084-5.059
		c21.087-12.568,36.946-32.066,37.759-68.109c0.716-31.709-19.322-69.494-45.377-75.877c0.003,0,0.006,0,0.009-0.002
		c33.061-8.129,61.553,38.176,60.702,75.879c-0.813,36.043-16.672,55.541-37.759,68.109l1.084,5.059
		c30.893,5.598,111.882,16.949,111.882,42.094c0,6.527-18.699,8.58-25.476,8.037c-6.55,2.809-16.071,3.158-24.017,2.213
		c3.163-0.418,6.147-1.125,8.683-2.213C408.187,777.623,426.886,775.57,426.886,769.042z"/>
	<path fill="#231F20" d="M306.302,577.904c26.055,6.383,46.093,44.168,45.377,75.877c-0.813,36.043-16.672,55.541-37.759,68.109
		l1.084,5.059c30.894,5.598,111.882,16.949,111.882,42.094c0,6.527-18.7,8.58-25.476,8.037c-2.534,1.088-5.521,1.795-8.683,2.213
		c-8.246,1.092-17.7,0.143-23.731-1.662c-0.307-0.094-0.627-0.182-0.916-0.279c-2.452,0.139-6.673,0.225-11.959,0.266
		c-24.221-0.145-54.969-0.898-58.212-2.16c-1.752-0.684-12.917-7.318-14.423-16.625c-0.663-4.783,2.771-9.662,0.875-14.813
		c-1.897-5.146-2.729-19.107-2.729-19.107c-21.087-12.566-36.022-43.414-36.022-71.131
		C245.609,616.07,273.75,585.914,306.302,577.904z"/>
</g>
<g>
	<path fill="#231F20" d="M294.062,770.044c0-25.143-19.874-36.494-50.767-42.094l-1.084-5.059
		c21.086-12.568,36.946-32.066,37.759-68.109c0.725-32.107-19.833-70.445-46.369-76.1c32.633-6.963,60.543,38.777,59.702,76.1
		c-0.813,36.043-16.673,55.541-37.759,68.109l1.084,5.059c30.893,5.6,50.767,16.951,50.767,42.094
		c0,5.359-12.598,7.701-20.858,8.068c0.162-0.768,0.295-1.51,0.404-2.23C291.016,774.582,294.062,772.679,294.062,770.044z"/>
	<path fill="#231F20" d="M281.953,761.697c-1.353-5.646,0.922-5.596,4.225,2.512c1.046,2.568,1.546,6.521,0.764,11.674
		c-1.481,0.473-3.096,0.863-4.753,1.184C283.288,773.576,283.75,769.207,281.953,761.697z"/>
	<path fill="#231F20" d="M232.601,578.906c0.334-0.082,0.667-0.15,1-0.223c26.536,5.652,47.094,43.99,46.369,76.1
		c-0.813,36.043-16.673,55.541-37.759,68.109l1.084,5.059c30.893,5.6,50.767,16.951,50.767,42.094c0,2.635-3.045,4.537-7.121,5.838
		c0.782-5.15,0.282-9.104-0.764-11.674c-3.303-8.107-5.577-8.158-4.225-2.512c1.798,7.51,1.335,11.879,0.235,15.367
		c-0.112,0.357-0.229,0.711-0.354,1.053c-6.247,2.646-15.146,3.074-22.819,2.293c-1.563-0.16-3.078-0.365-4.506-0.617
		c1.083-3.369,1.01-6.799,0.43-10.205c-0.999-5.889-7.666-13.273-6.812-9.723c1.961,8.148,3.034,12.902,0.545,18.514
		c-0.025-0.008-0.057-0.016-0.083-0.023c-2.635,0.146-4.977,0.234-7.087,0.27c-3.08,0.053-5.646-0.014-7.857-0.188
		c-4.051-0.316-6.903-0.99-9.443-1.979c-1.751-0.682-12.917-7.316-14.423-16.623c-0.663-4.783,2.771-9.662,0.874-14.811
		c-1.897-5.15-2.729-19.111-2.729-19.111c-21.086-12.566-36.021-43.412-36.021-71.129
		C171.899,617.068,200.045,586.91,232.601,578.906z"/>
</g>
<path fill="#231F20" d="M281.953,761.697c-1.353-5.646,0.922-5.596,4.225,2.512c1.191,2.928,1.677,7.652,0.359,13.904
	c-1.803,0.08-3.402,0.066-4.616-0.029c-0.026,0.012-0.059,0.021-0.086,0.033C283.171,774.443,283.935,769.976,281.953,761.697z"/>
<path fill="#231F20" d="M415.879,763.787c-2.5-2.486-1.75-3.334,2.208,0.041c2.404,2.051,4.768,7.074,3.449,13.326
	c-1.802,0.08-3.401,0.068-4.615-0.029c-0.027,0.012-0.06,0.021-0.086,0.033C418.173,773.484,419.963,767.847,415.879,763.787z"/>
<path fill="#231F20" d="M248.127,759.865c-0.854-3.553,5.813,3.834,6.812,9.723c0.58,3.406,0.652,6.836-0.43,10.205
	c-2.178-0.385-4.168-0.861-5.836-1.414C251.162,772.767,250.088,768.013,248.127,759.865z"/>
<rect x="472.63" y="543.706" transform="matrix(-0.9838 0.1795 -0.1795 -0.9838 1099.7471 1136.2518)" fill="#231F20" width="51.673" height="148.351"/>
<ellipse transform="matrix(0.1795 0.9838 -0.9838 0.1795 1099.4764 63.3716)" fill="#231F20" cx="511.749" cy="690.782" rx="13.335" ry="25.836"/>
<g>
	<path fill="#231F20" d="M457.767,300.537c19.093-5.35,47.931-7.102,62.768-5.396"/>
	<path fill="#231F20" d="M457.665,303.455c18.871-6.084,42.151-8.617,57.043-7.49"/>
	<path fill="#231F20" d="M455.343,304.363c19.598-3.01,46.871-5.629,61.395-2.148"/>
	<path fill="#231F20" d="M456.254,307.125c19.729-1.963,48.129,3.514,62.446,7.762"/>
	<path fill="#231F20" d="M457.468,301.693c19.723-2.029,52.534,4.252,66.865,8.451"/>
</g>
<g>
	<path fill="#231F20" d="M430.598,371.705c-6.341,6.328-5.206,9.43-4.411,7.795c1.601-3.294,3.618-5.601,5.737-7.409
		c0.005,0.003,0.01,0.003,0.016,0.006c5.511-4.843,15.694-7.313,20.325-4.63c-5.871,0.951-9.502,3.065-11.616,5.016
		c-3.491,3.223-2.813,3.488-1.12,2.332c7.342-5.018,11-5.256,14.938-5.262c5.352,0.402,13.936,2.95,14.629,8.02
		c-4.503-0.854-8.192,0.605-11.526,2.773c-4.021,2.614-7.368,7.75-5.021,5.986c6.396-4.805,9.647-7.168,16.472-6.033
		c1.551,0.604,4.466,3.622,5.581,7.779c0.06,0.275,0.113,0.553,0.161,0.834c0.979,7.313-10.046,14.488-16.06,19.057
		c-10.206,7.752-22.183,11.734-25.76,13.268l-24.677-15.636C408.078,390.281,421.34,370.041,430.598,371.705z"/>
	<path fill="#231F20" d="M457.631,407.116c4.334-2.552,18.112-10.892,17.133-18.204c0.799,4.638-0.089,9.461-7.682,15.592
		c-15.052,11.041-19.25,12.875-33.021,17.439l-4.797-3.736C432.843,416.673,453.791,409.378,457.631,407.116z"/>
	<path fill="#231F20" d="M430.598,371.705c0.451,0.081,0.895,0.198,1.327,0.386c-2.12,1.809-4.138,4.115-5.737,7.409
		C425.392,381.135,424.258,378.033,430.598,371.705z"/>
	<path fill="#231F20" d="M439.529,374.814c-1.691,1.156-2.371,0.891,1.12-2.332c2.114-1.95,5.745-4.064,11.616-5.016
		c0.872,0.506,1.57,1.174,1.979,2.064c0.071,0.004,0.15,0.016,0.225,0.021C450.529,369.559,446.872,369.797,439.529,374.814z"/>
	<path fill="#231F20" d="M452.55,386.332c-2.348,1.764,1-3.372,5.021-5.986c3.334-2.168,7.022-3.627,11.526-2.773
		c0.111,0.818,0.038,1.697-0.311,2.646c0.072,0.018,0.154,0.049,0.234,0.08C462.197,379.164,458.945,381.527,452.55,386.332z"/>
</g>
<path fill="#231F20" d="M259.927,442.062c16.161,35.203,59.162,108.869,122.496,95.203c53.858-11.621,57.688-110.203,58.245-114.627
	c0.115-0.924-1.212-2.755-3.438-5.001c-8.42-8.499-29.876-23.042-36.404-17.906c-22.476,17.682-30.595,35.583-44.14,32.534
	c-19.155-4.311-47.496-36.026-63.964-41.69C292.722,390.574,257.969,437.796,259.927,442.062z"/>
<g>
	<path fill="#231F20" d="M380.024,519.058c42.794-9.232,54.003-73.363,57.082-101.544c0.04,0.041,0.084,0.082,0.125,0.123
		c2.226,2.246,3.553,4.077,3.438,5.001c-0.556,4.426-4.387,103.006-58.245,114.627c-63.333,13.666-106.334-60-122.496-95.201
		c-0.405-0.883,0.763-3.605,2.865-7.363C281.955,472.138,322.645,531.439,380.024,519.058z"/>
</g>
<path fill="#231F20" d="M294.605,97.247c12.664-6.573,25.68-6.603,29.073-0.066l68.335,131.666c0,0,15.728,61.06,48.851,124.878
	c33.121,63.817,74,111.825,74,111.825l68.335,131.668c3.394,6.535-4.124,17.162-16.788,23.736
	c-12.665,6.57-25.681,6.602-29.072,0.064l-68.335-131.666c0,0-18.488-66.379-48.851-124.879c-30.36-58.499-74-111.825-74-111.825
	l-68.336-131.666C274.424,114.446,281.941,103.819,294.605,97.247z"/>
<ellipse transform="matrix(0.4607 0.8876 -0.8876 0.4607 259.0185 -208.0884)" fill="#231F20" cx="300.737" cy="109.091" rx="13.335" ry="25.836"/>
<rect x="499.298" y="469.107" transform="matrix(-0.8876 0.4607 -0.4607 -0.8876 1241.5057 783.5543)" fill="#231F20" width="51.672" height="148.348"/>
<path fill="#231F20" d="M392.014,228.847l-45.861,23.803c0,0,43.64,53.326,74,111.825c30.362,58.499,48.851,124.878,48.851,124.878
	l45.86-23.803c0,0-40.878-48.008-74-111.825C407.742,289.906,392.014,228.847,392.014,228.847z"/>
<rect x="309.094" y="100.731" transform="matrix(-0.8876 0.4607 -0.4607 -0.8876 712.779 175.8509)" fill="#231F20" width="51.673" height="148.349"/>
<path fill="#231F20" d="M285.535,103.346c0.132,0.667,0.352,1.306,0.664,1.909l68.336,131.667c0,0,43.64,53.326,74,111.825
	c30.361,58.499,48.851,124.877,48.851,124.877l68.335,131.668c3.393,6.535,16.409,6.506,29.073-0.066
	c3.443-1.785,6.503-3.875,9.069-6.1c1.296,6.557-5.957,15.861-17.452,21.828c-12.665,6.57-25.681,6.602-29.072,0.064
	l-68.335-131.666c0,0-18.488-66.379-48.851-124.879c-30.36-58.499-74-111.825-74-111.825l-68.336-131.666
	C275.347,116.224,278.663,109.298,285.535,103.346z"/>
<ellipse transform="matrix(0.4606 0.8876 -0.8876 0.4606 842.3216 -167.8853)" fill="#231F20" cx="559.289" cy="609.08" rx="13.334" ry="25.836"/>
<path fill="#231F20" d="M439.836,301.782c-19.094-5.35-47.932-7.102-62.769-5.397"/>
<path fill="#231F20" d="M439.938,304.699c-18.871-6.084-42.151-8.617-57.043-7.489"/>
<path fill="#231F20" d="M442.261,305.607c-19.599-3.009-46.871-5.628-61.396-2.147"/>
<path fill="#231F20" d="M441.349,308.369c-19.73-1.962-48.129,3.515-62.447,7.762"/>
<path fill="#231F20" d="M440.136,302.938c-19.724-2.029-52.534,4.253-66.866,8.451"/>
<path fill="#231F20" d="M347.436,508.13c7.946,11.699,22.652,89.844,21.608,104.311s-36.762,3.967-31.902,11.467
	c4.858,7.5-29.533,4.143-47.429,4.893c-25.479,1.068-68.964,10.344-77.079,1.387c-3.628-4.004-23.206-0.127-32.866,1.375
	c-9.66,1.5-42.473-0.607-43.02-9.404s8.667-102.301,12.5-114.025C153.082,496.41,344.871,504.355,347.436,508.13z"/>
<g>
	<path fill="#231F20" d="M347.436,508.13c-0.151-0.223-0.967-0.459-2.354-0.705c7.89,25.922,17.512,80.063,16.66,91.857
		c-1.043,14.467-36.761,3.967-31.901,11.467c4.857,7.5-29.533,4.143-47.429,4.893c-25.479,1.068-68.964,10.346-77.079,1.389
		c-3.628-4.004-23.207-0.127-32.867,1.375c-6.803,1.057-25.074,0.318-35.486-3.279c-0.211,3.467-0.297,5.922-0.229,7.031
		c0.547,8.797,33.358,10.902,43.02,9.402c9.66-1.502,29.238-5.379,32.866-1.375c8.115,8.957,51.601-0.316,77.079-1.387
		c17.896-0.75,52.286,2.607,47.429-4.893c-4.859-7.5,30.857,3,31.902-11.467C370.088,597.974,355.383,519.83,347.436,508.13z"/>
	<g>
		<path fill="#231F20" d="M172.466,618.404c9.66-1.502,29.239-5.379,32.867-1.375c8.115,8.957,51.601-0.318,77.079-1.387
			c17.896-0.75,52.286,2.607,47.429-4.893c-4.859-7.5,30.857,3,31.901-11.467c0.852-11.797-8.771-65.938-16.659-91.859
			c-22.168-3.938-192.225-10.326-195.832,0.707c-3.351,10.246-10.81,82.959-12.271,106.994
			C147.391,618.724,165.663,619.46,172.466,618.404z"/>
	</g>
</g>
<path fill="#231F20" d="M285.67,275.953c2.163,11.953,22.307,39.615,28.244,46.722c10.559,12.634,7.886,35.653,34.585,51.397
	c1.229,44.062,8.004,82.354,8.004,131.715c0,32.236,6.635-4.748,1.226,16.953c-18.813,9.596-52.974,13.662-96.972,13.662
	c-38.696,0-97.888-3.697-116.158-13.828c-0.881-2.098-4.528-14.521,2.389-57.549C161.36,375.633,224.668,297.245,285.67,275.953z"/>
<path fill="#231F20" d="M235.85,525.349c43.997,0,79.004-1.18,97.816-10.775c5.409-21.699,5.58,12.396,5.58-19.838
	c0-49.361-6.773-87.653-8.003-131.715c-26.699-15.745-24.027-38.765-34.585-51.397c-4.02-4.811-14.542-19.035-21.596-31.435
	c3.567-1.594,7.11-3.015,10.608-4.235c2.163,11.953,22.307,39.615,28.244,46.722c10.559,12.634,7.886,35.653,34.585,51.397
	c1.229,44.062,8.004,82.354,8.004,131.715c0,32.236-2.262-1.582-7.671,20.119c-18.813,9.596-51.729,10.496-95.726,10.496
	c-38.698,0-90.547-2.629-108.819-12.762c-0.31-1.563-0.665-3.188-0.665-4.969C161.733,523.476,206.473,525.349,235.85,525.349z"/>
<path fill="#231F20" d="M292.67,269.621c0.913,9.035,32.538,68.16,57.293,92.167c0.402,11.942,0.561,15.439,0.57,15.673
	c-32.224-7.334-68.514-85.738-73.239-98.508C277.818,278.615,291.903,269.564,292.67,269.621z"/>
<path fill="#231F20" d="M280.292,276.873c0.653,0.568,39.186,87.076,70.215,99.938c0.009,0.202,0.018,0.417,0.027,0.65
	c-32.224-7.334-68.514-85.738-73.239-98.508C277.818,278.615,279.343,277.517,280.292,276.873z"/>
<path fill="#231F20" d="M255.337,81.787c-30.833-20,3.167,106.334,32.833,122.334c12.571,6.779,1.405,19.857,12.529,29.787
	c11.124,9.93,9.49,13.535,18.758,17.357c9.27,3.82,39.943-53.32,15.241-71.807c-12.968-9.707-24.706-38.655-41.059-61.005
	C278.845,98.234,258.929,84.117,255.337,81.787z"/>
<path fill="#231F20" d="M422.921,72.954c4.25-12.5-1.5,45.25-13.94,66.945c-7.104,12.39-1.254,24.007-9.31,36.555
	c-8.056,12.549,0.153,24.143-7.75,30.309c-7.905,6.166-56.094,14.875-37.25-9.559c9.892-12.826,18.235-38.084,28-64
	C391.504,109.758,421.542,77.007,422.921,72.954z"/>
<path fill="#231F20" d="M397.671,199.953c16.737,15.037,43,32.5,50.5,54s6,21.167,11,28c5,6.834,8.833,28.334,3.167,33.834
	s-5.167,7.166-9,7.5c0.333,1.334,0.167,0.5-0.667,2.834c-0.833,2.332-9.491,6.338-19.833,7.25
	c-6.837,0.603-10.092,0.539-13.413-0.047c0.421,4.482-20.977,11.435-27.09,12.416c-6.838,1.098-31.997,4.714-41.33-3.119
	c-9.333-7.834-25.167-25.334-31.333-30.501s-33.001-25.667-24.668-43.167c8.334-17.5,12.334-22.666,9.834-25.832
	c-2.5-3.168,12.083-20.043,6.833-30.543s-0.625-25.375-5.5-32s-0.875-15-6.875-21.875c-6.001-6.875-3.876-23.25-9.126-29.375
	s4.692-5.403-18.058-25.903s-9.933-18.222-23.558-22.847c-3.578-1.214,7.364-3.875,13.989,3.375c2.877,3.148,35.126,31.75,45.126,42
	s16,15.75,19.75,21.5s24.75,40.25,27.25,44.25c-1-5.75-3-21.75,2.5-31.75s18-35.25,25.25-43.25s27.75-29.625,32.5-37.938
	s9.5-18.063,12.75-12.813s-2,20.75-5.75,28.25s-12.5,25.5-16,35s-13,32.75-18,40S382.921,186.703,397.671,199.953z"/>
<path fill="#231F20" d="M399.296,303.328c-5.592,2.334-7.5,16.813-4.5,19.375c2.872,2.453,11.25,14,44.292,9.65
	c8.799-1.158,12.299-6.91,13.012-8.982c1.375-3.996-16.748-13.168-29.188-26.918C414.07,295.693,404.887,300.994,399.296,303.328z"
	/>
<path fill="#231F20" d="M424.604,274.57c1.079-5.962,28.305-6.328,29.518-2.574c3.299,10.207,11.031,13.207,11.01,34.548
	c-0.011,9.751-7.339,14.768-9.211,15.909c-3.607,2.201-22.375-12.5-32.959-23.342C420.32,290.641,423.526,280.533,424.604,274.57z"
	/>
<path fill="#231F20" d="M385.132,256.783c6.588,5.76,4.14,13.8,4.739,17.22c-2.699-0.54-8.099-0.263-12.42-0.419
	c-3.3-0.121-5.58-3.9-7.2-6.602c-1.619-2.699-1.26-8.279-0.899-12.063C371.691,255.095,378.542,251.023,385.132,256.783z"/>
<circle fill="#231F20" cx="380.861" cy="262.421" r="9.914"/>
<circle fill="#231F20" cx="380.861" cy="262.421" r="7.931"/>
<path fill="#231F20" d="M366.671,268.203c2.25,3.75,5.417,9,10,9.168c6.001,0.219,13.5-0.168,17.25,0.582
	c-0.833-4.75,2.566-15.916-6.583-23.916c-9.151-8-18.667-2.346-21.917-2.59C364.921,256.703,364.421,264.453,366.671,268.203z
	 M369.351,254.919c2.34,0.176,9.191-3.896,15.78,1.864c6.588,5.76,4.14,13.8,4.739,17.22c-2.699-0.54-8.099-0.263-12.42-0.419
	c-3.3-0.121-5.58-3.9-7.2-6.602C368.632,264.283,368.991,258.703,369.351,254.919z"/>
<circle fill="#231F20" cx="377.088" cy="256.12" r="1.521"/>
<path fill="#231F20" d="M453.463,323.371c2.25-0.125,5.125-0.75,2.25-2.625s-4.5-2.75-6.375-2c0.375,2.75,2.375,2.625,1.5,5.25
	s-5.417,6.713-12.5,7.707c-12.128,1.703-22.421,0.453-30.583-2.5c-10.489-3.793-13.703-8.733-15.022-10.688
	c-1.728-2.562-2.741-3.981,0.476,1.922c3.521,6.464,12.39,11.019,18.758,12.892c11.586,3.407,17.94,2.953,27.997,1.043
	C444.765,333.458,455.417,328.166,453.463,323.371z"/>
<path fill="#231F20" d="M453.462,323.371c2.25-0.125,5.125-0.75,2.25-2.625s-4.5-2.75-6.375-2
	C449.712,321.496,452.15,323.308,453.462,323.371z"/>
<path fill="#231F20" d="M395.115,321.563c-0.928-1.031-3.575-3.941-2.815-6.373c-0.759-0.193-3.318-0.299-3.508,0.182
	C388.855,315.932,393.835,321.782,395.115,321.563z"/>
<g>
	<path fill="#231F20" d="M301.044,372.125c7.894,6.547,16.448,22.999,25.495,37.627c2.427,30.466,16.634,58.267,16.634,93.941
		c0,10.826-8.204,3.803-8.417,15.963c-63.354-10.207-79.917-72.48-82.586-110.953C251.847,404.021,301.044,372.125,301.044,372.125z
		"/>
	<g>
		<path fill="#231F20" d="M342.885,403.168c-4.341-4.346-17.725-17.005-24.597-16.281c-6.87,0.723-0.451,17.854-5.65,21.586
			s16.556,6.883,25.571,6.211C347.225,414.013,342.885,403.168,342.885,403.168z"/>
	</g>
	<path fill="#231F20" d="M349.055,402.775c6.146,4.183,13.414,108.938,7.628,143.658c-5.426,2.17-9.403,1.809-12.297,6.148
		c-2.895,4.34,11.901-129.709,1.774-137.306C336.033,407.682,349.055,402.775,349.055,402.775z"/>
	<g>
		<path fill="#231F20" d="M350.679,402.268c16.641,10.154,22.215,132.101,16.428,166.821c-5.425,2.17-9.403,1.811-12.297,6.148
			c-2.894,4.342,3.103-152.873-7.024-160.469C337.657,407.174,350.679,402.268,350.679,402.268z"/>
	</g>
	<g>
		<path fill="#231F20" d="M352.31,402.775c1.356-3.365-9.766-4.96-12.298-4.367c-2.531,0.594-3.616,11.443-3.616,15.061
			c0,3.618,7.956,4.746,10.127,5.267C348.692,419.256,351.225,405.464,352.31,402.775z"/>
	</g>
</g>
<path fill="#231F20" d="M258.333,417.076c-3.674-3.061-2.842-6.887,0.308-10.836c8.411-10.547,33.38-21.963,33.38-21.963
	c10.8,10.014,28.11,32.203,42.736,45.885c-0.822,19.74-1.717,39.852-2.042,59.43C297.142,474.849,270.443,427.162,258.333,417.076z"
	/>
<g>
	<path fill="#231F20" d="M409.31,342.224c-4.927,7.482-3.188,10.29-2.74,8.526c0.9-3.549,2.408-6.217,4.117-8.417
		c0.006,0.002,0.011,0.001,0.017,0.003c4.416-5.859,13.888-10.342,18.966-8.652c-5.558,2.121-8.686,4.928-10.359,7.266
		c-2.766,3.862-2.048,3.984-0.625,2.51c6.174-6.4,9.707-7.375,13.563-8.18c5.322-0.689,14.244,0.066,15.951,4.891
		c-4.583,0.076-7.898,2.252-10.725,5.05c-3.408,3.375-5.646,9.082-3.704,6.88c5.29-6.001,7.995-8.975,14.909-9.245
		c1.641,0.275,5.105,2.642,7.041,6.486c0.114,0.259,0.223,0.52,0.327,0.784c2.44,6.963-6.902,16.225-11.864,21.916
		c-8.423,9.658-19.345,15.985-22.538,18.211l-27.333-10.311C391.021,364.979,399.906,342.471,409.31,342.224z"/>
	<path fill="#231F20" d="M442.957,371.423c3.728-3.377,15.53-14.335,13.09-21.298c1.723,4.38,1.829,9.283-4.362,16.825
		c-12.502,13.862-16.242,16.508-28.802,23.768l-5.456-2.687C420.619,385.805,439.655,374.416,442.957,371.423z"/>
	<path fill="#231F20" d="M409.31,342.224c0.458-0.012,0.917,0.013,1.377,0.109c-1.709,2.2-3.217,4.868-4.117,8.417
		C406.123,352.514,404.384,349.706,409.31,342.224z"/>
	<path fill="#231F20" d="M418.686,343.459c-1.423,1.475-2.141,1.353,0.625-2.51c1.675-2.338,4.803-5.145,10.359-7.266
		c0.956,0.318,1.774,0.83,2.354,1.621c0.07-0.01,0.15-0.016,0.223-0.025C428.393,336.084,424.859,337.059,418.686,343.459z"/>
	<path fill="#231F20" d="M433.77,352.1c-1.941,2.202,0.296-3.505,3.704-6.88c2.826-2.798,6.142-4.974,10.725-5.05
		c0.275,0.777,0.38,1.652,0.233,2.652c0.074,0.004,0.161,0.018,0.247,0.032C441.765,343.125,439.06,346.099,433.77,352.1z"/>
</g>
<path fill="#231F20" d="M252.171,408.703c16.162,35.203,59.162,108.869,122.496,95.203c53.859-11.621,57.689-110.203,58.245-114.627
	c0.116-0.925-1.211-2.756-3.438-5.002c-8.42-8.499-29.876-23.042-36.404-17.906c-22.476,17.682-30.595,35.584-44.14,32.535
	c-19.155-4.312-47.496-36.027-63.965-41.691C284.966,357.215,250.213,404.438,252.171,408.703z"/>
<g>
	<path fill="#231F20" d="M372.269,485.699c42.794-9.234,54.003-73.365,57.082-101.545c0.04,0.041,0.084,0.082,0.124,0.123
		c2.227,2.246,3.554,4.077,3.438,5.002c-0.555,4.424-4.386,103.006-58.244,114.627c-63.333,13.666-106.334-60-122.497-95.203
		c-0.404-0.882,0.764-3.604,2.866-7.363C274.2,438.779,314.889,498.08,372.269,485.699z"/>
</g>
<path fill="#231F20" d="M760.954,497.798H583.32H405.686c-10.315,0,19.386,279.916,76.334,279.916h101.3h101.3
	C741.567,777.714,771.27,497.798,760.954,497.798z"/>
</svg>
