<svg xmlns="http://www.w3.org/2000/svg" width="16" height="16" viewBox="0 0 16 16">
  <metadata><?xpacket begin="﻿" id="W5M0MpCehiHzreSzNTczkc9d"?>
<x:xmpmeta xmlns:x="adobe:ns:meta/" x:xmptk="Adobe XMP Core 5.6-c138 79.159824, 2016/09/14-01:09:01        ">
   <rdf:RDF xmlns:rdf="http://www.w3.org/1999/02/22-rdf-syntax-ns#">
      <rdf:Description rdf:about=""/>
   </rdf:RDF>
</x:xmpmeta>
                                                                                                    
                                                                                                    
                                                                                                    
                                                                                                    
                                                                                                    
                                                                                                    
                                                                                                    
                                                                                                    
                                                                                                    
                                                                                                    
                                                                                                    
                                                                                                    
                                                                                                    
                                                                                                    
                                                                                                    
                                                                                                    
                                                                                                    
                                                                                                    
                                                                                                    
                                                                                                    
                           
<?xpacket end="w"?></metadata>
<defs>
    <style>
      .cls-1 {
        fill: #222;
        fill-rule: evenodd;
        mix-blend-mode: screen;
      }
    </style>
  </defs>
  <path id="svg-icon-bag" class="cls-1" d="M14,16H2a2,2,0,0,1-2-2L1,8A2.25,2.25,0,0,1,3,6H13a2,2,0,0,1,2,2l1,6A2,2,0,0,1,14,16ZM13.012,8H2.988L2,14h11.99ZM11,10a1,1,0,0,1-1-1V4A2,2,0,1,0,6,4V9A1,1,0,1,1,4,9V4a4,4,0,1,1,8,0V9A1,1,0,0,1,11,10Z"/>
</svg>
